<mxfile host="65bd71144e">
    <diagram id="Yv3aa697CyGM4WSTvQBK" name="PÃ¡gina-1">
        <mxGraphModel dx="2065" dy="708" grid="1" gridSize="10" guides="1" tooltips="1" connect="1" arrows="1" fold="1" page="1" pageScale="1" pageWidth="827" pageHeight="1169" math="0" shadow="0">
            <root>
                <mxCell id="0"/>
                <mxCell id="1" parent="0"/>
                <mxCell id="30" value="" style="rounded=0;whiteSpace=wrap;html=1;" vertex="1" parent="1">
                    <mxGeometry x="-270" y="300" width="750" height="280" as="geometry"/>
                </mxCell>
                <mxCell id="3" value="" style="sketch=0;pointerEvents=1;shadow=0;dashed=0;html=1;strokeColor=none;labelPosition=center;verticalLabelPosition=bottom;verticalAlign=top;outlineConnect=0;align=center;shape=mxgraph.office.security.lock_protected;fillColor=#DA4026;" vertex="1" parent="1">
                    <mxGeometry x="190" y="510" width="38" height="52" as="geometry"/>
                </mxCell>
                <mxCell id="16" style="edgeStyle=none;html=1;dashed=1;entryX=0.015;entryY=0.534;entryDx=0;entryDy=0;entryPerimeter=0;" edge="1" parent="1" source="4" target="5">
                    <mxGeometry relative="1" as="geometry">
                        <mxPoint x="510" y="428.64376996805106" as="targetPoint"/>
                    </mxGeometry>
                </mxCell>
                <mxCell id="4" value="" style="shape=image;verticalLabelPosition=bottom;labelBackgroundColor=default;verticalAlign=top;aspect=fixed;imageAspect=0;image=data:image/png,iVBORw0KGgoAAAANSUhEUgAAAoAAAAKACAYAAAAMzckjAAAAAXNSR0IArs4c6QAAAARnQU1BAACxjwv8YQUAAAAJcEhZcwAALiIAAC4iAari3ZIAAAAYdEVYdFNvZnR3YXJlAHBhaW50Lm5ldCA0LjEuNWRHWFIAAIIESURBVHhe7d0JfBxl+QfwlltuEMQDVFQ8ELnazKaAVsUDBQ+0sc07G8plFbQqIkLJzrxkNoUCIlb/HniD4FEFFBU5xNDMpBStgljkUChtszObtpRyl9J2/8+7fcCyeQvZZGZ2jt/38/l9qqXJvjP7vDPP7M4xDgAAAAAAAAAAAAAAAAAAAAAAAAAAAAAAAAAAAAAAAAAAAAAAAAAAAAAAAAAAAAAAAAAAAAAAAAAAAAAAAAAAAAAAAAAAAAAAAAAAAAAAAAAAAAAAAAAAAAAAAAAAAAAAAAAAAAAAAAAAAAAAAAAAAAAAAAAAAAAAAAAAAAAAAAAAAAAAAAAAAAAAAAAAAAAAAAAAAAAAAAAAAAAAAAAAAAAAAAAAAAAAAAAAAAAAAAAgLrXa+Aly0Y5t59/+8iMu9HaZLPu24f8CAAAAAFlQmH3bPkZ5oLPgDHzTcDy34LirKOsKZa9WKLsb6H8/Qf97MeUqo9f9Uluvd6hqEvnHAQAAACAN1Cd8hfLASdTg9VNjt2FTs9dEHG+Z0etdcETZeyP/SgAAAABIogmXLdq24LhfNBxvhbaxazL0e9YbZfdnk8oDr+OXAAAAAICkoMZvAjVt/2ps4kLKk+rr4XGythW/HAAAAAC0UpvjnUpN2jMNTVvoMRzvuiPO8nbhlwUAAACAVmhz+rupOdvY2KxFF/evR13g7sEvDwAAAABxMnrcz+ubtIjjeAOTZd8OPAwAAAAAiEOh7L5bXaShbdBiiOG4P+ahAAAAAEDUDLlwV3WrFl1jFmt6vU/ykAAAAAAgSoWy+3VtQxZzDMcdPPjiO3fiYQEAAABAFNQ9+f73JI8ExPG6eWgAAAAAEAWj3P8NbSPWohhldwgXhAAAAABEZNMj3txHdY1YK2OUB7p4iAAAAAAQpnbH/ZSuAWt5HPdGHiIAAAAAhImarauGNV9JiOOtPeJCPCEEAAAAIFSTZd821GytHNZ8JSTtve5HeKgAAAAAEIaCc9sBusYrKWlz3At5qAAAAAAQhsSe/8cxyt5NPFQAAAAACIPheFLXeCUoS3moAAAAABCGpN3/T5NHxtVq43m4AAAAADBWhuPO1TRdyYnjrUEDCAAAABAiarIuHdZ0JShG2cUngAAAAABhoibr/MamK2EJeKgAAAAAEIaC03+2pulKTIyydz8PFQAAAADCYJTdU3SNV3IysICHCgAAAABhMHoHjtU3XkmJey0PFQAAAADC0NbrHapvvBKTb/FQAQAAACAM7XLBngXH3ahpvBIRo+x+hYcKAAAAAGHomFfbWt1rT9d8JSKO+wkeKgAAAACEhZqsv2mbrwRk0uyBt/IwAQAAACAsBcf7qa75SkDWTpZ9O/AwAQAAACAsRtn7qqb5SkLu4yECAAAAQJgKPe6HNM1Xy2M47m94iAAAAAAQJkP27atrwFoex7V4iAAAAAAQtoLjrdA2YS1Mm9N/HA8PAAAAAMJmlN0/6pqw1sXdOEkOvIKHBwAAAABho4brPH0j1rIs5aEBAAAAQBQKvcm6EMQoD+ACEAAAAIAoHTq7f2+j7G7QNWOtCB4BBwAAABC98UbZu1/XjLUiRq/bzuMCAAAAgKgYZfcHumYs/rhPHjP3/u15WAAAAAAQFcNxT9A3ZDHH8ebzkAAAAAAgSkZ54f7ahizmGI5X5iEBAAAAQNSoAVva2JDFnfay+z4eDgAAAABEzSi7P9E1ZXHFcNynJsu+HXg4AAAAABA1ozzQpWvMYovj4vw/AAAAgDhNLM/fj5qwjdrmLIYYZc/moQAAAABAPGrjqRG7r7Exiyu4/x8AAABACxiOO1fXnEUdw/FWT5ixaFseBgAAAADExeiZf6yuQYs8jncNDwEAAAAA4jRZ9u1cKLvPaJu0CGOU3c/wEAAAAAAgbobj3axr0iKL425UF6DwywMAAABA3Kgp+/KwJi3KOO7d/NIAAAAA0AoF57a3aRu1iGKUva/xSwMAAADAWKyeM2M3/p/NkbWtDMd9SNesRRP33fzKTVl6jtiD/ycAAABAvgWy+ArfFhcElng0KBf3579uCjWA39Q3a+HGKHuPTLhsdLd/CSxzfmCLm1ZY5jv5rwAAAADy5eHyiftR0/cNaoyeDGyzplKxxBf4PzeFGrMP6Bq20OO48/glm7JMTtmTmr91zy0nNbz9Favzg1LKrfifAAAAAGTX0u6pb/Qt8/vUBD3fEG2WG/ifNeWYufdvT03g49qmLcQY5f4ufsmmUPPXoVlWlUUVWfw4GkEAAADIpEAWD6JG6GeBZT6raYQ2xTKfqsgZO/KPNKVQdn+ta9pCzDNHXeCO6jw+Wu7LtcvL8S3xr6ptdi6aMQNPFwEAAID0WyHNw31bXENNzgZd89OYqmUezz/aFPXpnKZpCy1G2b2VX6opNTl5G2oAV+mWtTG0nv5L//aUmuzYjn8cAAAAIB1q48aNr8jOo6ipuZ6ycfMm56XiW+ZP+Nc05dDZ/XsbZe9ZXfMWRgzHO4Nfqim8HrTLuqXQOlgWyOLngzOLO/GvAQAAAEgm1fhVpXjfpite9c3NCFKtzevYmn9lU6hJ69M1byFkg1GeP6orlH1LXKRZxhGFfnYosMRXV1548i786wAAAACSYV5Hx9aDJfOjVdtcqGtkms2QLB7Bv7op7WVvpqZ5CyN38ks0RV3cQU3cf3TL2FQs82HfFnLwnK6X868GAAAAaI2+Tee3TfVt8y5t4zLaWOaonrZxpHRfS83axobmLYS45/FLNMUvdb1Nu3yjjG+Zj/sl88IlsuOV/BIAAAAA8bh/5jHbB1Kc6FviPl2jMtbQ7/0Vv1TTqGH76/AGbmyZKAcO4l/flKpVfL9u+cYcy3yK1tE3/W7xOn4pAAAAgGgsO2PKy3zLPD2wxFJtYxJWLPNYfsmmFcruObombgy5b9y42nj+9U2pSbmNb5tV7TKGEGoC1wW2+MHyUucB/JIAAAAA4VAXIfi2OJOaDV/XiIQaSzy5RE7fgV+6aRMd7y3UBIb2NXCb417Iv3pUqpb5Q+1yhplN91a8qloS7+CXBQAAABidNeeIPXy701IXIQxrOiIKNZoL+eVHqTaeGrfFjY3caNPW603kXzwqFVt8WrecUcS3xEZq0q/1ZdeYxgwAAAA5VJ01bR/fMs+nhuJRXaMRaSzzSh7GqBUc19I1c83GcNyHxtVG9/XvcwJLvEe7nBHG33TvxRv8bvEuHgYAAACA3ipp7hvY4lJqHp7avKGIM1VLfJOH05QJctFeh0nv1SrtZfd9uoau6TjeD5/7nSqTZd82/HIjNlQqHqJbzrhCTbxbkeYHarVxY2pkAQAAIGOGyie8kZqFyyhrN28eWhHfNkd1zp3heH/XNnEhZpIzcBi/3IitKHUeoFvO2GOJv1VKnR9X92zkoQEAAEAe+dI8sGKJn1HTtV7bNLQgVdu0eHhNKZTde3VNW7hxj+KXG7FV557wGt1ytir0Xi+u2GanuocjDxEAAADywLfEhMAyr6Y/N+iahFbGt8WonrlrlN2KvmkLL23l/mP45UZsaf1CmuaehxxH6L3/TyDNk9U9HXmoAAAAkDXqOb0VSxxJO//rk9iQ/C/iFB5yU4yy97iuaQszRu+CDn65EatdNmPbZK9vc1nF6vx8RR63Iw8ZAAAA0k6d/F+V4n3UWN2q2fknLr40p/DQR0xdnBHmvf+2lDbHO5Vfsim+LZ7QLWuSQk2qumH1WaukuSsPGwAAANKmJuVWgdX5Ed8yb2/c2Sc5g93ifbwII9YuF+ypa9hCjzNwJr9kUyJ/ckqIoUZwNdWMvUaesicPHwAAAJKuJidvM2iLqYFl/lO3g096KtI8nBdlxIzywv21DVvIaS8P9PJLNoWW6x+Ny5n0+LZ4zLfEnCE5/ZW8GAAAAJA0NdmxXVASJwaWuE+3Q09L1L0IeZFGrOC4E3QNW9gxnIHv8Es2hZbr5sblTFGeqtrm3Irsei0vDgAAALTaskumvMy3i6fRjvqhhh136uJb5sbRXJVqlL0P6Bq20ON48/glm0LL9Uvd8qYqlvlMYIsfLC91HsCLBQAAAHFbedbJu/i2ONO3RKDdYacwtCyPjuaJFe1lz9Q2bKHH/Qu/ZFP8kviWbnnTGF/dM9Iyrwxk8SBePAAAAIjaGnVfOUuUKA/rdtBpjm+ZS3gxm2L0ul/SN2yhZzG/ZFOq9H7pljfNofrbQLnWl10TeTEBAAAgbIEsviKwi7PVp2S6HXIWoq5Y5sVtiuF4F2iatfDjeCv4JZtStcWndcubhah7HFJuqFjmO9W9JnmRAQAAYCyWS3PfwBaXBpb5pG4HnKVQc/s7XuymGGX3J9qGLew47rpj5l7f9DmKgVX8iG55sxfRX5HmB9AIAgAAjNLS7qlvDCzxvU0n3+t2ttlLhZaXF78pBcf7k7ZhCzuOu7FN9jV9WxT1NaluebMaeh//RvnYvI6OrXkVAAAAwIvxpXkgNX1X+Jb5rG7nmuX4tmnxamgKNWd3D2vWoorjTuCXHbGlctqrdcub9fiW+Fcgi9P65ORteFUAAADA5tQNkANb/DqwxAbdzjQXKZkn8+oYMSlrWxXK7qPaZi2CGM7Ax/mlR6wmp+9ADX1uPsltDDWC/xmk91bdq5JXCQAAQL4NyeIRtJO8nhqEjY07zrylahXfz6tlxI640NvFKHvrdc1aFDF63M/zS4+YOifO3/SsXe1y5yjL6CDnc8vOmPIyXjUAAAD5oe51V7XMo6kp+ItmJ5nPWOKR0TxtouDceoCuUYsq1GzO4ZduCjU+12iXO4ehg52qbxW/cr80d+XVAwAAkF21Wm18IMVxVdtcqNsx5jKWuVKd+7f67I7deDU1xSgPvFfXqEUWx/05v3RT6u+9ZR7rW+I27XrIYagRXE2xl8kpe/JqAgAAyA51EnxQMj8V2OJO3Y4wj6Edf4Waoa8EZxZ34tU0KoVy/0naRi2iGGXP45cetUAW36s+/cXX/pvi2+IxygVDsqPpK6wBAAASp3bZjG1pRz89sMR9uh1fHlOxzIeo8Tl9NM/81SmU3fN0jVpkcbxl/NJjVpVmOzU+f0Aj+Hyeovkyd7B76n68igAAANJDneReleKztGNfotnJ5TOWeU9gF0+qSRnqLUEMx/uptlGLLO4zk2VfqMswJMWhm64Az9+tf7SxzGdo7nx/SBbfxKsIAAAguYZkx8604/qyb4lAu2PLYWhd/DOQ5qeiuimwUfZu1Tdq0cUoL9yfXz5UK0vmW2idXU7N4LrG9ZjH0FxaT83glUFp2tt5FQEAACTH0nPEHlXb7Kad1UrdjiyH2ejbYuFgyfxo1I8Fo4ZseWODFnWo6fwAv3wkgu7i/vWnwNjmUw3rNZehg4iNNLeu9uW0ibyKAAAAWsefNWVvanRm0876Ud2OK4+hnXXfoGUeHcfzYNsvWfAy9Xg2XZMWZdp6vc/yECK1otd8lV8Sl1KNPaFb13kLnyt5Q0V2HsWrCAAAID7LpblvYJlfp8bvycadVB5DTZ96esn1Q5Y4kldRLCbNHnirrkGLPI53MQ8hFupAI7CLs2k9P9K47vMbcau6cbi6vQ6vJgAAgGg8/9Vcjh/rtXlU41exzKsHS12H8SqKldE7cKy2QYs87rU8hFg9cHbHbrTOSzjVYPOIv1al+VF1c3VeTQAAAOHwpXkgNX6X044XV2mq1Btg8TO1XngVtYTR435J36BFHMf9Fw+hJYKLizv5tjiTMqh9f3IY3zbvopqcGvZV5gAAkEPP3Z6Dv+LU7nhylrXq9hxBuRjJVbDNMhz329oGLeo47hMd8+ZFclVzM9S9FH278zSqT9xuiEPr4j/12w3NmLEtryYAAICXpi5eGJLFI3x1g14bN+itxzIf90vm3FXS3JdXUyIYjneztkGLOo67sb33z6/hYbTcImp2gpI4kd6rfw977/Kbh3xpnl6Rx+3IqwkAAECv/oguS/Sh8dsUWhePUiN8gboIgVdRgtTGFxzP1zZoMaS97L6PB5IYNSm3CmzRQe8ZHjnIoblcpTr+irpHJ68mAAAA3mmWxHG0s1jQuPPIbSxzpW+Ztrq/Ia+mxDHk9bsajrte15zFEaM88DkeSuKoCyICq/Mj9F6ipp+PWEXNoLVMTtmTVxMAAOTR85+WqCdVaHcYeYzw1aclwZnFnXg1JRY1f4foGrPY4njf4qEkljqdIbDEe6jx+Yv+/c5lHvNL4oJAFl/BqwkAAPJgsezYzpfFE4L6s2m1O4jcxa8/s1h8rian78CrKfGoCZs6rCmLMYbTfzMPJRXUea3UDP6RGnxc0KRimU/SuvjGYPfU/XgVAQBAFi2h5oY2+J+ljf9Dw3YGeY0l7qtfMZnCW2cUyu55usYstjjuMh5KqgxKcWjFFr9BI7gptB7WqSvbl3ZPfSOvIgAAyAJ18rdvizNoI1/R7QDyGHWRwGCpc1qto6PltzIZLaPX/aW2MYsphuOtnyAXpfYKU7/U9bbAMq+g4KbmKvV7fIqfBaVpb+dVBAAAabR6zozdfNvsVid/azf4OQw1wberiwOy8NQEo+zdpWvM4syknoE2Hk5qBXL66yulzssCS6zV1UzusumT0atXSPNwXkUwRhPm3LybUR54r1F2P0cHThfQ3P224bjfLTjuhe1lb2ZbT//Rhly4K/9zgGzqmFfbesLZN+82QfbtNWHOot0myz7ctT5k/uyT9qaNeC81f2uGbdxzGFoPG31L9FWsae/nVZR6B8p529HOY52uKYs1jnciDyn1lp17wmvoYOlSOkh4XFdHeYuaN/Tn9RXZeRSvImjCkdJ9LTV6X6U5ctuIrtavz2f3L22Od+oRZ3m78K8BSC91VNPuuJ+iCfB9KvI76QjoKZoUNBncjfS/N9DkWEv/7R76b1dRTpso3Tfwj0KTVsppr6Yd2CWBZT7VuDHPY2hHvrFiiT+pk/95FWXGRMd7y/M7jpbGvYiHlBnU8OxFtXM+DqA2i2XOr0rxPnVVNa8m2IK2Hm8SNXO/re/ftHPmpWM43uo2p7/74ItvTPzdCACGmTh74CAq4h/TDuJJXYFvOe5G+nNRoaf/dHwkPjJLpXgDbaS/i6+wNoV23uvpz6t9S0zgVZQ57b0Ljh8+d+IP7eT+yEPKnCVy+u5VS5TooGpFY43lNeoUisGS+VF1CyleTcAmqX1e2bteN0/GkKVGz8Cx/BIAydYm+15JRXs5ZdRHP8/H8dbQhHIOkX2786+HzVRk51up6fspNzzaDXa+oq5mFFeqk/t5FWVWoTxQ0s6ZmGM47kM8pMyqyBk7+rY4k+YZLqL6X+6i+Ta1Ni+9F1GFRcraVgXHtdRFUbo5MvbUPxT5ljrtg18SIHmoSKdSw/bwC4s3hDjuKvrz0+NqNXz9QAZL0w6jDfA83MaCY4mng5zdxoIar5ZeAfxcaL4/m5fzleq3UbKLp1Ez+KC2DvMYdRslKU6syY5cNidHXOjtYpTd3+nmRuhx3PntcgGe4gLJoi7kUE8F0BZtmHG8eQfKvtw+z3LQ6pxEO58/8MnZ+g1ynmKJJ2ldzFUn7/Mqyo1C2b1XO0dakIkZuBK4GTU5eZugJE6kA7B7tXWZx1hiqW+Zpy87Y8rLeDVlXttFt7+SDoD+oZsTUYUO/P5VmH3bPjwEgNY6+Mwbd6Kd0R90xRpR7pxYnp+bO9fXH2Uli++lRucW7YY3h6EdzRra+c7J66OsJsjrdqQ590zDvGhZ2h3vVB5arqh7SAYl81NUj3fo6jSfEb76unzlhSdn+lNho7xw/4Lj/lc3H6KOagLxSSC0XPslC15GBfnnxgKNOjQBBtscN9M3K60/p9cyj6VG5zb9hjZ/oXWxina2tjo5n1dTLrU7C96hmxetilH2vsFDyyV1T8lAiuMCzNX/xTIfrkpRWnqO2INXU2YcUfbeSM3fct1ciCuG411PlYdToqA1OubN2zq2cx90cbxVWfzqqU9O3saX5hR8qrBZNp18f5Z6ogmvplyjgx+hnROtiuPewkPLNfVp/aBlHu3b5l9wmsam0EHbo7QtO786a1omvrZUtylrdfP3XGj/ewoPCyBeNAm+qCvKWKOuEu5123lIqVa7bMa2fqnzBN/GeUWb5aHAFp/bOHfm9ryagKgnCWjnQ+sS4NOIF1Ln61L9/jHAhVrP5Smay5eukua+vIpSp713wWton/Ogpv5bE8dbha+CIXaTygOvowJ8YlhBtiaPtPV6E3loqaNOmvZt8zO4snDzqCa4eJJqink1wWbo4CvOc25Hko0T5KK9eHiwGXXFfsUWv/Fxq6bnou5VetlQ9wmpumJfNVpU54sb6r71cbxLeYgA8TDK3q+0xdiq0JFQ2s4JVF9nUtN3Bn+9qdtQ5i+W+c9Adk7DTWZfnDoHVjsPWhjaJnyAhwcam+7ZaV5BBzfrtLWfs9QbYlofvjQP5FWUWOpcd6pvT1f3rY/75CQ5kMuL4aAFJjm3HkaFN/abPIcco+xWCvK21/MwE+uR+tMFzHNp47dSt2HMY6q2uRBPFxiZtvNvf7mu/lseZ+BMHiK8iKC7uD/V/GWBunelZi7kLb76itxK7lN7OjrmbU1N1q+1NZ+QGE6/5OECRKvgeD/XFWEy4t6rdpA81ETxZ03ZmzZ4ZXVSdONGMI/hk+RvVc8X5VUEI9BWHniXvvZbnst5iDAC6rndtC34hm+LJxrnRh7D24PrK5Y4MknPGy447oWaWk9UDMddMg4HzxC1wuw/70NN1jpdESYlNBkGJsu+HXjILaduUhzY4hJ10+LGjV4e41u0obfEn4ZoQ8+rCJpg9Lqf19V9y+O4d/AQoQkV2blX1TLPp2ZwjW6+5DOifmDY6kawUB44SVvrSYzjZva555AQRtn9nLb4EhZqAn/Z6iOi+lc9lvkdanie0W/k8hU6wl/v2+KaFdI8nFcRjILhDHxfV/OtDs25pw6Ui/Gs0lFaPadjN5ojFk4N+V9o23l7YHV+pBWnhrT39B+ZpJutv2Qcr5uHDhCNgjNwo7b4Ehij7Dk87FhtOtlb/BQnez8XWg+WeWUaTvZOA6rtRY21npg4t72NhwmjFJxZ3IkOlM6k5gcXhz2X+sVh5qfUPVJ5NUXKkAv3pQOaqrbGExrD8a7j4QOE700zr99eXXGkK75kxt1YcPqn8fAjNyjFobTh/hXu+7UpviXW0vr4QVWKN/AqgjFSn7CpT9r09Z6AOF6RhwpjdP/MmdtTE3g6zaMluvmVy1jiPvUM5prsiOyTZnX6kFH2FmrrO8Gh7cJ/eBEAwldwbn2brvCSHffJSc7AYbwIkVA3fKVG5w/1c9t0G628xRJP0k7rm6t6T3gNryIIyUTHe4u+zhMSx7uYhwohWTRjxraq6Qks8x7tfMtnHvLt4mnqHqq8mkJDzd9l2tpOehxvDS4EgcgYvQPHagsv4TEc76FDZ/fvzYsRivqzPy3xHmp0btFsnPKaNdQEzwlkEfekiki7435KV+OJiTNwIw8VQlZ/NrgtptLB5p2auZfL0PY3UF+Xrzzr5F14NY0JNVEnaus6HXlG3bKGFwUgXO1ld7qm6NKSP3fMq415cqiNsC87P+zb5gLdBimfEatoIyyXyOm782qCiBQcd7amtpMTx/NpmHgkXISkagSlOI7m3W36+ZjLeGO9YrjdWfCORJ9e8RKhsa9FAwiRKfQOzNAVXmriuBfyoozapg2vdgOUu1DT59OfZ6knmvDqgYhRHSftEXDDEvan7bBlVcs82rdEX75PPxHraPnbeJWMyhEXervQ/uE+XT2nJo63alwNz+OGiBjl/i5t4aUljrvRcPo/zoszWuNpg/sL/YYoN3mINrqfWyKnJ+Zei3mhPmHT1naC0lbuP4aHCzGpWl2TaF7+MY+NoPr2gVfDaI03HPdKXS2nKUbZ+ycvD0D42nrmf1BXeGmK4XirJ0p3TFelqke5BZZYqtsYZTnU+N4XSPNkdVI6rwqIkXrep66mExen/2weMsRssDTtMDo4+w01gut1czh7EX8d661hqPk7WVvHKYtqYnmRAMJnlBfuryu8FGbRm+Zevz0v1qgE3dPem5fbvfi2eVdQ6pxW6+jA+SUt1NbTf7SmlpMXx/s5DxlaZKXsfGvFEj9TX4/q5nQWQgekT68qdY3pvpN8Z4sU3dpsyzHK7md4sQDCN1n2bUNF9rCu+FKYb/FijRptXC/RbZiyEt8yb69a4mPqimdeZGghqtkvN9RwMuN4d/OQocWCcnF/msuX0cHq043zO+1RV//yYo6Kut9fwXHv0NZwymKUvfXtvQtw2y2IltHr/lJXgKlL/XzAgTGdD6jOgaMN6926jVPKk4jncMILUd1ePqyOk5m17ZcsCP3+bDB6K+W0V9O26hvUND2hme9pjDfWx8PRgcqlmtpNZQzH6+PFAoiO0bugQ1eAaYw6H3CCdF/LizYqvuya6FviWc0GKlWhZdjg2+YNQ7LrKF40SBiq2cWNNZzURH3zdRgdf9aUvakJvICawUd024E0xLfMpwZL5lt4kUalrXfgg/UnRWlqN40xnP4pvGgA0al/bF72VjYWYHrj9nfMG9u9k9RVaLoNVRqiGr/AFtfQnxN4cSCBJsjrdqRaTc2D6dsc71QeOiTQ6rM7dqMDPiuwzJW67UIiY5kVav7OD2TxIF6MUZkg+/ZKw9X0TWQxngACsTEcT2qKMLWho6cx3UZAXRVbscUptJG6gTZSKfk0sH7vrKuC0rS382JAgrX1eofqajexccZ+ji1EL7i4uBMd/H2FtgUV/XYiEVkdSPGFUJ7/W6uNN8re1dqaTWc2tjn9x/HSAUTvqAvcPTJ0MYg6gfbZieX5R/DijcmgnPrmwBK/po1WIu/HRRv6Z6j5+0FVijHdCgfi1Za6p/C4/Tx0SIH7Zx6zPW0bTqcs0W03Whdx67Jzw3umeMqfZqXLtbxoAPExygs+oynG9MZx/6vuBs+LN2ZVaX40SV+vqJO/6Uj/m4PdU/fjIUKKUEP1dW3dJjTqAHHcODyVIG1qUm4T2MWTaFtxr247Elss89mKbZbDvPXUpPLA66g21zTWalpjOG61MPu2fXjxAGIk5VbUNM3XFWZq43g/5aULhTpypQ1pn3YDF1Po9R/zbfNCf/ZJeDxXitFcu0VbswnOkXPGdoEVtI66wjaQ5qd8y/ynbrsSZehgdXC5Jd7DQwmFekYuHUT9RVenaYz61qq97L6PFw8gfuqIKktfBdfT632SFy8U8+gItmJ1nktHtM/oNnaRxRKr1MUpay4Qe/BQIK3UeUuOt1pbrwlOCI9dhBZTt4JS32bQtmShdjsTcuh1rhk8p+vl/PKhaS97M3U1ms64Gwu9A1/gRQNoncJs9/3qaERfqGmMuzKKj9V9S0ygJvAe3UYv1FhmQM3fV9XJ3fzSkHITy/P309dqsjPWi6sgOVQjOGiZR1ODFsk3GvR7H1OPmYzi3qMF59YDqB4z8bSPehx3Ni8aQOtRQc6gZOeeSmX3j+pTF1680FTkjB1pQ/ctagajeITcQ4Esfr4mp+/ALwcZUXC8D+vqNOlRV1vyIkCGVCxxJG1vrg9rO0a/x13aPfWN/OtDtenpVZ6nq8/0xX2m0DtwOi8aQHJQ0/Q5w/HW6ws3lfk0L1ro6s8RVg2bZmPYbGjj+R91Cxp1Kxr+9ZAxtOE/R1OfiQ/teP/DiwAZNFiadljFMq8edSNoiafpZ78y1id6vJhCT386Hp/4EjEcd5C2A7hJPySX+jq44HgrdAWcvriPFuRtr+dFC93KC0/epVLqvGy0G0/fNu+qlIRQ5xjyr4SMoo3/lfoaTXyemSAX7ciLARnlS/PAwBY/o23ZOt22Shd1TqH6Of4VkWiT/W+mGkz9V7/qk/S2828P/bxIgNCpB1LTDutWXSGnLfXnK0Z8h/Xl6tNAy3xAt5HUxhJ/q1jiYxJ3fs8N2gHcpavPNIS2BYfwYkDGBd3F/X3L/P6me41qtl2b8hTlrKgPXNXTnaj2Uv3Vr7rAsr3smbQ4uJ0SpIe65N7ocb9SKLvpP/G2pz/yq62CM4s7URP4ddpwap8i4qubSlvm/IrV+UH+EciJA+W87dI8j3gHBjmyXJr7+iVzrm+JJ164HRN96kb5/M8i1Zbuq343UK7CPf4g1QrObQeoT9EaijtdcdwnDi97kZyg3MiXXROp0bvjBY2fbd5QkZ049yOn+Oa1+tpMQYyy5/CiQM74s6bsTU3fBYElllZt8elaLZ5PsgoX3PZ6td3W1WPi43h3G+WB9/KiAKSdevbiQBcVdnofvu2486WsxfKV66Y78ZtnBbb4jW+ZbfzXkFOTZg8cra3JtKTX+zkvCkDoJvbc2tZWnv8u/r/1BxQYTv/N2lpMdlaqexWqq5Z5SQCyY7JcvHOh173QcNy1muJPfhq+ClZXZBly4a78fwEiUegdmKGtx5TEcLzbeVEAwlOrjacD8y9SjT1Df65Sn/qpvy6U+09qrMEkxyi7T9G+5KIJcxbtVl8ugCyrfzxf9q5K2y1jjLL3uFGev399GWbfdnDB8Z6gZva/1BgW6gsGEAGaJxfo6jEtoTlS5UUBCMUkOfAK2h5f94Jac9w7Jl7gviFFT6Z6xnAGvm/IhfvyYgHkh7o6UN1wmSZCem4g7Xi3TJB9e9H/fuB/f++uo2WZpS584UUDCA3V2FX/q7U0xt1wzNzrt+fFARgTavw+QHUVDK+z+qdpj+n+Pkmh8T9L+5GfqmaVFwkgv9p6bp1kON5NdASXikaQJvAS3d/TpJ7/3CeEAGGhBqpfW29pinPrAbw4AKOi7idJB9pz07KfGB73GaPH/Un7+QvexIsEAM9RX6XWPxFM8SPlaANFR6D9J9Hi4L5NEAqaE/oDjhTF6PHew4sD0LSCs3ACHXj/W1dbSQ/tE56ifPvIOe5reXEAYEsmOrceRpP9V/WPyjUTKg2hsV93hPRezYsEMDpSbqU+OdDVWJpilPs7eYkARuxAuXi7guP2pHJf4Hir2ssDvep8RV4cABipidJ9Ax05fYd2gKm8Ca7heKs33QS3hk8DYVQOkX27p/kT8efjuF/kRQIYkTbpHVoo99+pradk54FC78AX8AhEgBCoZyDSDsQyym5FM9lSEPf3xhxc6QXNS/tNoJ+LgZtBwwhNln07FHrdHtrmr9PVUiJTP0hz++nPT6hH0PGiAEBYJly2aFvDcU+gCbdo2ARMfNxHqYH9TNTPFYZsaetVn4Lo6il1+RYvEsAWGb1uOzVRd2vqJ5GhA5un6c/LJzkDh/EiAEDUJpYHjqCG6hfUEKbsptJuvyH7D+TFAHhRE3v6J+vrKGVx3Ct4kQCGUTfUp2ZqLiUV94al/c5DNNZzj5rdvzcvAgDETT0sm3YuVsHxlukmajKjTuofOE991cGLAaBl9Mw/Vl9DKYvjXcOLBPACVBsfpW34cm3dJCj15tRxbzSc/o/H9VhQABgB9fxEtSGhI7M/0URNxRVjNM77C7Pd9/MiAAxjOANTdLWTthiO9ydeJIC6ieW/7ke1cU1jrSQtRtkdooP2i44oe2/koQNAUqkT52nS9lIzOKib0MmKu5HG+cv23gWv4eEDPE9dRa6vm7TF/QsvEuScOpebauLLBcd9YnidJCO0/9hA47ul4PRPU+PloQNAWqhPBducgeNoMv+OJnWi76VGTaB6hNGXD5TztuPhA6jHJaqLnrQ1k6o4bj8vEuRYW3n+u4yyd5e2RhIQ/tDg/MPxaR9Admw6V7D/bJrg9zRO+oTlbqM88F4eNuQcGkDIgraLbn9lwfGuUN94aOujpanfaP3a9h73I3ieO0Cm1carWw3QUehl6kbNwzcGSUj9a+HfFGTf63nQkFPZaQC9+bxIkCPqSR60nT2DtmmPauuihaG5tYQOTM7EkzoAckhdhWuc19+pTlBP4oUjNKanacN53sFn3rgTDxlypuAMTNPVRtpCc+xmXiTIiUKP+36j7Cb3+b2O6+NxnQA5R43gzrRBSO7NRx13eZvjCtxEOn8MZ+Dj2ppIWxz3D7xIkHHqall6z68dVgMJDB1kL8TtuADyqlYbbzjuL3Ubh8TF8W5TX1/zyCEH1Kco2lpIWdQc40WCjKrfzNnxLuBz6rR1kMRQE/gNXgQAyBOj7H5Ft1FIcDZQI/hznB+YD+298w1NDaQu6pxbXiTImI55ta2pwT+Z3ueg8X1Pemjc9xjl+fvzogBAnhR6vU/ShuDJxg1D0rPp/EDv/Alzbt6NFwUyqF32vanxvU9j1CdDvEiQIYWy++6C496he8+THmr+Btrlgj15UQAgjzY9gNxbodtIJD20Y1XjPg03K82moy5w91BXhTe+72kL1ekZvEiQAW2y/83U+P02vbXp/r79kgUv48UJ1bKSeEdgiW/UZAfu6QqQBu3nL3gTHRH+V7+xSEPce41e72PqnEZeJMgCdY5q2X1K/56nKlN5iSDFJsi+vei9vJS2N+sa3t/0xPF+2jEv3Pv93T/zmO2DkvmpimXOD2xzI6W23JpW4P8MAGO1es6M3Xxb/DmwRUcUR1fqZtHUBP5du9FISQzHc3GhSLYk+lYaI0xbjzeJFwdSSF0pS+/jl6kWH2l8b1MVx7s0zIPkoFzcn/ZJs33brKqmb/PQ35/J/wwAxqpqFd///OSyxBBNsAuWlzoP4P8ciiMu9HYpOO6ftRuPdOXXbef3v5kXC1KMmvrrNO9vqtJ2/u0v58WBFJGythW9f1Npm/hg43uarrgbaRl6eLHGpFYbN94viU9Q03eDb236tE8X2j9dwz8CAGMVWJ3nDZtklthAE/EvFdvsXHbGlFDO6Thm7v3bG2Xvav2GJD2hZXjWcNzvtMm+V/KiQQoZ5f6v6d7f1MRxV9Fi4NSElGkrD7yLth+3a9/TNMVRT1byzuLFGrOqZR7fuB/ShRpAn38EAMaKJtRNuon2XOhobHVFdr6V//mYqGdC0kbjx9oNStriuE+oo191ny5ePEiRQrn/JO37mpLQgYjHiwIpUHBue1uhrC7w0L+fKcuGtrI3kxdtzJaeI/agfc2yxn3PllKV4g38owAwWrXLZmzrW+IJ3STbPNQk/ll9RM8/NjZSbkWN0zc1G5WUxl1Z6On/wptmXr89LyGkwCRn4DD9+5mOGI77bV4USLDDe+e/quB431PfHOjex7TFKLsbCr0DM3jxxqxPTt6mapvX6fY7Wwrtj7r4xwFgtIZKxUN0E0yXimWewz8WCqN+d3v9RiaNoR3ykvayZ4Z9JRxEo/7M6k33fdS+n4mP453IiwIJVD/vueyeR+/TE9r3L4Wh+bKeDt5Da/5qUm7jW+ZPdPubl8h3+VcAwGj5dvE0zeTaUtZX7E6TfzQM46kJlLoNTZpDG8l/0kb/w7yMkGBG2fV072Hi47gbJ17g4muwBFL3DqX36DSqraFh71uKoz75o4Pck3kxxyw4s7iTb4umPvl7Ppb5T/41ADBaviWu1E6wLYeaQDO0cz+UNqe/u341mWajk+o4bn97T/+RvJiQQNSsO9r3LuGhHfEg7k2ZMOrUlh7vk9Qo3a97z9Idd0OYn/wFsviKqm0u1OxfRhTab61bedbJu/CvA4BmqXP6aDI91Di5RhZxaY02ePyrxox2xF/Vb3hSHnWlXNm7buLsgYN4USFBjB7vndr3LelxvJ/yIkACGLO9d9I8X6h9r9KfDW293md5Ucds0z3+zPv1+5WRpyLND/CvBIBmLZXTXk0TcYv3W3qpVCzz6rBuEaO015vADH4SSKGdw3qDdtp4QHqyHCjnbWek8Ca8Ru+CDl4EaKE2x307zevU309yi1EHsL3ul3hxx6wqpx2sbuOi2580HxHK/QcBcsm3ip/UT6yRhxpIb80FYg/+lWNmOO4s7YYoM3GfoWbwG5PkwCt4kaHFqAH8if69SmrcJw+++MadePjQAu29C15TcLwfUvO3Xv8eZSIbC87A2bzIYzYki0cElnhEtx8ZZW7mXw0AzaIjqEs0k6rpUBO4eLk09+VfO2Z01GlpNkaZCjW6j6kLYHAPwdZr65n/Qd17lNg43jweOsTsENm3O22fZtP8zcJzpF80tH0q82KPWaXb/IBvv/TtxpqJb4lH53V04I4LAKPhW+btuok1qlhi6QrZFdoj0tTGR7dRyl7clYXegS+8aS7uIdgqE2Ys2pZ26BX9+5PA9Lgf4qFDTNQ9PtU8peZvlfY9yVrUs31DUrXExwLLfEa73xhjhqQ4lF8GAEZqSHbsTEdQz+om1WhDv29osNR1GL/EmKX+UV1NxCh7S4zyQNdk2bcNLz7EiNa/rXtfEpgHcJ/J+KgnF9E6n0oN0QMN70OW86OwrjAPbDHVt8xQ9zMvjPgcvxQAjFTFMt+pn1Bji2+ba9S5HvwyY0MbIcNxv6PZQGU47r/anP7jeA1ATNRznQ3HW6t/TxKUnv4v85AhYm3l+e8qOO7ftO9DRkMHQlerppdXwZiop3XQPmF94z4izND+5ip+OQAYqcDuPFs3ocIIHfE9XrXMo/mlxkbdW6vsXd64ocp6aEN8a3vvAoPXAsSA1vm3de9FUkIN6oqDL74TF39ETN1gmw48f6N7D7Icqv+bDpSLt+PVMCaBXTzJt8QG3f4hzFCT+WBtXEiPKAXIi1HfgX2kscTTtAEI5Vwl9bWo4fRfo9toZTzqzvtXGrIvtAtsYMuMOQv3pZ1gYh8NRw3gWTxUiMAEuWhHev+dVHwSHHKMsvtX2s7uzKtiTOJq/lTU61RnTduHXxoAXoq6cooatFW6CRVy1lal+VF+2TE5Zu712xecgRt1G6/Mx3GfoB3TuerZtbw6ICLqCk/te9DqON6DeP8jM769x/0IHWwt0a77jIe2Lf+eIPv24nUxJnE2f/+LwD0xAUZqsGS+RT+RoohY55fEJ/ilx0R9/UU7wtt0G7E8hHZQ/6GNNe5+HyH1KQit66WN677VMXq8j/EQIURHSO/VNKeu1q3zPIS2KYMTpPtaXh1jos75i7/5q38NHNoVywCZp47SdBMpsljmM2E1ge1ywZ60wb5LtzHLUa4qzL4NX3tEpNDrfqjgJOiJNI6L+/6FTcqtjLJ7Cq3f1D0FJqzQ8j88UfaF9ohK2tZfP2zbH0PU7cx4CADwUgJb/EA3kaIMHRk+W7XM43kIY1I/as/p1zXPRW28C45X5FUCIaODjERcEKI+oVEHPTwsCEH9KR5l74bGdZ2n0PbjqULZPYpXSSiqttmt2/ZHHst8pian4/QIgJGgBvBe7USKPqF9klFwbjvAcLyqbuOWp9CG/HeH985/Fa8WCIk63y4BtwBZG/ZOOufGF5z+abTdWK1Z17kJHdw8297rhnIwvrnAEu/RbPNjiS/Fu3gYALAl/qwpe9NEjf08DRU6QvwiDyMU7b3zDzcc9zHdRi5nWWk4Ax/n1QIhUVdfU4PdoieEuBvptU/hocAY1c/tdLyf6td1ztLTfzqvllCtkuauvhXtff+2lIotZvEwAGBLAss8VjeB4ghtHNp4GKFp6+k/Oo+3bdDG8b6nbmXBqwaapD71U1+3bh5qxN5tlL3Htes72lzaOJYJcxbtxkOFJhRk/8H0Ht6jWcd5zPm8WiLh2+Ifum1/1KF9y+95CACwJTRBZ+smUOSxxJOLZszYlocRqnbH/RRt2DY0bOhyGvdfk+TAW3nVQBP4Wa8bh0W7nqPO8HEYZfcuHiqMkDpP1nDU+W66dZyzON4VYT3ibUuqtjlXu/2POL4lhmpSbsXDAACdimXO102g6CNu5SFEor7zLnvJuXKzhVFfixvOwBReNTBC1GR9Ubc+kxJ19TsPFV7CZNm3DTU8l+rWYz7j/nnCZYsiOQDfHG3np+q3/9FnmSy+iYcBAI1qsmM79UmcbvJEHd8yI/3qQaEd5Bz9xi+PqX9qNFvd7oJXD7wENIDZoL4qp/cynzeN10R9cmzIhbvy6onUYPfU/XTb/1gizZN5GADQSJ2Dp504ccQyj+VhREc9N9hxr9BtBHOca/D82JFBA5h+6qbGaj3p1l9Os3xief5+vHoiV6uNGx9YYrl2HxBxfEv8iIcBAI0qtvlF3cSJOuoegKvndMRyAvuBct52tAO4SbMhzHHcv06SA6/gVQRbgAYw3doc9+3qvom6dZfPuI/S+jiEV09sfMv8pW4/EEP+zUMAgEbUiP1KM2liiIh1YqqvO2gD+I/hG8T8hnYE/5ko3TfwKgINNIDp1dbrTaT3b5VuveUyjruurdx/DK+eWNE2f+bwfUD0ocZz4xp5Cm6aDtBIfTRPDWCgmzhRhybmD3kYsVE3R6am5yHtxjGnUZ+OTHS8t/AqggZoANOpvXeBoT7t0q2zXGbTVeMzePXEjvYzE3T7gVgixXE8DAB4TiCnvt63zY3aSRNxBkutOTnXkP0H5v2u/8PieP6k2bhNjA4awPSh92wCrZvcPs9XF6PszuHV0xIb587cnrb7TzXuB+JINYaLDQFSp2KbnboJE0eoAWzZp05t5YF34UbRDXFc/4iy90ZeRcDCagCpUXua/ryqvexOp9q7nv7/+sZ/M5qgAXyhgnPb2+iABl/7bhaqkV9Ffa+/kfBt8y+6fUEMifR2YwCp5NviW5rJEn0sc2Vt3LiWbpBowziVghtFbx7He/AI6b2aVxGQMTeAtE4Nx5111Oz+vflX1qlzLwtl9yJqBldof26EQQP4P6p2cYpHQxxvQD3NhldRS1Us0avdH0Qc2s89FtUDBwBSy7fMO3QTJurQkeB1PISWop3vWdqNZo5DDcU/1DNSeRXl3mgaQPXpHjUif2pzBo4bJ2sves/FY+Zevz392xPoZxbW79Oo+X0vFjSAm6jbGtF6/LtuHeU1tD7+O0Eu2otXUcv5lviQbn8QR9Q5iDwMAFh51sm70KR4VjdZok7FMs/hYbRYbTxtJL+t23jmOdRUXNfRMW9rXkm51lwD6K4sON7Fo72yul3OP5x+/of0mk/of//woAEkNZrHZfcXuvWT19D6eHiS7EvUeb3L5JQ9aZ+zQbdPiDpVy/wSDwMAAll8r26ixJGK7DyKh9FyHfPmbW043nW6jWieYzj9ZV5FufaSDWD9ebzewrayO/1NM6/fnn9sTNRTK4xe90vUUN6rfc3NggZQvUcDoZynmaGsLZRvezevnkRRt//S7RNiyDweAgD4tmlpJkkceUpdEcbDSAT19RHtyP+m2ZDmNkbZ3dCqe4YlyRYbQPUpXU//j9p75x/O/zR8Um7V1jNwdMHxrqHXW6cbR94bwIKzcMKW1k0uU7/di3cir57E8S3z+5p9QgwRgzwEAAgs8Sf9RIk2vi0W8hASpTD7tn0Mx12i3ajmNLQ+hiZdnO+nhQxvAN17Dcc74xDZtzv/k1i09y54jfpUlhrzyubjyXMD2H7GgpfR8v978/WR91B99PLqSaQh25yu2y/EEb9bvI6HAZBf6ooodWWUbpJEnYplfp2HkTi4R6Au7rW8enKp3gDWP2Fyr500e+Bo9akc/6eWmHDZom3bHPdT1Jzfqj7tyXMDSOvhQn3N5jNUC79Iwu1eXswK2fVm3X4hjlRKQvAwAPIrkMWDdBMkjvglcwoPI5HaZy+YTBtT3CNwsxhOf6LfsyhNlAMHqU/f+P8mijpgoSbwTP6/udLuLHgHNTzP6uo1n3EXJOV2Ly9mXkfH1oElHtbtG6KOb5n/x8MAyK+qLM7QTZA48tC55qt4GInVXvZM9emKfkObyyw/ELeGgQSh+XmLpk7zmgca7zOZZL5t/la3b4gh/+AhAOQXHYFdrpkckce3xIM8hMQr9LglzYY2tzHKnsOrBqClCo73YV2N5jE0L1erp5/wqkkF2v98Vbd/iCFrK3LGjjwMgPxRT+CgifDfhokRTyzzSh5GCtTG1+/Jptno5jGG4z6Wpk8ZIKOk3IrqcVFjfeYz7jNtPf1H85pJjSFLHKndP8SQQctM3foCCE111rR9fNvcqJscUce3zNN5GKmgTrg3HO8m/cY3h3HcC3nVwCgE3cX9A1uc4s8+CY30KBV63PdrazNvcdyN7Y53Kq+WVKnI43akebBWt4+IOrQPsnkYAPlTlcWP6yZGLJHFg3gYqWHIhbtSE/hP7UY4f3lkslyMcwGbUJvXsbV6BJZviz/Qgdf6TXOBdn6WecWg1Tmp1c/EThuj7P5RU5e5i1H25vAqSSV1O7Bh+4d4cgMPASB/aGd0kWZSxJHVfXLyNjyMVJlYnr+f4biDug1xDnMarxZ4Ef6sk/ammj9LnffaMA9eEPU87krJPHVIdqCxfglHznFfS/W3oaEe85hfJ/12Ly+FDoC+ppsPUYfm25pai2/lBNAyvm0u0E2M6CNu4iGkEjWAh6jz4DQb43zFcf/GqwQ0qtJsp3q/nBq/pr7ionm5hubIpRXZmajntyYJzb9Z2prMUWgd3N5+yYKX8SpJLb8kPqGbB3GkWhLv4GEA5Ie6AoqOvJ7RTYrIY5nn8TBSq73cf0zu7z3muBuPKHtv5FUCJLi4uFNFndtni39oa7+JqPNz6ff8uWqZx9cum7EtvwQQqr87h9VjnuJ4D06S2Xgyz0o57dWtOxddfJaHAZAfQ7J4hG5CxJFKt/kBHkaqtTneqdqNc45i9PR/lVfH/6T8K6nRGCyZb/FL4lL1tZKu5sca+r0V2klaS2lnyS+ZG4c2XHFuyL59qfby/PXvI22O+3ZeHZlANf5QY83HEsu8gocAkB905PMV7YSIOpb57MoLT96Fh5F6Rq9X1myg85Q/86qoUw+fp7/7fdzPx20F9alcxTKPp+bs5rg+waB5+yzlV77VNTnr5y8dKOdtV3AGvqnOuT28d/7zN42v35xdX4t5yNr6YwgzRjViunqPPJb4Dw8BID9oJ3KtdkJEHnEnDyEb1L3IHPcKzYY6H3HcJ9SOWq2Ktl5vIu2s64/OM8re/Vn7lOI5K841X1W1RMm3xaC+xuOK+Dflcw+c3bEbDy0z1Kd+htPf97868247Zu7126v/RjX27ef/Pk9x3I1tZXd6fQVljPoqVl/jkWd9RXbuxcMAyL5abdx4mnBDmskQfSzzOzyMzJgwo36PwD9pN9p5yOz+g9X5SPS/l27+99QEPm44A5l4drD6tG2FFO/yLfOX1HSt09Z2i0JjerxSMr9blScczMNNNTqQOJRqZ8nmtcT5Ef3n8epZt5r/lvVspOU+Z9Mayp7lctrButqOI+ocWx4GQPYtk8U36SZCHPFLZpGHkSnq+bhG2V2o2XBnPrTcp1AD/L9PazaP426k/3ZBR8e8rXlVpcoqae5KDdbpgSXu1tVzklK/aMQSAxXb7Lx/5jH1T8vSpt1xP0V18+SwOuK0l72ZBcdbo/tv2Y77dV5FmVSTk7eh2n1UV9dRp2KZX+NhAGSfXyqeoJsIUYd2pBsrsuu1PIzMaZcL9qRm6C79Bjy7oWUe0v19Q25oO//ml/OqSrz6JxKW+I76dE1Xy0lP/RN+S/QGcurreZESrWNebWuqkfOp0dnYUDcvCB1MrNf9fZZD8+snebiwKrDFjbpajjp04LSAhwCQfbRj+J5uIkQd2plW1NfPPIxMapN9r6SN9n2NG3GE4ngPGo57CK+qxFGfmgWlzmm0Q/Diuqgj6tCcW+/b4rqK1fnBpF40oi4Yovr4w7B6QVR+ldZPz5tFtWrrajiGrF0ip+/AwwDItk0nj2snQsQRv+EhZJq6TQUdtf9HszFHyu6TRnmgk1dVIvjd4nUVS/RS01fV121GYon/0E72y4+e35WYT2InzR54K9XEvfpayX2uVc8g51WVeYNSvE9btzGE5v+RPAyA7Bo8p+vlviU26CZB1FE7Hx5G5vEj4/6r2agjZXej0TtwyWTZ17LHAapPwyrS/ADNhd+pT8l09ZrZWOJpWu4f03K38epoCaNn/rFUC4/qayT3ubaV86MVlsjpu7dq30Q5i4cBkF1+d/EYTfHHkuXSbOdh5IIxZ+G++HRDH6PsrS84XjevqtioT7/UgQjV4/2N9ZnHVCzxt0CKE4MzizvxKorFplMl3L+qgwFdfeQ5NDeufu7WSnkT2OJOXZ1GHd82f8tDAMguOvp3dBMg8ljmk3l8nFWbvP2VhuP+S7ehz2OMsvsI7eC+0Sb738yrKBa+7JqoPvVSn35p6xNZTXP0a8tLnQfwKovD+Ek9A21UF5dTTTzdWCt5DM2Pn3XMy8c5fzp0cPZ/mtqMIcKXGb+xOoC64eYt+gkQbeh1XR5C7qirgwv5vHcZR90Kxv17u+OdOkEu2pFXS+TUp1pBSZxIG/e/6moS0WTTV3A3VKX50UUz4jtgazv/9pcbjndWrs+dddxvqhvL8yrJpWpJiGE1GU82Bt3F/XkYANlTk3IbOsJqyW0tqpY5h4eRSwefeeNOtHP7o3bDn9HUP9Vx3CvaexcYtApiu/pb3edS3duL6m51Yx0iIw8dtC2nRvDc6qxp+/CqjZ6sbdVW7j+G6uf39dMENHWVvdABUtk7l9dArqnbFulqMY74tpnJp6wA1FWkebiu8OPIYMn8KA8jt9RJ3Ua5/zL9TiBbMRzvugmyL7ZHLNVmzNi2SjVGG/Eb6CAnE7dwSUws85nAEj+npvqdcd5KpiD7Xk+19I/G2spS1EESbRO6eJFzT9WX+jpWW4fR5zIeBkD2BFbn5zVFH30s89llcsqePIy8G2+U3a9QNuh2CJmJ407g5Y2U+nSqYnWeS3W2bFjdIaGHGuzFvt152sqzTt6F34JIFRyvqK2vbGSl0eO9kxcVGB1s/FpXe1FH1TYPASB7fDqK1xV+1KHXvY+HAKzN6T+OmqRMPtLKcNzbeTEjoT4lGJJdR6l69tWnU5qaQyKOJR5VJ+xXS+Id/LZEYrLs24FqamVjjaU+jnuHUZ6Pc840qpb5JW3NRRzanmx4RE7fnYcBkB3qCRxU5IONRR9HaEfxEx4GbEZdCUs7g8XDdg5pj+OdyIsYqiHZsTNtpD9L+ZeuzpD4o75up/fDDWwxNaqr/I2yO0dbZ2mN413RfsmCl/HiQYNAdhq6WosjVMsf4mEAZMfD5an7+S16vFVVmqfyMKDBwRffuRPtFC6nZOV+aCvVpza8eKEIZPEg9WkTbZxb8rB4ZGSh9yeo2GZ5dcjP+554gfuGjFwQ8gTl07xYsAXqsWxUS2t1NRZDyjwMgOwISuanNMUeS/xS19t4GLAFfK5T6p+KQDvqr/Eijcli2bFdIFXNiv5WHbggows16+vpPfttxSq+P6xnf2fgCvp/FJxbsR0cocAy5+tqK+pQ43kLDwEgO6iwv6Er+OgjVtVivAVImqlzggpl9y+anUcqYjje+iPK3ht5cUalIrteG9RvVt6yKwGRMGOZ9/m2OEM9gpLf4lGhA6QP62ou+XGfMZz+cl6f7DFaVcs8X1tP0WdNn5ycq0fwQQ7UH/mkL/hoY4k/8hBgJKTcinYcp9GOI32fBjruDbwUTVF34K/WHwQvrvXtnD2XNy/Z9PzhH1FGdXV4R8e8rakJfFBbdwkNHRDdbjjuIbwI0IRAiuO0dRRDBqU4lIcBkH4VOWNH2vCu0xV71FE3kuVhQBOOkN6rjbL7C9qRpOZ2Me297kd4+COyRp6yJ9XHl6g5uE9XO0g241vm7dToT1fbJS6FEVFPCtHVXdJC83ao4AzMUDe15qFDk/xZU/amfZZ6Ko22hiLOTB4GQPr5VtdkTZHHEt/qnMzDgFEolN2j1CcJuh1NkmI47kPNPMO0Nq9ja2oEHtDVDJKTWGZT3w4cNbt/b6q1tY21l5y4T9JcvcCQC3flIcMoqdOGqEbuH1YzMYQOTn7BwwBIP75RrrbYI40lnl52yRTc7mCsarXxBcf9BO1k7hy+00lGmn2U1ZAsHqOtGSQ3UReLNPv8VZoHV+jqr5Whg5/HKJe0yb5X8jAhBOqUAV3dRB5LLOUhAKSfb4s/aAs96ljibzwECAM1gvUbSJe9WwtlNzG3jVGPs1KfzvAoR4SOsq/T1gySq9BO/iIuiRExet12XQ22ItT0LSk4/WcfIvtw8+AIBNI8WVczUYe2TRuXS3NfHgZAetWk3IYKeo2u0KMOve5cHgaErN1Z8I6C436zfr6RZucUaxzv5zysEQnk9Ne38PweJFlZcf/MmdtzaYwI1XzLng9sON5q+vPy9vKC90mc4xcpdfswTb3EkkFbTOVhAKTXKqd1k0jdx42HARGZLPu2aesd+CA1Yd9T5+G14JPBje09/UfycEakhbd4QBIYXxZP4NIYEWoAT9HUYTRxvLX0en+lPy9uL7vvU/ONhwERq3Wo84TFI7qaiTr48AIyIbCLp+gKPI4sO3fKa3gYEBOjvHB/ozzQRTuvS42yd1PBcR9U5yjRn42N4Qb6u3UNf9d0DMf7J22qR3yfx1r9Lv/mSl29IDmNJW7j8hgRasJ2poZszM/Rptq9Xn16TfPjN5wr6e+/1eb0d7c5rmiT3qFhP9UGmkPbit9raybq4PQlyAI6gvqxtsCjz0M8BGgxdQ+1Y+bev/0E2beXOlG97fzbX37UBe4eqnlr3Ck2m7Ye77P8MiNSlUJoagXJcWgnv3GwNO0wLpERodq7tLEWR5E7J8hFTd2KBuIVWOY5upqJPJZ4Wh2s8jAA0imwxb3aAo84tFHHpfRJpa4qLntXNewMR5NHDr74xp34t44IHZAM6OoFyXdoe/FDLpERmeh4b9F8qt18HG+emg/8ayFhfCnepauXWNJtvpuHAZA+Fdm5l7qiSVvcEaeCm2kmluF4Z2h3hs3G8f6Pf+WIqDvs62oFQejA4InVczp241IZEarjm7V12Wwcr5t/JSTMkOzYObDMZ3Q1E3Vo34m6gPQKrOJHdIUdR4ZKRTwCKYGMHu89Rtl7VrsjbC4bjNn9B/KvHZHAEt/T1QqCqFQs80tcKiPS3user6nLpkPzYb26vRL/WkgYqo1FjbUSS5q8UTlAotBR9RxtYUccet1H1e1neBiQHOMLzsCNup1gszEc91b+nSOyRE7f3bfFE7p6QZB6LPMe2m6M+NYqEy5btC3VYUVXn03FcZe3SW8i/1pIGL8kLtXWS9SxzIebqUeARKECdrWFHXGoAbyFhwAJ037GgpfRTu/yYTvBJtPmuE3d4iewip/X1QqCvCCy+F4umRGh5s3S1edIY5Q9rzD7tn3410ECDUlzirZWYoi6FyEPAyA91CPYAkus1RV11KnYZpmHAck0vtDT/4XR3gZGferSzP3QJB1FB7b4t65WEGTz+La4hstmRA7vnf+qQnnUdfx99Ski/ypIqFXS3JdqoyXnsleleSoPAyA9AqtY0BV0HPEt8SEeBiTYpPLAu2gnWNXtHF8sRtlz+FeMyHJLvEdXJwjSGGoA1y0794Sm7h9K9fgrXZ1uOe4z9Odp/OOQAlQbyxprJY74lvkTHgJAelRtcYauoKMOTZj1dMS2Kw8DEq69d8FraAe6cPhOcktx16mf4R8fkcASv9bVCoJoY4mmDjDaZy+YrK/V4VGPTmwrz38X/yikBO1XrtLWSuQR9/IQANKjYovf6As62viW+BcPAVJC3SS64Hg/1O0wG2M4/U19Rac+zaGN6DpdrSCILrSzryyaMWPkX83K2lbU2P1bV68NWTSx/Nf9+KcgRWgb8jldrUQd9YHGmgvEHjwMgHSgRszXFXQMuYyHACmjnurBX4/pdp71tPX0H83/fERoA2pragRBXiKig0toRKgB/JyuXp+P4/68/ZIFL+N/Dikz1MJ7iFal+VEeBkDyBd3F/XWFHEd825zOw4AUajvfm0Q7U+2tNQzHvaeZpybULpuxrfo0R1cnCPJioQPYPi6jETHkwl2Nsve4pmbXG453VjPPq4bkWSw7tqNtyeO6Wok69LpzeBgAyVe1i6aukKMOTZSNqvnkYUBKqSsracc5MGxn2uM2daNeX4pP6OoEQV4qalvS7C04Co773RfUq+Otbusd+CD/Z0i5wBZ/1tVK1KGDEZeHAJB8NFG+rSvkqEMTJVC3/OBhQIodKOdtZzgD33l+h+q4Txwi+3bn/zwivm3eoqsTBBlJqAls6lGDdNBySKH8/POB7y44tx7A/wkygPZrPbo6iTyW+eT9M4/ZnocBkGzqQgxtIUcecS0PATLCKLunGGXvaXWRCP/ViFRk51sDS2zQ1wmCjCCWeCQ4s7gTl9SI0IHKADWBvz3iQm8X/ivIiIrV+UFtncQR2WnwMACSa+k5Yg86cl6vLeLocxYPAzKkXc43JsqBg/j/jggdhHxDUx8I0lSojj7LJTUiE6X7hnH4FiKT1L6tVQeVtE/9Mg8DILkqVvH9ugKOI0OyeAQPA3JsSHbsTPWwprE+EKTZ+La4k8sKoIXfbpm/4SEAJBdtMKWmeOPIU+pKLR4G5FilZJ6qqQ8EGVUqljiSSwtyjurhu431EUdovzpYq43DleSQbIEtbtQVcOSxxAAPAXJMbSSpHv4xrD4QZPS5issLco4asS5NfUQe3zY3VmTXa3kYAMlTm9exNTVij+oKOIZczMOAHKtKs11TGwgy+ljiaX/WlL25xCDHhrqnvlFbIzHEL5lFHgZA8iwvFQ/RFW4cqVjm8TwMyDGqgyt09YEgY4uYxSUGOTavo/4hxwp9jUQcy/wODwMgeXy78zRt4UYc3zbX4wgd/Fkn7e1b5jO6GkGQsYTqakkNV/cCoXq4urE+4gkuSIIEowL9mb5wI44l/sNDgByjWjhrWG0gSFixih/hUoMc821xprY+Ig4dhDx7vzR35WEAJIc6+d63zWW6wo0hl/MwIKfU+ae0YX5QUxsIElLEn7jcIMcGrc5J+vqIPuo2azwMgORYdu4Jr6EjlI26oo061Hh+hocBOeWXOj+sqw0ECSu0fVtfleINXHKQU8vOmPKylp1qYpnn8TAAksO3ip/UFmwcKZ3wdh4G5JRviz9oawPZQsQq+vPawBJPDv9vyIsEdxsA2t6YnqY2Yoi4iYcAkBxUmJfoCzbiWObDtVoNN8jMMfWpjI/n/r5k1Cf0lNuDkjhxiZy+g1p3j8jpu1PzfAblXt3PIA2xzJXPrTvIL2oAL9TWR/RZjYuRIHFoB3ybplgjD03EG3gIkFNVW1ygqw2EY4knaX7+uCLNw3mVDaN2KlXLPJr+7bXUJD6r/T1IPbTNmc6rDXKqaomP6WojjlRL4h08DIDWW3bJlJfRkXFLzomgjbHFw4AcqsnpO6hPZXS1gYh7qZn78poLxB68ukZksHvqfvTzZVqvleG/E6na5kJeVZBT1VnT9mnVtw40p0/nYQC0XsUy36kr1DiyvHvae3kYkEPq7vi6ushtLPNZOij6bVWK9431q6LajBnbUhM5lX7nfO1r5TTqq/QVpa7DeDVBDtXGqbtetOauA9R4XsnDAGi9wO48W1eoUYc2xM8EFxd34mFADrXq1IOkhXZGfmCJ3ofLU/fjVROqQBYPqljiO9RcrtG9ft5StcWPeNVATtFc+ImuNqKOajx5CACtRwX5O12hRh163X/wECCH1KcwurrIS2gHtJHmQL/6lG7RjBnb8mqJ1GLZsbNvF9UTf+5qHE+uYoknl57T3FfrkC10EPBpbW1EHPXV85Cc/koeBkDr9MnJ2wSW+bCuUKOOb5n/x8OAHKL3//u6ush66p/CWeI7y1p8MvgKy3wnjeUXNJandePMeqj+vsyrAnJomSwepKuLOKJuu8bDAGidwZL5Fl2BxpGqbXbyMCBn1O1L1KcwurrIaujI/1/UdJw+JDt25tWQCIEsvoLmYje9H0t1485uxL24JUd+qacPUR205JSIimV+nYcB0DqBFCfqCjSOrJLmvjwMyBlqNr6gq4nMxRJPU3P1C79bvIsXPbHUDlHdHoMa1RupUV2vXZ6MZbBbvI8XH3KoYpvX6+oi6vi2wJXo0Hq0sf+BrkBjyDIeAuSM+tRFffqiqYlMRZ3jV7HEkbzYqVJp0flRcYfeo9/yIkMO1T/51tRFDHnq/pnHbM/DAGiNwBJ3a4ozjszjIUDOBLL4Xk09ZDH/ULeb4MVOFXV1Ph0cPqJZpkzFt8xn1X0TebEhZ2j/9x5dXcSRIdl5FA8DIH5r5Cl7qk8pdMUZdejI64s8DMiZimVerauJrIUaqBm8yKlUsTq/rluurKViiV5eZMiZVdLcNbDFOl1dRJ/i2TwMgPj5svPD+sKMPite5LFWkF3Lpblv6za4sWZ1Rc7YkRc7ldQFYr7VmgPEOEONul+7LJ7b8EDyBJZ5h64uoo5vi+t4CADx80titq4wow7tVB5fLDu242FAjtDG9jxdTWQtVducy4ucarSTukm3fNmLmMqLDDlDBwDf1NdE1BErJK5Ch1ahIrx1eFHGEXErDwFyRJ30TBvbQF8T2Qkt44aK7HwrL3aqVUqdH9ctY9aibsjNiww5o5p/XU1EHXX61ZAsvomHARCfJeoh/Lb5VGNRxhHfMs/nYUCODElziq4espaqbd7Ci5x66gkl1NAO6pYzc5HFg3ixIUf8bvE6bT3EkuJJPAyA+Piya6K+IGOIZR7Lw4AcoUaiT1sPGctQxu7yT+9bSbecmYtlfocXGXLGt1t1kCN+wEMAiE8gW3MjXnWD2SVy+u48DMgJX5oHtuqK81hjieXqhsq82Jnw0Lnmq2hHlfkLd6jRfTRpT2mBeNB+6Ze6mog8lribhwAQnyoKHmJUbdmJ1jHHMs/jRc6Ulu0gYw4dqJzOiww5Qu/9zMZaiCWW+ezqszt242EAxKNVH3nTjuSHPATIiZUXnrwL1dtjunrIVCzzmRXnmq/ixc4UX4p3aZc5Y6EDlX/xIkOO+JaYoKuHWIJToiBOrTzpdbBknszDgJzwbfMzulrIWiq2+A0vcubUH9/XuqcGxRrf6pzMiw05sXHuzO2pvp/U1UP0Kc7mYQBEL5Cd0/SFGG1w2Xv+qEeh0dH1P3X1kLlY4j282JnkW+bp2uXOWNTpMbzIkCO+3ZqL1NTr8hAAote687HECvVJAg8DcmDIEkfqayFjscTdaX3u70ipx2ZRE/i4dvkzFDpgWVudNW0fXmzICfVIQF09RB01p/AkGogNHXHcqSvEqEOvi0ff5Ay971c11kEWQzuPL/AiZxo1ut/RLX/W4tumxYsMOUGN/4d0tRBHKng0KsThgbM7dqNCf1ZXhFGnYpnn8DAgB4bk9FdSreXhub+PqU/HeLEzbbmcdrCfg+cDU5bV5ORteLEhB9bIU/ZsVW1XbfOLPAyA6ASy+F5dAcYRagDfycOAHAhsMUtXBxnMZbzIueDbpqdZB5kLba+O50WGnGjVhU6+LX7FQwCIjm8XT6OjnCVxJ7DM+9SzYHkYkHHqfDjasN2qq4WspSqnHcyLnQu+Vfykbj1kLrb4ES8y5IRviYu0tRBx6GAZz6IGAAAAAAAAAAAAAAAAAAAAAAAAAAAAAAAAAAAAAAAAAAAAAAAAAAAAAAAAAAAAAAAAAAAAAAAAAAAAAAAAAAAAAAAAAAAAAAAAAAAAAAAAAAAAAAAAAAAAAAAAAAAAAAAAAAAAAAAAAIC0qtXGF5xb32b0uB2F3oHTKV9AEARBECTBKXunFRz3E7T/PoD35gAjU5h92z7t5YFeKqDlVEg1BEEQBEFSmQcKPW6pXS7Yk3fxADq18XT0cLpR9h7XFBGCIAiCICmMUXYfNsr9XbyzB/ifCZct2rbgeFfoCgdBEARBkPTHcNxvjpO1rXjXD7lXq42no4Of6YoFQRAEQZDsxCh7c3nvD3mnvvbVFQmCIAiCIFmLu5H+nMotAOSVuuAD5/whCIIgSH5iOG51suzbmVsByKOC487WFQeCIAiCIBmO457JrQDkTUfHvK3pKGBQWxgIgiAIgmQ2Rtm9i9sByJuCc9vbdEWBIAiCIEi2Y5S99YfO7t+bWwLIE6N3QYeuKBAEQRAEyX7aevqP5pYA8sQou5/TFQSCIAiCIDmIMzCNWwLIk4LjflFbEAiCIAiCZD5tjiu4JYA8QQOIIAiCIPkNGsCcQgOIIAiCIPkNGsCcQgOIIAiCIPkNGsCcQgOIIAiCIPkNGsCcQgOIIAiCIPkNGsCcQgOIIAiCIPkNGsCcQgOIIAiCIPkNGsCcQgOIIAiCIPkNGsCcQgOIIAiCIPkNGsCcQgOIIAiCIPkNGsCcirIBNMruDwqOdyKCIPHFcNyTaf6tbZyPYYTm9JDuNREEiThl76rG+RhW0ADmVJQNYFvZnc4vAwAxmSz7tqEdxhO6OTnmOO5/+WUAIEaR7qvRAOYTGkCAbEEDCJA9aAAhdGgAAbIFDSBA9qABhNChAQTIFjSAANmDBhBChwYQIFvQAAJkDxpACB0aQIBsQQMIkD1oACF0aAABsgUNIED2oAGE0KEBBMgWNIAA2YMGEEKHBhAgW9AAAmQPGkAIHRpAgGxBAwiQPWgAIXRoAAGyBQ0gQPagAYTQoQEEyBY0gADZgwYQQocGECBb0AACZA8aQAgdGkCAbEEDCJA9aAAhdGgAAbIFDSBA9qABhNChAQTIFjSAANmDBhBChwYQIFvQAAJkDxpACB0aQIBsQQMIkD1oACF0aAABsgUNIED2oAGE0KEBBMgWNIAA2YMGEEKHBhAgW9AAAmQPGkAIHRpAgGxBAwiQPWgAIXRoAAGyBQ0gQPagAYTQoQEEyBY0gADZgwYQQocGECBb0AACZA8aQAgdGkCAbEEDCJA9aAAhdGgAAbIFDSBA9qABhNChAQTIFjSAANmDBhBChwYQIFvQAAJkDxpACB0aQIBsQQMIkD1oACF0aAABsgUNIED2oAGE0KEBBMgWNIAA2YMGEEKHBhAgW9AAAmQPGkAIHRpAgGxBAwiQPWgAIXRoAAGyBQ0gQPagAYTQoQEEyBY0gADZgwYQQocGECBb0AACZA8aQAgdGkCAbEEDCJA9aAAhdGgAAbIFDSBA9qABhNChAQTIFjSAANmDBhBChwYQIFvQAAJkDxpACB0aQIBsQQMIkD1oACF0aAABsgUNIED2oAGE0KEBBMgWNIAA2YMGEEKHBhAgW9AAAmQPGkAIHRpAgGxBAwiQPWgAIXRoAAGyBQ0gQPagAYTQoQEEyBY0gADZgwYQQocGECBb0AACZA8aQAgdGkCAbEEDCJA9aAAhdGgAAbIFDSBA9qABhNChAQTIFjSAANmDBhBChwYQIFvQAAJkDxpACB0aQIBsQQMIkD1oACF0aAABsgUNIED2oAGE0KEBBMgWNIAA2YMGEEKHBhAgW9AAAmQPGkAIHRpAgGxBAwiQPWgAIXRoAAGyBQ0gQPagAYTQoQEEyBY0gADZgwYQQocGECBb0AACZA8aQAgdGkCAbEEDCJA9aAAhdGgAAbIFDSBA9qABhNChAQTIFjSAANmDBhBChwYQIFvQAAJkDxpACB0aQIBsQQMIkD1oACF0aAABsgUNIED2oAGE0KEBBMgWNIAA2YMGEEJX6B34gq4gwggaQID4dcyrbU07CzSAABmCBhBCZ5TdU3QFEUp6vU/yywBAjGj+rRw2H0OI4Xj/5JcAgBjR/Pt043wMK2297vH8MpAnRnngvbqCCCNt0juUXwYAYmQ47oBuTo45jvtbfgkAiFGhx32/dk6GkEmzBw7il4E8OUT27U4b9XW6ohhTHG/NhMsWbcsvAwAxKpTdi7Tzcqzpcc/hlwCAGE2Wd+xulL1ntfNybHkE++ocowK4oaEgxhyj7P6Cfz0AxKytx5ukm5dji7uh4Nx6AL8EAMSMGsCb9HNzTLmKfz3kUcHxPqwpirFk46TywBH86wEgfuMLjvs3zdwcfRz3Bv7dANACbc7Acdq5Odo47sZCT3+Bfz3kU03tLG7RFsgoQkcpV/MvBoAWMXq899Q38Jo52nzcdYbjHsK/GgBaoVYbT/vXW/VzdBRxvHn8myHPCrLv9bSzWKUtkqbiLp8kB17BvxYAWojm49f187S5UPM3i38lALSQUZ6/PzVuY99XO+6yo2b3782/FvJOnTdEG/rHtMUykqgGcnb/wfzrAKDFOubN21od5Wvn60jjeN9T3xLwrwSAFqMDu6OMsve4dr6OKO7KdufWd/CvA9ikrdc7lJrA/+qL5kWzeKLjvYV/DQAkhHoyCM3pS2ijv0Ezb18k7jo6qLPU1078qwAgISY5A4fRwdkD+rm75VDjeFeb7H8z/xqAFzr44jt3Mnq9C0Z4hPEI/Tv7mLnXb88/DgAJ1FYeeBc1dX/VzOHGbKSG8VY6GJzIPwoACUQHdzvTQdqFlJd88o9Rdh8plAdKB8rF2/GPA2zZhDmLdlNPCqGdwS+pgBbTn0OUqnoaAP15pVEe6FIFyP8cAFJAXfXXtmmnMZ/m9VL6cyUdxC2hP2+huV1W3wLwPwWAFFD38213vFOf31eXN9tXl92fFRyvqD7Y4X8OAABQh694AQAAAAAAAAAAAAAAAAAAAAAAAAAAAAAAAAAAAAAAAAAAAAAAAAAAAAAAAAAAAAAAAAAAAAAAAAAAAAAAAAAAAAAAAAAAAAAAAAAAAAAAAAAAAAAAAAAAAAAAAAAAAAAAAAAAAAAAAAAAAAAAAAAAAAAAAAAAAAAAACA8tdq48VVptlftorlSdk3kvwaAlFNze9DqnFSf25aYwH8NACn0gn015jOMRW1ex9YVyzw+sM1FlNrzscRtgWUeW5NyK/6nAJAifXLyNr7V+cnAFn9vmNsDfqnzw5jbAOmh9tVDUnyC5u8L5rNvmwt82YX5DCNHxbJNVQpBxXT35sU0POJOSketo2Nr/lEASLBFM2Zs65fMIs3bf+vn9Kb4lnmHbxU/OQ9zGyCx1L56JPM5UPO5ZE7BfIYtWiKn71Apmaf6tvivtoi2EPr39/qyeMJi2bEd/yoASBA1t6u2+DQ1dg/o5vCWI/5dlWaxdtmMbflXAUCL1ffVo5jP9O/vof11F+YzPK8iZ+xIxTEzsMTyxoJpJhXLfMi3xGdVcfKvBoAWCs4s7lSxzS9SIzeom7MjDe00HqS5PWPj3Jnb868GgJjV99VSfGHM89kSS6qyiPmcZw+c3bFbxe48m4phSFcko45lVmiHccY9Z310F34pAIgRHYTtTvPwnLDnNs3rwSo1lItlx878UgAQsdVzaF9N8zmwxArdvBx9xCD93i8NYT7nxxp5yp60cziPiukRfVGEFbHKt81utTPilwaACD16ftfLK5ZwaN6t0c/JkGKZK1WDqQ4i+aUBIGSD53S9nPajPXQgF/18tsWs1ZjP2fXQuearaMdwoW+Zj2uLIKLQ662hnVJvIIuv4KEAQIhWymmvprl2cfxzmw4iVcM5a8rePBQAGKOlNJ9pbl0U93yufyhkFWk+n4T5nBUV2fVa3xbfooJaq33T44olnqSjjEuWnTvlNTw0ABgDv1u8LiiJb9P8auncpu3LE/TnxSvoIJOHBgBNWq321Zb5f7SfbP18tsyvqUaUhwZpMyi73kzF9ENq/Nbp3uRWRTWilZL53aoUb+ChAkATVpbMt9A8+jHtKBI1t+kg72m1A3uou7g/DxUAXsKgms+2+FES5zON6dsB5nN6BLJ4EL1xP/dtc732TU1IaEfxLI3z8orsfCsPHQBeRFVOO7hqmb+k5m+Dbk4lJ2Idze+frKCDUB46ADSolsQ7aJ78kuZMwvfV4lnqJ36iGlUeOiQNFVIbvVHX0p8bdW9igrO+aotfrSh1HcaLAgCbCaxigeb272gjnKq5rQ5Cq7b5i6FS8RBeFIDcW25NK9D8+G3a5jNlvWpYB6U4lBcFWm2FZb7Tt8VNKSymF6TeuFrij+pZhrxoALnmW12TaW7/Of1zW2ykRvC6QHYavGgAueNbnZNpP3dzFuYzLcPv1YEpLxrEST3br2J1fpDejPmNb04WonZ6gSy+tzZu3HheZIBcUHObNrAfonngNs6LbETcFEjz3ZjbkAdqPg/J4jHU+GVyPquGNrDEezCfY1Bv/GTx47TiFzW+EVkMNYILA8s8FsUFWVdv/EriE1Tz/9DNhexFDKhGlxYdcxsyR83nqmUeT83R3/X1n7ks8EudH+bFhzDVZszYtmqbnbSS72pY6XnJP3xpTumTk7fhVQKQCeq5nFW7aPq2uVhT93nIIl+KT9Tm4UH1kH5qPlfszvzOZ2p4fav4ScznECyWHdvRkfIpvi3+q13ZOQuth3uH1MOspUQjCKl2/8xjth/NA92zG/Fvv2QWcZAHaVSjfXVVmqdiPnMs8x5fYj6PinqIeyCLn6dueql25eY81Ag+SEdYn6nJ6TvwKgNIheBimtuWeqC7uayxrhE1t83/qsZ4CeY2pEB9PtvmTArmsyaqIa5iPo/MygtP3oV2Dl/1Q36Ie1ZD68mvWuaXVMPMqxAgkVZJc9fALp5NdRvyA92zGjGoGuWKnLEjr0KAxNg0nzvPphrFfB5BqBGsVGzzi5jPGuqhz74tZGCZD+tWHvKSWVGxOs99RE7fnVcpQCJUZOde1Mz0UI2ubqhZZARRB8MVyzxnCeY2JEB9PlvmeVSbmM+jSP3DLcznTaqzpu1Ttcw51B3H+9DnjIaK61E6yiirScqrGKAlhuT0V1I9XkRRz8nV1ivSRNSD6qmRVgfLvIoBYvP8fN703Gt9jSIjjm+bayqWcB49P4fzWT3EnYrpm9QJP6VbOcjYUt/pWubXlp17wmt4lQPEIpBTX08HdP9HdYi5HUHqB8ulzotX4kH1EIP6vto2v0X7lKd19YiMLfzh18VL8zCf/Vkn7U1HED+gI9lkPfQ5u1lL6/rby+SUPfktAIiE+jSfdhLJe6B7VkM7ZNqWfmvpOWIPfgsAQhPI4iuqlvlDalCe1dYfEnbWqkY7s/N5SHbsHFjmPZoFRyKPuBNXIUFU1Nym5u8+fe0h0Ub8Xd2Cg98KgDFbeZa6GNPEfG5FLPOOjXNnbs9vRXb4dvE07QIjMaV4Er8VAKGqbLoNhKbmkDji26KL3wqAMQuszs/r6gyJJ74snsBvRXbQgs1rXFAkzojL+a0ACBXV1jX6mkPiCDWAP+K3AmDMqKaubqwxJL74lvkTfiuyof6cT0sEuoVFYsv9/HYAhKbW0bF1YJkrNfWGxBXLvIffDoAxqe+rbbOqrTMkpoh7+e3IBnVloH5BkbhCRxUb/VlT9ua3BCAUQ7L4Jl29ITHGEhtwexgIQ1WKN2hrDIkz6zN14WalJIRmIZGYU7HM4/ktAQiFeja1rtaQmCPFcfyWAIxaVZpFbX0hsYbeh4/yW5J+/qb7gmkXFIk1F/NbAhCKiiW+p6kzJOb4triA3xKAUauUzO/q6guJN9QzzeG3JP1oge5oXEAk/viWGOC3BCAUvm3epas1JOZY5nx+SwBGjfYR/9LWFxJzRD+/Jem2+uyO3aioNugXEok1lnjy/pnHZO8eQ9AS6nmWmNtJiXisJuU2/NYANE2dd4b5nIz4tngiE/vqwW7xPt0Cpim+bW5UzZPuv6UtVWm281sDMCZDVucHdTWWpmRpbvuyayK/NQBNG5LmB3R1laZkaj5bZhu/NelFC2HrFi4NqV85a4ubfCnepS6PH5TifXSE1Kf7tynKWfzWAIyJepi5pr5SETW36c8bhmTXUWpuV63i+9XXqI3/Lk2hg7sv8VsD0DSq//N0dZWGPDefK5b5TjWfK2o+2+atm/+btIWW6cv81qQXdeM36hYuyVEfg1N+R2+AtgMfksUjaOf3J1q21H1cTst1LS8GwJhQLd2iq7Ekh+f2tZQJvBgvUJGdR9G/u4H+u9qhaH9HYmOJX/NiADTNt8WftXWV7Kz3bfO3vpym/fS70t15FP33G9K4rw5s8RtejHRaNGPGtrTiH9UvXPJCDd+zVCy/WFYS7+BFeFEVaR5OP6fumr5+89+T5NCOLeDhA4yaOj+F5nZqvmqhulcPtb8qKE17Oy/Ci1pJDSI3iqnZcdD2q8LDB2iK2ldTA/iYrq6SGbGO5ubPA1k8iBfhRdG/nUA/o55YlJ59tS0Ga+PGjedFSJ8qNVK6BUtg1lKB/Hh5qfMAHnpT/FLX2+jnr1RFqfndictQ99Q38tABRmVFqeswXW0lMDS3zR8OdZ8wqppXDaPa0aiDQ83vTlTU+U9+t3gdDx1gxIakOFRXUwmM2lf/SN2AnofeFF+aB9Jcvop+R+Lns0qq5zOt5M/qFioxscwng5L4dkV2vZaHPCb1u6hb5vdpuddqXy8hyeTDpiFWdLDzOV1tJSaWeNIviW+tkua+POQxUQ1klRpJ+t2Jntu0DRI8ZIARo8bodF09JSZqPtvmtwa7p+7HQx4T9SGIb3XSfE74vrpkFnnI6UPN0BW6hWp1qEFTH3VfXJ09bR8eaqhWnXvCa6hY56pLuRtfOwmplDov46ECjArNoZ/raqvVoXE9SnPvwkAWX8FDDZVqKGlefyuxX3/TAS0PFWDEaF99pbaeWpz6fLbERdVZ0eyrl6v5bIlvJnY+W+I7PNT0oRW7RLtQrYplPkwr1InrOXvq2bu0DubQa68ZNpYWhsb0Lx4iwKhQHT3UWFetjVhF8/u8peeIPXiIkVINZlU1mgk7x9m3zDt4iAAjos4zo9pZ1lhLrY1YVbFFz5oL4pvP6sCR9o0Ju2ZB3MlDTJelctqr1Tkp+oWKNzSOKu0czll51sm78PBitemGuaZNY1ipG1/coSJfd780d+XhATRFHTXr6qoVoVoOqAn76pDs2JmHFyvVcKrGs96AasYXd2g780xwZnEnHh7AS9r0qXZC9tVqPtvFs+9p0b5azWffFjI581msa1XfMiZVyzxet0AxZ1nF7vzisjOmvIyH1VJqwzwki1+hAvM1Y4016ia+PCyAptDGsUNXU7HGEksrtjmTDq524GG1lGpAA7vz7E07MM14Y4y6+T4PC+Al+dKcoqujWEPzmf6cmZR9dX0+04FlEuZzVaZwPtPAL25ckPgiVtEbN2Ox7NiOh5MoG+fO3D6wip+nMbbu42ZLODwcgKZQ3X5DW1NxxDJXVkrmqeq2FTycRKlRQ0pz6wu0jlp2Sw31bQMPB+Al0Zz6uq6OYgnN56o0T61dlsz5rA4waZwzW7uvNs/j4aSHb5sLtQsTQ+jN+iwPI9F8W5yhG388EX/mYQA0hepn0fB6iiviFB5GotFYzxo+9nhC278beRgAL4nm1F91dRRHqrb4NA8j0WicZ+rGH0eoT7iJh5EOFTljRxp4yy6vHpRT38xDSbRW3ktNfUJR6+jYmocCMCIrLzx5F9phtOR+l756NGNK7otFY23TLUMsscQjmNswEvV9tTpvVFdHMWS09/OLm7oxvG78cYT21Y+ox9vxUJJvyBJH6hYklljmylotHXfPrsnJ29CO4nHtcsQQ1YDyUABGxLc6J+tqKY6oc2fTMrc3neZhtu7WEiN8QgLkm3rOvbZ+Yoi6OJOHkXjqK2o6sGrZfK7KaQfzUJKPBty6rz9scR0PIxXUV7G65YglVvHzPAyAEaF6naWtpXhyNQ8jFagBnK9ZhliSltNgoLWoRs/R1U8coRpN1XPpqWH9i2454siQXTyNh5F8tKJ+q1uIeFI8m4eRChVLOPrliCGW+DkPA2BEqrb5e20txRA6uDuTh5EKtC2arVuOWGKZV/AwALaI5vN12vqJJ2fxMFKB9tW9mmWIJdQsX8nDSDb1XXXQwnvoVGTnUTyUVFC3Y9EtRxzxLXNJqh82DbGqz211M3VNLcWRqjTbeSipQOvqWN1yxBJL/IeHAaDVVz8FSTyirZ8Ykrb57Jc6P6xbjjhC79ODPIxkG5Rdb9YtQEx56v6Zx2zPQ0mFwXO6Xk5v7gbNskQe9bpDsuOVPBSAF+WXut6mq6NYYoknk3rrly15THbu1aob7Kq5TQfDe/FQAIah+nirrnZiCc3nWkJv07Ylaj7R2NcPW5YYouZzVI/DCxVt8KbrFiCO+LZYyMNIFZoMd+uWJ5aUzE/xMABeVGCLU7Q1FENou+LxMFKFtkn36pYnjvgl8QkeBsAwtO0/WVc3scQSAzyMVKFtYOvms1X8JA8juWiglzUOPK5ULPPrPIxUqVjie7rliSN0ZPENHgbAi6ra4ke6Gooj1ABeyMNIFd8yf6hbnlhimV/jYQAM09LatM2LeRipQnPq+5pliSniEh5GYo2norpHP/jok4oOWcMvdZ6gW554Iv7KwwDYInWuqG+L/+prKPrQQdLHeCipEtjFk3TLE1MW8DAAhmnlp9MVyzyeh5EqQUmcqFueOJL4bziXySl70kBb8x25bW5cca75Kh5Kqgx1n/BG3TLFEst8JinPX4TkCmTxFa07V9Vc/+j5XS/noaTKYMl8i26ZYoklnk7Ks5IhWdS551QfrZnP6rxY2p7wUFKlpdc40HxO9DUOtIP4kHbgMYS643RcJaOhbm5Lk6KqW6444ltdk3koAFqB1fkRXe3EEZob9/MwUkddadnKK6eHZPEIHgrA84KSOE5XL3GE+oTUXqGuvgmh+bxSt1xxpGKZ7+ShJA8NsNw44LhCRXUlDyOVAltco1uuOFKxOs/lYQBo0QHWBbraiSWW+CkPI5Vaeq81S3yVhwHwPN8yz9fWSywRl/MwUomWAfc51qEj9ZbdKZsK+nQeRipRA/sV3XLFEdq5/4GHAaBFNdKvq504kpYHxm8JHbW37GkLlN/yMACeF7TyKTW2+RkeRiqpgyrdcsUT8TseRrKo76ZpgE8NH3BMSfmzLwe7i0dolyuWiBWpetg0xKo+ty3xtL52oo+6/yAPJZVWWOY7dcsVR+jAMkjL85MhHuq8UKqLtbp6iSNpn88V2XmUbrniCL1vQ4ncV9PAJugGHFNW1zo6tuahpFJFzthRXZChWbZYsrzUeQAPBeAFAqtY0NVMLLHEqrQ3MMHFxZ1o+/isdvliyFIp3sBDAVBf/7bp6iSe0HxO+b5azedW7avVBTRD3VPfyENJDhrczMbBxhXfFjfxMFKNJseAbvniiTiFhwHwAjS/ztDXTCy5noeRarTTvV2zbPGkJE7kYQCoUxK+pK2TWCL+xMNItZbOZ7t4Eg8jOaq2+Qv9YGOIZZ7Hw0g13xIXaZcvhtBr/5iHAfACtNH+ta5m4gjVZYmHkWrqJvW65YsjtLP6Pg8DQH1YM6+xRuKKb5sWDyPVqOf4mm754on4AQ8jGaSUW9GGelA/2OhTtYrv56GkWqXU+XHd8sUSy7yHhwHwPHW+Cc3tIW3NxJFu8908lFTzS+YU7fLFENrpLuZhQM7Vb+humRVdncSRqmUezUNJNV+KT+iWL5ZY4m4eRjIMdk/dTzvQGELFvH6VNHfloaTaA7Om7UPL06KHx5sb1c1BeSgAdUG5uL+uXmLK2uDM4k48lFRbdu4Jr2nh3F7/iJy+Ow8FcszvFq/T1Ug8EevU+XM8lFR76FzzVfpljD50QLd+SZLmM72xU3UDjSO+Le7kYaReqx+3FVjFj/BQAOoqdqeprZV4soiHkXq1Wm08Lc+yhuWLLb4lPsRDgRyr2manrj5iiSX+zsPIBDqwekC7nHHEMo/lYbQedaRztYOMI5b5HR5GJtAk+al2OWNI1RYX8DAA6ujg7tu6Wokj1LR8k4eRCbStulK3nHGkYoleHgbkGDUt/6erjzhCfcK3eBiZQHPqZ7rljCO+LWbzMFqPNtR/1w0yjtBrX8TDyITWTlDRz8MAqFOfsOtqJY7QXDifh5EJdHD3Pd1yxhHa+f6FhwE5RvvLf+rqI47QtiRTHzBUSuZ3dcsZR+h97ONhtNb90txVnWOiG2RMeSwoTXs7DyfVVkjzcFqelt1Mm97Hx2uXzdiWhwM598DZHbvRhqYlD4znrFlZMt/Cw0m14NxOg9Zl626+a4lHa/PSff81GBt13lgr99WqBtN+E+jn+LJrIh3Qte7m+JZ4LBH7aloJ79ENMNZY4r7VtLPiIaWSP2vK3rQcS7XLF2NUYfOQIOcqVvH9uhqJNZZ5z8oLT96Fh5RKgSy+gjbYy7XLF2NWlLoO4yFBDqkrcHV1EWtoPqf9ok3M5834ttmtG1zcoXH8Pq2PM6Nxb0MFdYtuueKOb4szeFiQc1QLUlcjLci1aZ3bi2XHdjT+WxuWp1WZycOCHKrapqWpidhD+7rfpXU+L5oxY1saf59uueJOxe78Ig+rdWgg1zcOrGWxhMPDSpVW3iR2eMSveViQc1QLN+lrJP74lmnzsFKlpRfINYTW4S95WJBDVAM3NNZEy5LShzf4pSTNZ/ErHlZr9MnJ6pOrR3SDa0VoLBuqlvgYDy8VqlII2km05P5gutBOosJDgxxTn1ypc0J1NdKKqLkdSHEcDy8V/FLnCbplaVkssZSHBjmjnr9L83mNti5ak/WB1Zmq2475tuhK0r665fPZl+aB2oG1MpZ4tCI738pDTLShUvEQOhJ6UrscrYyc+noeIuTUclWbutpoZehgc0Wp8wAeYqLVL+hq4UniulATvXFV7wmv4SFCjlRL4h26mmhlqB4fHUzJRV7qfDsac8su0NxSlktzXx5i/Cq2+LRuUC1PCk40pSZ1L5oAS7Tjb3HUzX95mJBTvt15mq42Wh06Al98z1nJvijEn3VSIi7o0kdM5WFCjlRt8zP6emhxLHH3ysTP5yl701gfGjb2JEQWp/Ew40eN1ne0g0pAqLlK7Imm6nYMfoLOr2pMxTK/xkOFnPIt8/u62khELPNq9WQNHmqi1E8St82/aMedgGTtXmwwMtRotewelC8V2ldfm9T5XFOnudniz7pxJyG0rbmQhxo/GsDFjQNKUtRVjDzURKGCv0g33sQkpSfoQngCW1yqrY2EpGqZ5/JQE6VidSbogq7hqVqixEOFHEnWhYbD49udFg81USolcYluvEkJHai37uI4amQmUAfayptAv2hofIk7cXzQFlMTdSJpQ2idrVuVkZt1wugFVrFQnz+aGklC1NgoiXq+bYufmzySrB2UU9/Mw4Ucqd+4OMn7ahqbLzs/zMNNhIptdiZ7X20+0/JzKANbzNINLilRVz6tkF2J2OipE3Fpp/WEbpwJCu4VBnVJuW/YlkJze/UyWXwTD7elBkvTDqPxJO4k8c1D4zudhws5RPuekq4uEpMEXeS16QJNkbwLNF8Q8Tkebuuo7+4rlnm1foAJiSXubvWJ42vkKXvSBvgB7fiSk8t5uAD1uU1HwL/V1EmScteQ7NiZh9wSmy7oMhN5QddzoZ3/j3m4kFPqnHhqGq7V1UdSQnX6r8Utns+D53e93LfFg7rxJSW0Xf4JD7f1VHNFA1qsG2hyIq5p1UUh6h5M1IT+ST+uZIQm3t+XnTHlZTxkgDr1PGB1Vb2uZhKUebXauJacRF4/Sdwyb9aMKUERf10ip+/AQ4YcU49VpHr4t75OkhLxm1ZdFKLubUyvf6N+XEmJ+OvGuTO35yEng/rolpqIJN1ocliqttnNw42VuvJON57ExBIrKrLrtTxcgBdQ99Wkuf2otnYSk86zebixCkpJvxDOrLb0XmGQOCtL5luSP5/FLB5urGi9JPoCTRrf0GD31P14uMkSWOaxNMDknjiuTjQtxXuiqS/NKfS6Sb7o49lAFt/LwwXQUk/YSfTctsz1Q9L8AA83FoHsnJbwub3Otzon83ABnhdYxY8kfj5bnR/k4cYiDRdoBt3mu3m4yaQu59YNPimhlfjIUEwnjgelaW+nQk7M47R08W1xBg8X4EXRUXmProaSEprbDwfdxf15uJGqyhMOTvpJ4hVLfIGHCzCMuk2arm6SEmrGVg91n/BGHm6klstpB9P6SPQFmhXb/CIPN7nScqJp1CeOLz1H7EGv8x/d6ycl1JxeVRvXmnOnIH3U3KaN8nW6WkpKaM79MzizuBMPORKD5yT/JHHaBuOCLnhRm+azSPh8NiOfz8vklD3ptf7b+NqJimVekZp9tXoMG71xST9x/GZ136GKNe39YUfde5A2wP2a10xOLPOOijxuR37LAEZkiZy+O9XOfdqaSkoscaM61UM3N8eaQatTfXU2oH3dhITG9/caLvqAEahf5GWLe3V1lJRQk3pTtPtq02t8zUQljfN5pZOGE01zGstcGcipr+e3CqApvjQPpLn9mLa2kJaG3pchXNAFzfBLXW+jJgvzOZlZ4XeL1/FblS5VaX6UNkiJPdE0l7HMZ6tW8f38FgGMii/FJ+jIFHM7QaFtLS7oglGpyuLHsa9OWsS6Qcs8mt+idKKG4zz9wiEtyln81gCMCTWAvZr6QloUHxd0wRhUbLOsqyukNala5pf5rUmvNJw4npf4lvlLXPQBYdl0wZf5x8Y6Q1oQy7wScxvGYl79gQWYz0mIb4mfZ2Y+r57TsRstULJPHM94qAm/K+qrqSB/6le72yLZV9BlPbigC0LyiLrIyzbvH1ZjSJy5Y9klGXsqF04cb2Es8fDS7qmx3E8J8ieQxYOSfr/LzKZ+Qdd0XNAFocF8bmXEqrjuZRq7qmUejxPH4w1N5PW+LB7DbwFAJGjD1ZHku+hnMWpu44IuiIJvFT9J9YX5HGfycIEmLShONI0xlRY9UxHyx7fEHF0NIpEFF3RBZKgBPF9Tc0hUscRXedVnV/3EcZxoGkuo+ftNrYYTwyEe9ZPIbfOGxjpEwg/tnHFBF0SqNq9jax/zOZb4tvhVbuZzGh6TlvbQxF0c9ePuABrVH5NmmQ/oahIJJ/ULui7GBV0QPfWYNKo3XOQVYerzOW8XaAalaW+nHQVONI0g1Fw/srzUeQCvaoBYpeHB6qmNZT5cleINvKoBIlctiXdgPkcTav5WD3WfkM8LNH1pTqFmBSeahhgqqPW0kziWVzFASwSlzmlUi5jbIYYOmHFBF7TEoC2mUv1hPocZy3yW+p8P8SrOJzqyuEC7cpBRpWqJEq9agJaiery4sT6RMcQyz+FVCxA7OqC7UFuXyKhSsTrP5VWbX7X6iePiT7oVhDQXOpq4Fhd9QFLUTyK3zJt1tYo0GUv8Ghd9QCv1ycnb0L76Jm19Is3FMq/GvprVTzTFieNjjPj3yrNO3oVXKUAiVGTnXjS3l+hrFhlJfFzQBQlRv8jLFg/q6hQZWdR8Xoz5/EJVdeK4hRNNRxNab2tWlsy38KoESJTB0rTDAks8qatd5MVDzfPqIVl8E69KgJYbkuJQzOfRhfbVjwzKrjfzqoTNBepEU5w43lSooDYMlsyP8ioESKSqXTR19YtsOWpu+7Lrw7wKARKjapud2Fc3F1pfuEDzpdBG7yLdykO2EMs8j1cdQKJRrX5dW8OINrST7eZVB5A4gS0u0dUtog81gBavOtgSnDg+8lBBXaeerMKrDiDRanLyNlSzf9HVMtIYcQ1OEock4/l8i75+kc1D6+m3mM8jtOnEcYETx18kvi3uXSXNXXmVAaRCIIuvCCyxVFfTCMcSd6+8EBd0QfL5s6bsTTX70LAaRjaL+Dfmc5MGcaLplmOJR/1S19t4VQGkCh3cTaA8ra3tvAcniUPKVKR5ONXuU8NqGVHn8T6KCzRHqWJ3mj5ONH1BqKA2VCzzeF5FAKlE83o65vYLo+Z2YBU/wqsIIDV8W3RhPr8wtD7WVyUu0BwTanZw4vhmqdhmmVcNQKpRw/NNXY3nNVXLtHnVAKROYIlv6Oo6t8EFmmNXP9HUEjjRlEJHWX/ARR+QFbXLZmxLdX1rY53nMbSN+53E3IYUq82YsS3VcZ+uvvOWKi7QDE/9RNOcnzju2+b9q8/u2I1XCUAmVGdN24fm9nJdzecluKALsqJ+kZdtLmus8XxF3Hs/5nO46ieaWvk80ZR2EI8FpWlv51UBkCmB7DSoCczlRSF0YLdmpex8K68KgNTzZdfEvM5nWu5HfWkeyKsCwpTHE03VieG+VfwkrwKATArs4km6+s9y1NyulDo/zqsAIDOCkjhRV/NZTn0+4wLNaFVtc65u5Wc1vmWez4sOkGmBLb6tmwPZjejhRQfIHNp3/Z++7rOZiiV6edEhKuqiENpw5uTEcfEnnEgKeaEuCvFt09PPhWyFlvP3mNuQZeqiENqH9evqP4P5I+ZzTOonjmf9RFNL/GfpOWIPXmSAXHjoXPNVtNMY1M6JrMQS962egwu6IPuG5PRXUr1n+iIvdYHmEjl9d15kiIM60dTP6ImmvmU+Xi2Jd/CiAuRKVZrtNA/WNs6LLIS2WThJHHJFXeRFdZ/J+UzBBZqt4ludk+no4u+BZT5DXfj6tIeKaW3VFgsDq1jgRQTIJZrX76EDoTuyM7fFWtoJ3kbL1MaLCJAbgTTfna35bNbns2pueRGhVRbNmLGtOn8o9ZFyG14kACCY2wDZgfkMAAAAAAAAAAAAAAAAAAAAAAAAAAAAAAAAAAAAAAAAAAAAAAAAAAAAAAAAAAAAAAAAAAAAAAAAAAAAAAAAAAAAAAAAAAAAAAAAAAAAAAAAAAAAAAAAAAAAAAAAAAAAAAAAAAAAAAAAAAAAAAAAAAAAAAAAAAAAAAAAAAAAAAAAAAAAAAAAAAAAAAAAAAAAAAAAAAAAAAAAAAAAAAAAAAAAAAAAAAAAAAAAAAAAAAC5NW7c/wPaR6CVljMCAAAAAABJRU5ErkJggg==;" vertex="1" parent="1">
                    <mxGeometry x="290" y="401.5" width="60.75" height="60.75" as="geometry"/>
                </mxCell>
                <mxCell id="5" value="" style="image;sketch=0;aspect=fixed;html=1;points=[];align=center;fontSize=12;image=img/lib/mscae/Kubernetes.svg;" vertex="1" parent="1">
                    <mxGeometry x="414" y="402.62" width="56.77" height="54.5" as="geometry"/>
                </mxCell>
                <mxCell id="11" style="edgeStyle=none;html=1;startArrow=none;startFill=0;dashed=1;exitX=0.5;exitY=1;exitDx=0;exitDy=0;" edge="1" parent="1" source="34" target="8">
                    <mxGeometry relative="1" as="geometry">
                        <mxPoint x="69.25" y="370" as="sourcePoint"/>
                    </mxGeometry>
                </mxCell>
                <mxCell id="7" value="" style="image;sketch=0;aspect=fixed;html=1;points=[];align=center;fontSize=12;image=img/lib/mscae/Azure_Repos.svg;" vertex="1" parent="1">
                    <mxGeometry x="-130" y="403.75" width="52.65" height="58.5" as="geometry"/>
                </mxCell>
                <mxCell id="19" style="edgeStyle=none;html=1;dashed=1;" edge="1" parent="1" source="8" target="17">
                    <mxGeometry relative="1" as="geometry">
                        <mxPoint x="290" y="430.75" as="targetPoint"/>
                    </mxGeometry>
                </mxCell>
                <mxCell id="8" value="" style="image;sketch=0;aspect=fixed;html=1;points=[];align=center;fontSize=12;image=img/lib/mscae/Azure_Pipelines.svg;" vertex="1" parent="1">
                    <mxGeometry x="40" y="402.62" width="58.5" height="58.5" as="geometry"/>
                </mxCell>
                <mxCell id="14" style="edgeStyle=none;html=1;entryX=0.469;entryY=0.992;entryDx=0;entryDy=0;entryPerimeter=0;dashed=1;" edge="1" parent="1" source="3" target="7">
                    <mxGeometry relative="1" as="geometry">
                        <Array as="points">
                            <mxPoint x="-105" y="536"/>
                        </Array>
                    </mxGeometry>
                </mxCell>
                <mxCell id="23" style="edgeStyle=none;html=1;entryX=0;entryY=0.5;entryDx=0;entryDy=0;dashed=1;" edge="1" parent="1" source="17" target="4">
                    <mxGeometry relative="1" as="geometry"/>
                </mxCell>
                <mxCell id="24" style="edgeStyle=none;html=1;dashed=1;" edge="1" parent="1" source="17" target="3">
                    <mxGeometry relative="1" as="geometry"/>
                </mxCell>
                <mxCell id="17" value="" style="sketch=0;pointerEvents=1;shadow=0;dashed=0;html=1;strokeColor=none;labelPosition=center;verticalLabelPosition=bottom;verticalAlign=top;outlineConnect=0;align=center;shape=mxgraph.office.security.lock_protected;fillColor=light-dark(#44b508, #ff816b);fillStyle=auto;" vertex="1" parent="1">
                    <mxGeometry x="190" y="407" width="38" height="52" as="geometry"/>
                </mxCell>
                <mxCell id="25" value="dev" style="shape=umlActor;verticalLabelPosition=bottom;verticalAlign=top;html=1;outlineConnect=0;" vertex="1" parent="1">
                    <mxGeometry x="-260" y="402.25" width="30" height="60" as="geometry"/>
                </mxCell>
                <mxCell id="26" style="edgeStyle=none;html=1;entryX=-0.049;entryY=0.473;entryDx=0;entryDy=0;entryPerimeter=0;dashed=1;" edge="1" parent="1" source="25" target="7">
                    <mxGeometry relative="1" as="geometry"/>
                </mxCell>
                <mxCell id="29" style="edgeStyle=none;html=1;entryX=-0.01;entryY=0.5;entryDx=0;entryDy=0;entryPerimeter=0;dashed=1;" edge="1" parent="1" source="7" target="8">
                    <mxGeometry relative="1" as="geometry"/>
                </mxCell>
                <mxCell id="34" value="" style="shape=image;verticalLabelPosition=bottom;labelBackgroundColor=default;verticalAlign=top;aspect=fixed;imageAspect=0;image=data:image/png,iVBORw0KGgoAAAANSUhEUgAAAtAAAALQCAYAAAC5V0ecAACAAElEQVR42uz9eZRe13XYC/72ufd+Y301ojADxMwJ4ARSEiVqpmRJtkXKjkOQmkLSEuU4jh076aTzXjrrvXRWr+71evV6PaxeUofA6sQD3S+JQ9vyoGikZpEAKRIcMc9jTV/VN957z+4/7leFmQRJVKGG/dMqgQRA4Kt7zz3nd/bdZ28wDMMwDMMwDMMwDMMwDMMwDMMwDMMwDMMwDMMwDMMwDMMwDMMwDMMwDMMwDMMwDMMwDMMwDMMwDMMwDMMwDMMwDMMwDMMwDMMwDMMwDMMwDMMwDMMwDMMwDMMwDMMwDMMwDMMwDMMwDMMwDMMwDMMwDMMwDMMwDMMwDMMwDMMwDMMwDMMwDMMwDMMwDMMwDMMwDMMwDMMwDMMwDMMwDMMwDMMwDMMwDMMwDMMwDMMwDMMwDMMwDMMwDMMwDMMwDMMwDMMwDMMwDMMwDMMwDMMwDMMwDMMwDMMwDMMwDMMwDMMwDMMwDMMwDMOYO4hdAsMwDOPdsO3JnQI4FURQiXC5VPyiFC0JeLz0Ar0g7tI1SFWEMRUdAVQI2ihDitYBBVFUFdCnHt+qdrUNwzCBNgxjXvLQ9mcdKgEiDkQEdUBwNf9tx5C8ID77CfWAB/U49U89eo9J1HXi4R3PCR6nSAhECDmUxcAyYJUKi0F7HVJWdEAhE2ilB6QPcOdu8TmBRqgCo9l9ljYwDNSAMZARVE+DHgeGEM4oEqOkAiloilO1cWEYhgm0YRhzhm1P7hSy/+WcEjnIJ+hiVVYjWeRRoBtYfBmBupxAKzAqmUQFKKPAKdCqiB5xBBMpGgNtlNSiktN6bwOFECECIoEeVJeCbAQ2ISxBWQYsApaq0A+aAxFQIfuHzloj8ha3Xc9blnzn52OghjIEegYYQTiuyBDKcYF9oIcRzoBropoAsY0JwzBMoA3DmLU8tGNXgNc+EdYh3Ixyg8CgosuBFSA9ZPJcBLqucs5RoAlMdIR7HDgLOgEcEuSUwhlgN8o+EXdW0VrnNT8mT+9ElJ+TTHfB4QDKeAYVXaKwBmENsEiYijbfkN1fcp17JNO8nuhFXzHZBusw6FGQ7Et1r4p/BeQIKm2AP7fxYBiGCbRhGNdVsrJoZF5UehXdCmwBNgqyBmE10N+RqqAjVu4azDNKFpFUIAUSoA4cQjmKcErhqCj7QQ8hHAEZ0+y/SUQ7r/lF/VOPLczX/A/teFbwiCBOkQBwIgTZfdI8ymoVVgKDwEpBlnRSMwYUliIMAgU5d1+DWbJ+pJ2xkQATKCdV9ACwH5V9wIuB8IpXbSq0RVz81GN3mVAbhmECbRjG9PL5J3dJgkagPcAdCPeKyiZFbwdWIZSkI2Uz/NE6udGkCi1RToMeQ+QkcFahChwU5Rj4M4icAldT1XZHuFJBU8A/9fjdfs5vcLY/JyhCdi8CBYcQhBB5tORV+wVZpMhSoF+EJdmGR7tQluvUv9MrSHTe5ieYQ5dBdXKTpYwJ7BXhNa96HNgp4nYpjKLa+PPHtyb2dBuGYQJtGMY15x/teF5i1b5U9f2KfhR4H8ItgpSAaJbNIXqRVCfAGVHOgA4jnAUZVeU0cAI4K+gIcBbHECoTZKkj/qnHts56oX5o+04BghBERbu8agmVAZABYJHCAEK/wCBoryr9An2a/Xq3CD2de+gu+ppPpECiqi1gj4i8pMjLovrTEHkJx/gfP2oRacMwTKANw3iXPLzjOQlUQlX6UrhP4H6FDyisF6HAHItIci79wwOqSossr3pU0CrZwbQRoApS6/zaCNAAzqA0MrHWsypaA5zDNQSa/qIDkcpkxRBRecvp9YqVSUKgDD7IPrd0owyCBAhFYAAoapZb3iMQCdqtUEbp7+Sd9wE9CEWFvGRz/fkpNW4BDm0PxKqMC7wm8JIKL4H/EcghVJoO4j+1nGnDMEygDcN4O2zb8bxDfbegd6LyOQ+fQFgrWV7zfJwvJqs/dCRbPNkBtSbQBkbJhLsFjCLaAJwgdWCsE+We+rM6tYuHQNry5lIPWbrEwGV+vQT0ggadz9WF0tcR6DzQA+QV8pwXQRYmjwHKBQf61Cb7y9707D7rsMAvgRdR+VEgPOeFEYXWU49u9XalDMMwgTYM463kOQDWoP5BRX8V5G65+soZ89i1pn6cjGRL54Cil0tL8qVkkev0Kv7MIpkEX8z5kWLlwioXNmdfe5LOPXsD+KkKvxD4IcjRpx69y/KkDcMwgTYM41I+v32XS1S7gQ8gbAM+QRYZDW2CeHMDtuszr+6pJ3vTcErgF8B3QX8EcgS09tRjd6d2lQzDMIE2DIMv7tgVeuWGWPUhgd9A2ALkbGIwFvjGKAVOgr4A8izo3wGvg4w/9dhWE2nDMEygDWOh8vD2XQHoraCPe+UfgCwVWZCHywzjSiTAGOizIN8B/Q7w+lOP3V23S2MYJtCGYSwgtj25U4C8iGz16B+C3i9QeYtWy4axkImBkU5E+hlB/kaFvUDtqUfvssOGhmECbRjGApDnbrLqGr+j8EHQSGw6MIyrQclazD+L8Leq8leoHg6R5p88bvWkDWMhYa9rDWNhUQZ+BfhDlA9mNYStuINhXCUCVICPqPL7oP8a+Cyw/PM7dgV2eQxjYU0GhmHMczptnssgvw78c4TbyBp2GIbxDtDs/1rAYSf8APT/p8iziBsH/FOP3mkRacOYx9gCahjzXZ53PCuoVkA+A/wz4HbmVjdBYwFJ6VyJ6nSKdOeBjR5dI9lz9U1U/xLV1wE7aGgY8xiLQBvG/BfoHMrHQf4NKvcgtnE2Zh9eNesJef7iJFezeHUy+K/janZe+btR4BlV/ROE7wgy8tRj1tHQMEygDcOYU3xxx/O5tvr3gf4PwMcEMXk2ZhWqigL5UCjnAlqJ0oz9JQKtdJquS/YPqlkMeOrnJxc1AZn8D+U6LHJKrOgBhL8U5D8DL6tq7c8fv9tSOgzDBNowjNnOI9t3BQK3pei/VfhMVm3DHnljdpF6xSu8b22Fe2/IqilmAq3n+qQLpKlSbaQ0U6WdeqqNlIl2ykQrYaSeUGspacekvWYRbQA3KdEyc6O/88lrovIL4D8p+k1xMiSI/7NHrVqHYcwHLBplGPOQh3bsdF51JciXgY8KRLZfNmYlkkWQIyes6suzpDtP6MC580asgPdKo+Vpp0qcemptTz1Oqbc9462U0XrCWCNhqJZwotrm1HhMM/H4yRQP1azejMi0p3t0VL0MfFjRpcBalP8CvAq07aYbxryYugzDmE88vGOXePwAKl8Bfg9YZg+6MVuZTOHoygWs6c+zqi/Pip4cGwaLDHRF5EIh7ESRpSOniqIiUxFq1SyS3U5Sqo2U4XrCUD3l7ESb42MxR8danBxr00r1Anm+IN1jur6/LMFkPGvAwg5Vvu9gNHKi/9Gi0YYxZ7EItGHMNyFB8wKfBH1UkWV2RYzZzKS+jrdSdh6p8cvjdfpKISu6cyzrznHDQI7VvXkWd+co5QJCUQJHlqeRDXgECAVyUUBXPmR5XwGAOPEM12LO1GJOjLU5NNJm39kmJ8baNBMPCio6JebT5NKTzYs+rbAWeErgKYWDZK3CDcOYw3OXYRjzgG07nneoblH8vwc+KUhkV8WYExu/TiRaAe+ziHIUCAPlkMVdEUu6I1b15lnTX2B5d0RPKcSJZP+dXn5xk07YWkRIUmWknnB8rM2BoRa7T9TYP9Rkou1xgJPpP3GoWXr0GQf/RUT+3wq7/+wxi0Ibhgm0YRjXjYd27HQo64D/HfAQ0G0PuDHnRDqz6QvSM1RBHHTnA5ZUIvpKIYu6Ilb25ljenWNJJYtOBw4CmTTVixa7jh+rCK045fhYm8MjbV45WefVUw2G6zGJP3foUKY3UbqK8m3gSeAnOMaeenSribRhmEAbhjHzAv1cP8rvAr8vMGCPtzFfZHoSr9lhwhQlco7+Ukh/KaSvFLKmr8CKvhxr+nP0lSNyTiabnVwSoRYAJ3iF4VqbIyNtXj3V4GcHxzk53saJTH9UWomBV1T0Pyr8SQ45/cePmUQbxlzBupEZxjzg8zt2iiofAP6xIOuub1sJw7g2nKuakX05EQInhM4hCI3YM1RLODra5mi1xaHhFgeH2pweb+MVSjlHLgyyqPSUOZ+zcwHKuYBlPTlW9uYYKEc4cVQbKY3Yn3uKpqMEnhAgLAY2CkQBsv/OB39n/JdPf91uvGHMkfnJMIy5LM/bdzqFLSn6b4FPC1Kwq2LMd7Kosp7vw6Q+y6Uu5wMWVyKWVCJuHCxy4+Iiy/vyFELBXSa9o+PIJApnx2NePVXnJwcmeO10nTj1BJ1k6unYlnYyuM8K8rfA/wq6+6nH7rZSd4ZhAm0YxnSxbcdzop6lIP9chMcVeuyhNha6UHuFVJXUK/3FkKXdWVm8LctLrFtUpJLPqnlc0sWQLNc68XBouMWzh8b5ycFxTlRjAunkR0+DRXc+QhP4lqD/L5QfgTSeetxSOgxjtmJl7Axjrj/DwntQPq12aNBYwMh5vb9d599DEcbbnrEzDY6Mtnn9TIMNiwrcvqzMLUtLlAsO7XRCnBRZ9dlBxLUDeQZKASt6cnxvzxivnm6SeiVwes0lupOrXQD9BJAnS6/8XkeqDcOYjXOOXQLDmJt8YcdO55UtKfrvQH5FIGdXxTDOcf4hRNUsMp0LhcVdEesGi9y5vMTm5WW68kEmsdrJ75BzUp54ODDU5Jm9Y/z80ARjjZQwmNa60U2UXcD/E+FvEavQYRizETtEaBhzlFsf+OoSVP6xIr8hQsmuiGFcyPmHEOkcQlSvjDQSDgw32T/U4tR4TD6ErkJIPnSXnL91IgyUI9YuKjDQFXJyPGaknuCmJPuaW3SIsAK4FUEQ9m1+8InG7qe/YRJtGCbQhmG8U/7Rjl1y8wNfySl8GPiKIKumvR+xYcwLmc6+nMtkeqLlOTbW5thYm1rL010IqRSDrHzdZFeXTqC5lHMs687TXQg5W4sZaaQXSPo1/7hCP7AOaAH7Nj/4RH3309+wG2kYJtCGYbwTNj/4VafIZoV/gXC3iHUbNIy356aTZfGytI6zEwkHhpocHm6Bh95SRD5y53alncyOXCAs68mzvCfHeCNlqJ6Q+k4mh3Ct97EO6ANuAjywtyPRFok2DBNowzDeLrc8+NVFZJHnfyiIpW4YxjtVaclkOnBC7JUT1RaHRlqM1hMq+YDuYkjo5FxXRCBwsLiSY3lPjlaccnI8pu0V15Hya2770AvcCHiEvZsffKJmEm0YJtCGYbwNtm1/NlD4AMg/FmQldhDYMN6lRHfSOshSOyZanqOjWW506IT+ckghcheWuxOhtxQyWMkx3ko5Mx4TT0WipyWfqhtYAzRV2LP5wScaL1s6h2GYQBuGcTXyvMuhbAD5A4T7BEvdMIxradJCltaReDg5HnNouM1EK2VRV0RXIbzgfKEToadTY7oZe05V27RTna5a0ZOR6JsQPMqeLQ/YwULDMIE2DOMt2fzAE93AlwT5vIj02BUxjGuvqZMtw50TxhopB4abnBpv018O6C2GBO6cHDugrxyxvDfHUC3meLWNquA6Qj5NEn0j0BDl9c0PPNHc/ZcWiTYME2jDMC7Ltu07nSJbgN8HNkpnjTYMY9pcmkCy9uAnxmPOTiSUIseirohceGFKR6UQ0FUIOFWNGaonneod01YapwIsFTgGHNz84NeS3U9/3W6YYZhAG4ZxMbc+8NXlKF8DPoVQsMRnw5gBiRaZCiSfrMYcHW3jnDBYiSiE7gLZ7i9HLCpHnBprc6YWZ7nV09BsRUBEGQDWAmcQObD76a/HdrcMwwTaMIzz2Lbj2Qi4H/g9QZaI2bNhzKhEu07Ju5FGwtHRGJ8qiys5ygXX6WCYRasXV3IUcwGHhluMNlICN00dC4VAYTmwVETeuPPBrx178emve7tbhmECbRgGsO3JnaLoGuB3ReQ9iIR2Va4vk6/uL3Ei6fyCXiA6b+MPvrItXfa3iJVgmXmRhomW5/hYGxFY2ZujmDuXzhGI0F+OSLxyeLRFM1YCmaabJQiig6Blh7x65wNPDN354Nd4wdI5DMME2jAWMg8/uVOAMvDriHwJ6LeGg9dbnnVKoicb1U1+ec1+/YKf1+zLK6SdHy/+mvw9F/952rGkC//9InkWGxEza9FZpLkee05UY7zCku4cpbybaraSD11W3q6ZcqzaJk6zih3TdKMiYLWiZeA1hZEXn/66VeYwjBnAolmGMXtxCptAHhZYYpdjmuWYc5aqnX84/+cmBcpxrnbw1Ot5nfw5uYJ3ZdHLy0s5+MuFn/Uice4I9+TP+ElDv1iqmfxRLEp9zf05u6Chg9FGwrdeG6WdKp+8qZclXVG2EfLKQDnkY5t6OT0e8+LxOp6s0co1dvnOBkt7PGwDRlD9X4GTdqcMY0b204ZhzDa+vON5ib3v8fAVFf6VQL9dlXcnxnKepPorSWpnUhQ5J8tT06QqhVxATyEkEChG0ulUB95nlRi6C8Els2og0JUPKeUcilzwl4lAo50y3kxJL5Jo76HaTKm3U4Qsgl1tpjRiT+JhvJnQiNPsz2Qyiq0XiPmUX8t539cFE79c8FmMq8erknroLQZ8bFMPn7ypj/5SiPeKCCQKPzswzlPPn+XkWJt8KFNvDa75+M54GeXfisg3Q5HWHz96p0WiDWMasQi0YcxOnIhsUtV/APTZ5XgHYtEx5/MDtao6FQ0Wl1VYyF6vK/nAUSkE9BUDKvmQrkJATyGgGDlKOUcYCLnAUYoCnINcIBRzjkAEVShEQjG8VKCdKGHgEHFX+JyeJFH8RRKfqtKIPe0kE7JUodH2xKkn9VkaQZx6Womn1k5pJcp4M2W8lTLeTBhvecabKbXYZ9fBZxsHVc1SRzi3qZBOFN1SQq4eQQidMtJI+O4bY3TlAj6yqYeuyOEVIgd3rCpzdLTN3706QjNOCZxMQyr01HjfCPw26GmFn315x/PJ/9ck2jBMoA1jofDFHc9LCr1e9eNkTRPMaa5KmM/J8vmpFyJZi2YnoCp05RxLKjm6iwEDpZCBckhXIaSS78hyJBSi7J+LkSMKJBOfy0QO9YIcD70go+Lcb+poqvorClA+kssKWlfecWGUWC77fSepJ/bQjDORrrdTmonSjJWJVsJ4K+HsRMJII2GsmXJ2ImG8lZKkitdzKSHauXiTf43rHICz6PRl7lvn2kQORutZOkc5crx3bYVi5LK3ErmA96/rZu/ZJi+dqHU2LdNm9DngQ8Cwqp6KRffyJkdTDcO4NptXwzBmgzxv3yUKgcJ7UtX/ReG91jTlysJ8xVlNs8hyORewtDvHkkrI4q6I3lI4lWpRigK68o5yLiAXuvM6zOm5XOiLDg3O1klczkt+vlCyBa9KO/HUWlk0uhF7qi1PvZUyVk84Nd5mqJ4wXM8kuxGn5y7i1I8X/Y2WW30B3itxqmwYLPLQXQNsWVYm6NyLtocf7x/jv7wwxKnxNrkwe2MxDe2+J+/YGeD/rOh/yImr/qdH7zKJNoxpwCLQhjHbxBD6OtHnTZg8XyAH6IUpGW4yBQPoygcsroQsrUQs647oLUZ0F0K6iwHd+YBK3pHPBVlzjKnogXYO5ylpqnP2uqhecJEuvmrknZAvhfQL6GTihkKceiaaKRPtlHrbM9HyDNViTk20OT2ecLLaZqSe0PaaRfg712rq0OSUUi9soxaBMBAODDf565dHqOQD1i0qgio5J9yxosz+s02+tzchSf3UmJ2OzRSwSNFHBN4A/h5o2+xhGCbQhjHPF2Jxqnqjh18H+hZ6lE87aRGTEWAnWa1dlUyYV/fmWNaTY2VPjsFKjkrB0Z3PcpfzUXAugKoXVq64pCzcPMdPmfaFgp1zwkBXyADRlIGl6WTah2eskTLWTBiqxRyvxhwdaXGyGlOPfZZLPfmHS3aU0S1QkRYRAoEk9bx8os43Xx7hc7c5VvblEJSeYsD71nax50yDvWeb5AKmM51DgM0Kv+3h8Bd37HrpPz16lzVZMQwTaMOYv7TRfkE/gbARFl70WS/Ixz0nZqqQCx0renKsHSiwtJJjSXdEfzGgpxjSWwzJR27yD5kqJ2bvrt9qgzKZmn3uSjmgpxDSU4CVPYJHabRTRpspI/WU0XrKyWqLA8NNjo61GaolxOnkRiez9MkW2LLAkqcDJ3iF54/VKEaOX93cz/KeHA5Y2Zvn1mUlTlTbNGJPNFkPcXocOofyvlT1cyl65KEdvxj580ffY4+DYZhAG8b846HtOwNVblP4TYGehaRxk81GJsNyIhA6obsYsXEwz7r+AgNdEQPlkEXliEohIBe4C9MwvPnBNZPq84pPC1CKAkq5gGXdWfpHMy4xXIsZbqSM1BOOjbY4PNLm0HCLsWaCcGGdaifnDt3NZ0QER1Y95Yf7qyRe+fXN/azqy1MpBNy9qosXj9XYd7ZJFEzftei8eFmk6G+C/hyVbwOxjW7DMIE2jHnFth3PiqpfiroHgfXM82pik9Urpio/dL7hQuQY7IpYvyjPxsVFBsoRS7pCBsoRUeg6YqDgz1XdMKZfqM/9Q0eoQ0e5L8+qPodXpd5KGG6knKklHBttcnCoxcHhJmcnEtqpkvisZN75DWjma3BaRAiAdqr85MA4AJ+7Y5Bl3XmW9uRZ05/nyGgbr1yxuc61+Rw4kE0o/wjlNeCAjWbDuLYbVcMwriMPb98pis8pfBqVfw9y83wrx6sXWtiUlHnN6ikvreS4ZWmRNQMFBsohg10Ri8phVj95UpixmlyzFSegnXrYzThlqJZwth5zejzmwNkmr59ucnqijfdMFZ2W80xvXi5EColXyjnHhzZ0c/+NfXQXQv7+1WH+5pUR6u2UMHAz8ewdAf5nRJ7688fumrDRahgm0IYxXwTaqXIj6L9D+DWQ/HyT56kDZwriIHLC0u4cty4tsqa/wGBXyNLuHD3FENd5DX7dS8fplWdNudYzqV7mX3VuztyTkWVFiFPPaD3h9ETCyWoWlc5kOqad+CmNdp186fm2IE02renKB6wbyLO0O8fBoRYHhpokqtNWjeOi5y8GvoPwb5y4XX/26J12oNAwTKANY+6zbfuuCqq/DfzvEQbnkzykHjyZKORDx6JyyKbBAhsWF1nWnWd5T0RPIeiIRNYt73pKs1yFGV9Yvi1LKUknc7jf4d8ZSFbB4vxqdJcvc62XbE7Q2TubC1nHRwXS1DPWTDlZTTg82mTf2QZ7zmRpHkmnTJ4gBG5+HT6cLP3nNetIOZm+NFMbhs7wOAt8Q4T/q8ON/Kl1KDSMd43lQBvGdeSh7c+Jqm4CHgAWzXVtmIy4+U4lDETozgfcOFjkpqUlVvXlWFqJGChHU+kZU7WFp9EeJk3lwqYjctnffH56iZ/8fFNiLzTjlInOQbms5TZZy+x2+rZKk03+PfnA0V0MyHcabAAUc45iLjzXEdB1orR0ftROLWt3ZWu7tD70zIt2VuUj+8sDEfpLIX2liHUDOW5bXuJENWbfmSZ7TjfYd7bJRDvFpyCinbbXcz9XWgQCsnrl2SYhuwkz9W11/p4+4NMof63oz7FsKMMwgTaMucojO3ZKqroc9BGQu+bywcFJcdbJaLNzrOjNc9vyEusWFVjRk2OwKyIXOWSyFvO1PAR4mWZ550sz5zUZTMki42lHjFOFdpJSaybU4yxK2k6V8WbW7jpOlbFm1hpbgDjxNOJ0qnmIV6UVK+132IglcEIhFMKgE89WyAWOfOSm6gv3FAJKeUc+cFQKAfkwq3ddKQR05QNyUUAg2Z/lJiPacuEeQd/sms3AyNPz/q8QOVbkcizrznPT4iJnbqhwbKzFyydqvHqqwZnxuBPV106Efo7Xl76gec91IQBuBLYpfi9Zt0LDMN795tQwjJnkizt2SYoWverngP8JZP1cFefEnwvz9hYDtiwvsXGwyNr+Ait6c3QVgizVwSvXtNKcTrnJBZY8WdrOA7GHOD0nySO1NuOtlJFa1iBktJEy2khoJkor8cSp0ow9ic/+vZVkr96bsSfuJHFPliq7nBy9k2ipqnQi8HretyadHPBsQ1IIHblAMtmOhLAj3bnQUYgyse4pZi3Ku/MhfaWQnmJAXzmiEAUETogCCIUsRQK59GDneWUEZxInWZqHVxipxZyoxuw50+DFYzUOjbSZaCWd1tfZBmGh1Za+xk/sa6B/gMh3geSpR++2SLRhvEMsAm0Y10U8ccBNinweWCVz4jOfq5zgyaK3kB0IXFyJuHlpiRuXlFg/kGdRV0Q+dIgqmnYOEF7LXX9HuiYFMPVZxYNUoZWkjNYTqs2EM7WEU9WY8ZbvdNdLaCVKveVpxJ5G4qm3fUd+5aL8Zp2StdAJYXC+pMs0xCLkMvuD7Oe8Ks0ki9iPt879nnNlAKEQCoUoE+pS5ChEAeV8QCkSeksRi8oBfcUshWJRV0QpFxC4TKqdgHMyFSGeyQOcXoE0izT3l0L6yhE39Oe5eWmJY6NtXjpe4+UTdarNlNQD4gk6mxYFE+q3N8ZWgnwWeBn0mF0Pw7hWM7ZhGDPCtu3PLUXljxSeQKjMFYGePCznBPKhY3lPxD2ru9g0WGR5T47uYkjoBN5tF8DzcpdlsuxZR25TD7FCnCqt2DPWjDlVTTje6Yo30oiptz3N2FNr+ylpTr1ORYgnpevizAC54kR5fVMI9Ao54ucHjCelVzu/X1WmLmQxcpRzjkLOUQqztI/+cshgV8hAKWJRV8hgJUcxFxA5IXQQusltRPYH68V1BKfxekyWxUtT5Uwt5vBIiz2nmuw6PsHJsZjUe1SzA4fO2TL29vbuvIjI7zv4UYT4/2gHCg3jHWERaMOYYb6wfWc+Rj+u6G8IMgfkWUnSLArqRCjnHDctLnLXqi5u6M+zui9HKRd0Dtvp1KGxd7Wz78ibTOYYp0o7gUY75cxEm+NjMYeGm5yaiGnGnolWylgzpdb2xInHdXKBsy/BiRCEc1e0rhRlvUD+5XK/kqVqxKky3Ejx9QTvlaRTf7ucCyjnXPZjPmBxV8iy7ojl3TmW9eTpKkTkQsgHmVSjnUoh09zEZrKLoRNY1pNjeU+eW5aWuGNVmddPN/jlsQkODLWyjVGqWc63ifRVDSVglah+SuBlRIbskhiGCbRhzGoe2b5LHDiP3irII8gsTd04Lzc2Pa+iRk8x5OYlRW5eWuSmxSVW9OXJB9lr/zR9dzolck4SVTPBayWeRjvl+GiLI6NtTlTbnJ1IqLZSqs2U4XpMo53J8uShuUCEKOcucYaFrlaTlSACyS5UvnOb6+2UWivFa0zqs8N93QVHTyGku5CleyztDlnRk2N1f4HuYkgUCHnHVA1jnay4Ml0ynSoiSiUfcOuyEmsG8ty6tMhLx+s8e2SC42MxceLxqcd10nDmbXOWa0Mv8EmB/82rDmMVOQzjHe9GDcOYAR5+cqcANyjyLxF9WKFnNj6AkxU1IJPSnmLAzUtK3Lmqi3UDBRZ1heQC967TNM5Pn0gVWqnSiD1nJ2IODbc4NNzk9HjMSOeg33gzpZ36TJSddMqcdWoxC1l1j8k/2LiqnZKefxCzk54zuWlKfSbclYKjpxDQVwoZrEQsrUSs7S+yovPmIRdkefAi59I8ptPIJgW50U45MNLiwNkmu4/X2Xu2Qa3l8czfxizXan8sMIzyfwL+A6JjTz1mhwkN4+1iEWjDmLHtqnSp6q+DPsgslOdzDR/olE4L2by8xNbVXWwYKLCoEmWyqu88TUPOy2lOPDQTpdpIOFlt88bpBodHW4zUEkYaKSONhFbscQ4i53ACxSg4TwPOy2W2cMA7ip/IRQngk7Wm0Sxkrao02p7xVsrBkRY5J3TlA/pKE/SVApZ259g4WOCG/hy9pYhi5MgHWf1mPa8F+7Uep6hSihybl5bZtKjA7SvKvH6qwc8PTbDnTING7FGvWY60baguuusA9Cr6aYS/FnTMrophvONnyTCM6eQLO3aFqfIhVf13wPsQ3HUXZjpRW8mkOfXZhNBdDLljeZHbVpRZt6jI0u6I0Ak+fWcR5yzSnAlV4unUWo45MdrmjTNNDg23qDaTqfQM1U6EWS5semKT1fUbJ5OhamWydnZW3q+UCxgohfSVAga7IjYOFlm3qEBfKavykQ/ONRCZrjSPyTJ4zdhzZLTN7uM1njsywZHhNs0kG9SBTL6psHF03p09BPwuot8CsZJ2hvE2sQi0YUwj23bskgCcKrcq+oQKdwrXX54nbcijeJ91fusuhKxblOee1RW2LC8z2BXhBPD6tnOcJyPNqpB4Tz1OGZqIOTDU4o3TDU6Ox4w1U4ZqMbVW2sljFnId0xHNaiFb8HCWRFkmb4RC4DTLpUZIvHJ8rM2RkaxN9UsnGgyUQvpLIWsHCty4uMCSnjxdOUc+7ESmr7FMT5bBywXC+k7TnluWlnj9dIPnDk9wYKhJK9FMpKe+IQMYAD4I8hxw2i6HYZhAG8asQYFEWSPoP1H4DFCcFZ9rqn22UIyEDYsK3Lu2wobBIit6clnE2Svqz7eoqxRnyCLNScpYPeHAUJNXT9Y5NNJiqJ4yXItpp0rohFwoWQWPy1ibec4slOmLcmUCgSDMorpeYagWc6raBoQXj9dZXAkZ7Mpx85Iity4r0luKKEdZZHry+bhWMq2afYhiKNy4pMQNA3luXFJk5+EJnj86wfFqTJwortNIZqFvzhQpgd4r8OdknQktAm0Ybze4YBjGtefh7bvEo30KXxH4Q4HF19vmNctMzdpFh8LK3jz3rOri9hVlVvXlyIUuE2d9m5OIZPmyrRQmmimHRprsPtGR5lrC0ERMPfZZQxJ3ce6tvVafF0J2rlc3AKlXYq84cQyUQhZXIga7Qm5dVuKmxSV6SgGFUDrRbK55isdkWbtqI+XISIufHKzy3JEaY80U9FxdcVmgu7VOUs4BEf5H4C+ApqVxGMbVYxFow5gGHtnxvKhqSZTPAF9CGLzecqOdqgtRICypRNy5oos7VpZZM5CnlAtA316qxqQEt1JlouU5VW3x6sk6b5xpcraWcKYWU2v5rNudE0qRO9f4w3Iz5h2XRKc7912B0UY2HkInvH66waJylRv68ty0pMjaRQUqhZBSeG5jdS1k2ncOunYXA24ullncE3HT0hI7D0/w6sk6o60UUXCiC7LQYec7XgR8EHgGsM6EhmECbRjXj4d3PC+aPVvvU/gqcOP1jHFppySZAr3FgDtWlnnfmgobBgpUimHWFOMqq2p0KoihHXEerae8erLGi8drHB3r1GluJogIUSAUIrlATkybF5JQn6uQEgYQBllO/JmJmONjbfaebfL8sRorenNsWFTgtuVllvfkKEaOwHU2fddMpJVF5YgPrA3ZOFjg+SMT/OjAOIeHs2YsgSjiFqRGd6HchjAgiAm0YZhAG8b14ZHtOwXVIIXbQX8P4S46Z5euhzhPpmtEobCmL8+H1vewZUWZJZWQQIT0asV5MrdZoRV7TlXbvHCsxhunmx1xjolTTxgIhciZKhtXHEdR4IhcJrYnq21OjcfsOdNk19EaGxcV2LysxLrBIt35gLBT6PtaiLR2Wrkvq+To2djD6r48zx6e4GeHJhipJziv57WOXzi3BFgiKksFdgOpjVLDMIE2jOtBALoJ9J+B/ApQuB7LsWpWXcM5WNod8Z4bKrznhgore/PkwsxIrkqeOx++7WGilXLwbJMXjtbYP9zgRDVmvOlBsgOB+chlZfHU/Nm4WpnOBspEM2W0nnB4uMUvj9VZ2ZfjzhVlblxcpL8rojBVh+7dPhdZCb5iGHDzsjIrevJsGCzw0wPjvH66wXjL49CsTM5CEWmlD/QWDz8FqjYyDcME2jBmlId27HSp6hqBfyrw60DheojzZNS5lHPcuqzIh9f3cOOSEpVCcNVNUCa7yrVTZayR8tqpOs8fmeDgcIvT4zHNVImCrIrGBbZs4mxclT1f2GB9MsUjVTgy2uLoWIu9Zxosq+S4bUWZ21eUWVSJKEdZQ5132+3QZ4cC6C0F3Lu2mxv6Cjx3eIIf7q9yYqxNCjh0QUSjFSoKtwMVE2jDeFvTmGEY75ZtO3aKKktBfwf4bWDZTGdUTrbgVmBlb46PrO/hrpVllnZHOCdX9Rp8Msc59spwLeH5ozVePFHj2GibMxMxiVecm+wCY6XAjGsuc1lOPp36zqr0lEKWdJq03Lumwuq+XKd1uFyTumuTY7jW8rx6us733qjy6sk6jdgj7pzoz9ex3pkXfuJEHhN4408fu8sqcRjGVWARaMN49/LsgMUCj4F8GVgy09qRdYeDSj5g8/ISH1rfzU2Li5Ty7qoOY03KQT1Wzo63eelEnZdO1Dky0mK4nqCapYOETqzsnDFtnF+hJUBBhGojS+84OtritdMNNgxkedIblxSp5AOCd5kjPfnfduUdd6zoYrArxy+PTfDDfVWOjrbxKMF87hWfZccMAiuAfUBiI9EwrnK+MgzjXcnzMpR/BHwFWD2Tz5WqknRSMlb25vjYxl62ru5icaeL4NWIswCNRDk+1uK5wzV2n6hzarzNaDNBOm21xULNxnXGd+pKF0LHoq6Qm5YUee/qCusGi1TyLhuj16DLoYjQaKe8crrOd18f4+WTDRqxx0nWlnxePgrKKYF/D/wxMPpnj2+1KLRhvAUWgTaMdyPPyjLgceDLwKqZkucsqqx4VYqhY8uKMh/e2MMtSwqUcwHev7k8nxNnz8lqzC8OT/DS8Ronqm2qDU8gEAbOdtjGrME5ISdCqsrxsZihWsLeM002Dha5e3UXmxYXKUWOQDrpH+9iU1qMXJZ3XY74xaEJfnygyqlqjNfsgOF821BmedB6G9AHjGFdCQ3DBNowplGel5JFnR8HlkMnNXja5flcrvOK3jwfXt/NPTdUWFyJMnnwby7OkNVwPlON+dmhcV44VuN4NWailRIIRJ2ieybPxmxDBFAhdNmbl8MjWRm8N043uHFxkdtXlNm0pER3weF456kdCgQIN/Tl6S+FrB3I8+3Xxnj9dINm4hEUN78kuoiwBXQAOGgjzTDemsAugWG8A3nOhPlRsgODMxZ59p2UjULo2LysxK9u7ud9aysMlMOsypdeWTycE9opHB9v87MD4/zda6PsPFzj2Fib1Gel6FwnXcNSNozZLNGS/R9OBK/KaCPl2FibfWebnBqPKUeOYi4gH0qWyvQu/r585FhcybGqL08hcpyZyDabAG6etAHvZKY0BX4usG/30/8fqwdtGCbQhnEN5Xn7TunI81c6Aj0j8qyqpAqJV3qLIR/e0MNnbu3jxiVFiqG7cqStI84eGGum/OzAOH/zygjPHa5xZKRFO1UCl0mGHQ405pT0ca59uOukbYw3U05U2xwYbjFSSyhGjq5iSBS8i5dDmr1a6i2FrOzN0VcMGarHjDUTvE4KPcx5k1ZSkAPgfrn5gSeau//yGzbIDMME2jDePV/Y8Xzg0ZVkUeevACuZibSNjjwLsGGwyK9v7udDG7pZ0Zsj4DKlvFSnQkoAo82UF47U+KuXR/jxgTEODrVoxIpznch0J+Js8mzMSZGe6h4oBAKph6F6wtGRFm+caVJve4q5gGIuIBe8u1FezDmW9+ZZ2VcgTpWhekIz0Xki0RKBjCH8GGFk99Mm0IbxZlgOtGFcBV/cvitIVW8Cvgr8Q2DpTIizB1KvlHMBt68o84mbetk4WCAXyBVzncU5RKAee/afbfLTA1VePF7j5HgMmnV/k3ny6tkwzhdpyGqU50RoJsqeM01Oj8c8f3SCD67vZuvqCr3FsHPQ8O0ndqiHfCBsXlZmoByytDviB3urnK3FhCI4N4fbcAo5YB1ovwj7bUQZxptjEWjDeAs+v31XqOhmD3+g8FsCi6fdncleSXtV+ksRH9/Uwydv7mXdogKhXL4pSpbnDInCibGYH+wd5W9fHWH3iTqjDU/ohDDo5DebPBvz1qSzLydZ3fJWopyZiDk62ubEWBsBKsWAQhScK/X4Nr1XUCqFkJU9efpKIWONhNFGQuplSuTn6DGCROE5Ffa8/PQ3LA/aMEygDeOdsW3Hs3lwd3v4l6CfBXqnM9khE2PtdGGDtQOFLGVjfQ+LK9EVKwuIgCKcrSf8/OA433xlmF8cmuBkNcYDoctSNax1oLGQTFoky48OnDDR8hwbbXNgqMlYM6W7kKV1RE7O7Vq5SpHupFQVc44VvQVW9eaZaKWcmUiI/flpJXMLzZzgCMiul5/+Rt3GkGFcGUvhMIzLifOTOwXxXcAHfdae+35BCtO/JCpxquRDx81Livzq5n5uWVIkF2YpG3rxIu6yhboeew4ONfjRvjFeOFbj7EQCIkSBM2c2FrZGdx6A0GVvdI6NtRlujHFgqMk9q7u4e3UXg53GQ/5qo9Gdyh7qIefg5qUlirmQvtIwPz80zkg9JQqYi6XuyiCbQ+gBztjoMYwrYxFow7iIL+7Y6RT6UH4T5J8D9wKF6T1ml0WdE6/0FAPev7abX908wI1LSkTu0sYQArggq65xohrzgz1ZusZLJ+qMtzyBEwKHlaMzjCmRzsrOBQHEqef0RMyh4RZnJmLyoaNSDMmF7h09M6LQU4xY3Z+nK+c4PZEw1kiz53TyL587l6kdIt++5bNfPW6VOAzDBNowropHduwMQTcqfBnkayBbEKJMWqdpEexU2Ui9srQ7x6dv6eMTN/Wxsi932ZSNTsEBxlspLx2v89cvj/DjA1WOV9uAZIcExeTZMC7Vw+wHJ1nN83rbc3S0zYGhFhPNlEohpKsQEL7d4tGd1KuufMCK3gJ9xYChWsJII80C2jKN88e1vjyK9/CCwhsv/+U3Yhs0hmECbRhvyrYdz+U8crsq/wL4AiKrshKzMm2LX9aSO/vn1f15HtjSzwfX99BfCsFfuoaLQKpweKTFt18f5VuvjfHaqQbtRMkFjsB17NpOCRrGm2hi9kw7ycpADtUSDo20OFmNKYZCTzEgHwZX/xjJuec5HzqW9+YY7IqYaHrO1hKSVHFzZFOrgkM4gfDcy09/Y8LGi2G86WNvGAuTh7LGKIJojyjvV+QJ4OOgpWmNGKmiQOKz3Mxbl5a4/6Zebltephg51OsF8iydgNh40/PKyRrf3TPGnjMN6q2snrMTsVxnw3hHzyIoSto5/Le8J8c9q7t435oKK3vzl02heismq+HsO93kr3YP8/yxGkmqcyWtKgW+IyJ/KMgrf/ronWqDxDAuxSLQxoJm8wNfC0DXAF8W+F3gXpDidL9wVbKUjULouG1Fmc/dvojNy0rkgvNK1HUOM2WLsXJ4pM3fvTLCt18fY+/ZJkmqRIF0GqKYPRvGO6ITGZ4sxjHaSDjcKXkXBUJ3MaSQc29rPlDNyuj1lSNW9OYBOFuLqcW+E4nu/MWzEydIW0SeBQ5uefBr/qWnv27jxDAuwqpwGAuSh5/cKQgFhZs0a47yGyCLZ2JJU80qbXTlA+5dW+HjN/aydqCAqKL+3LoqnRNIE23llRN1vrtnlJdP1GnGnjCQuXjC3zBmsUhnEh05oRGnvHAsaz703qEKH1zfzfK+XFbJw1/lc+5BRFnTn+fXN/dTCB3f3zPGaCOZOqcwW1G0T5VbgZ+gjNrgMAwTaGOB8/kdu0Q8EqOLUT4totuAewUqM2DOWdpGmlXa+OC6bj55Sx9LK7ns1/RCefbAybGYn+wb4ycHxzlRjdFOJ0HDMKaPoJMbfXyszbdeH+XQSItP3NTDTYuLdOWCqztfKGTpIV4Z7Ir41C19dOcD/v61EU6Nx0QOxM3OZ1mVHtDbgT5QE2jDuNw8YZfAWCg8vP05AYoislHhceB3RbhTkMJMvE71ZGXqFlciPn1zHx+/qZfFXTnU61S6hnTkuR57XjvV4K93j/DjA+OcrSVZabrO62ZL2TCM6SF7BrMUrtAJ7dRzslPyrhl7eosh5UKAc1xdpY6OSJdyASt6chQix6nxmPG2n9otz8KnORLRWIQfiHB899PfsDxowzCBNhYiD23fKaoMINzv4feB30JYLp0yrdONqpJOyvMtfXxkUw/9xegSeQYYaab87OA433x5mJeO12mnnigU6yRoGDNq0tnz5lwmuMO1hCOjbUbqCX2lkJ5iSPBWz+P5v6yQjxwrevMsKoecnogZqiWzsvV357N4EZ4X4dXd1tbbMC7BUjiMeSzNzwmKCFJSWAPyCOhnFTYi5GZkvdKsQYpXZUVPjk/d3Mu9a7up5EP85NF+yQ4cJR6OjbZ4Zn+Vnx0cn1pcA+esXI5hXFehFHIh1NueZw9PcLrW5qPre7hrdRe9xejSYu1XwHulGAlbV3cB8PRLwxwcbgE6G98q9SvcBfK3wFkbBYZhAm0sBHnesUucaujRFaCfBPkc8D6QHpnB4++erG7zuoECv7a5j62ruihGLpPnycizQD3JUja+8/oou082qLfSqVxnk2fDuM4C3fn/wCmxV14/1WRoIuH4WMyHN/WyvCcilKvzaO8h54S7VnURBcJ/e2mYPWeaoDqVOjJLvusiymZB+k2gDeNK84JhzBP+0fbniVGXCN1O9Rav+mXgV0BWkqUQzxhelcQrq/vy/IPbB7hrdRf5QC44xS8CY62UnYcn+O+vj3JwqIXCVK6zYRizj8lKOuVcwJZlJT55Sy83Li6Sc3LVNaOdQOyV54/V+N9eOMvBoRZhJ11kFj37rwjyu8AP/+yxuyyNwzDOwyLQxrxg247nBIWW+oITbkD5DQ+/jrAFKM/kcqSdahtpR55/4/Z+7l6dRZvOl2cFTo63+f6eKj/aV+VMLSEQk2fDmO2ICFEAjTjl2SPjnK3HfPqWPrau7KKUc1cXidbskOIdK8qoh6dfGuqkc8ymnQKDir5X4SVgyO68YZzDDhEa84LND34lD7IG5FMKf4Twm8AGQfIz/VJUO9kZk625715VySLPkynPkrX62numxdMvDfOzQ+OMNhJCNxkit66ChjHrJZrJja4wVE84PNJGFfrLEaW30XglcMJgV0R/KeTkeMxII8mKe8yCdA5Fcwh1RH625cHfGdptDVUMYwqLQBtzmkd2PO+8+l7U3wM8CtyjsFqu09hWn7UEvqE/xwNbBti6qot82Ik8y+RrW3j5ZI2/2j3MKycbeK/Zq1uxnGfDmDsGLVNlJ1E4UW3zzVeGGarF3H9jL6v68lkFO33rDXcuFG5b0YUCf/HiEPvOtgicXn+JFiJgPcgyVPeQ7f0Nw7C12pirbNvxvANfEZVbFX0Q9BPATSCF6/KBOtU2kk61jSxto0IxPPc6V5xQa6U8d3iCv391hIPDWb6zE4s4G8ZcR1VJVSl18qI/c0s/6wcLRMJV5UWLQCtRnj86wV+8NMyh4VZWhed6Tw6qJ4D/C/AfcK721KN3WU1ow8Ai0MacE+ddDrQX9auBBxX9NWADSPf13BAq2SI52bb3ntVdFDryLICKcLYW8/03xvjeniqnJ9pETrLF0eTZMOYFgchUqbvhWsKvbu7jjhVdFMO3PlyoCvmgU50jdPzFi0PsPdPEq3ZqwF+3uW0Q4WMgfyWw3+6yYZhAG3OIL+zYJTFaUnQD8GsCHwM2A4NcZwWdrLaxvDvHA5v7uet8eZZMnk+MtfnenjF+uHeMkXpWos5Z2Nkw5g2TKVhBZ0547XSD2vMptZbn3rUVyvkAn+pbbsRzgXDb8jLeK//5hSEOTdaJvk5nI0QkBNZmaRwc4Or6LxqGCbRhXE++uGOXJF4LXnWlwKcUPgfcCvRf9/E7VW0DFpUjPnVTL1tXd1GIHOozq/fA4aEWf7V7mF8em2Ci7QkCsNYohjFfRRoCBAng6Eib//bSMNVmyn3ruxnsitDJU8ZXnlaIHNyxsoyq8vSLw+w/T6Kvz1zHEtCtCC8AE3aXDcME2pilPPzkThEoemWZwscVHgBuA5bKLBm3SpbzPFCK+ORNvbx3bZbz7P25ShtvnGrwNy+P8MvjdeLUZ1U2LPJsGPPcokEQwgDOTMR869URqo2ET97cx9LuHCL6pocLVbNI9O0ryrRiz399cZhj1Tah43q9uRoAPibIN4G9doMNw8rYGbOQbU/uDIHlCp9R4R8DDyncidAr4GbFh+ykbfQWQz59Sx8f3tBDXzHM0jackHjl1ZMN/uLFYV48XiNNFdeptGH6bBgLwqGnnvda7DlejZlopSyu5OkpRtkWvNON9EoSHQbCYFeOKHAcH8v+eyeTe3CZyW9GEFJBfrL5wScO7X7665bGYSx4LAJtzB5x3v5chMoAcA/wm8B9wEqE3Gw5apdFjTqn7SPH+9dW+OD6bvqKAXTkuRl7njs8wX9/fYQ9Z5qdhgnYYUHDWKAiHTqhFnt+enCCRlv57JZ+1i4q4CSr3vFm8005F/CBdd2kqvzV7mGG6gk5d13yoZcqeq8qLwDDdmcNe7YN47qL865AVXsRvUNUfgP4CLAeIT/bPqtqVue5kBPev6bCZ7cMsLQ7h3ZOytfbnp8fHOcvdw9zbKyFE+lEjOxRM4yFzOTcEQjcvrLMZ27t46YlRSJ56wodzgnD9ZS/eXmI7++tMt5MCVwWGJ6pVVwhAb6D8i8FXnzq8a0WhTYWNJbCYVxXHtqxswLcDDwM/I4I9yOyEpl9b0eULCLknHDbshK/trmfVX0F8Io4YbyZ8otDE/zNKyMcHW3hnHRqPJs8G8ZCRzr13lPgzETC6YmYvmLIYCUkEHnT0haqUMg5lnTnaMaeI6Mt4nRma8h3+kCJwB7g9c0PPJHu/stv2I01FiyWwmHMOA8/uVOAkhNZmap+WuGzwC0gg8yWHOfLrGDayVe8dVmRB7YMcEN/gcladUO1mO++PsYP91c5MxETiOU7G4ZxqUQHAqlXXj1Zp50qcdrHnasqb91wRZUllYiPbephuBaz61gN7zWLgs3cJn058ClEvgscsTtqmEAbxgyxbcezkfe6QuBjqfIgwt3AEpFZKs6TaxfgvXLDQJ5fuamPjYuLOLIydqcmYr77+gjf31vt1Hi2QhuGYVxBosnSOLwKe880+YsXhxFx3LGyTOTA+ytPQqrKqr48v7Z5gFaqvHS8jtcsNDxDFBFuB10vwjGstbdhAm0Y0y3Ouxz4XtDbEL6E8hGFVUA4211TVUk8LOnO8emb+9m8rJTZvghnJtp867VRntk7xngzJQqcybNhGG9h0dnZCPXKvjMt/uLFYRC4Y3mJyL15TrQDNiwu8plb+6g2U/YPNQl1RsvbrQTud/A8MGo301jIm2HDmBYe2v6soCKClFTYBDwg6Kc0a4RSnhx+s3kQTh786SkGfOaWPj52Yy/deYcinJmI+ftXR/jB3irVZkro7LCgYRhvZ37JuhZ6YN1Agd+4rZ/bV5TJB28u0SIQe+XH+6r8l18OcXI8JhfMzHmLTibbMxH8U1F56T8+fpe3O2ksRCwCbUwnEbAa+AjKbyFsBemXObJxU4VUIR8K967t5oMbeuguBKgqJ8fb/PfXRvn+nioTrY48237UMIy3gUwWtlfYd6bJf/3lEIlXtq7qurJEa6fRinPcc0OFkXrK3746wlgzJXQ6UxK9KVE+HqCHgRG7k8ZCxKpwGNecL+54Xm5+8KsV0PcB/wTki2SNUMpzRZ7pRIYAblla4rO39rO8N4cAp8YTvvXqKM/sqzLeTAgDly1a5s+GYbxtie5U6wFGGymnJxL6SyGLKxFhIJd2LJSpKYpc5OgvR4w3U46NtUnSrErQtH7e7IeCCjknPH/XA187+UtrrGIsxGfXLoFxrdi2fZc4tCDIxlT0k6r6W8BmkNJcG2heFe9hw2CB37xjgNtXdOEETo/H/N0rw3xvb5V6yxMGlrZhGMY12bOjXvEKNwzkeWBLP/es7iL3JjnRAuCEQ8Mt/vMLZ3nu8AQAwTRLdOfjnHbw/3DI/z0nMr7j0TtNoo0FhUWgjWsjzzueD4FloB/36B8p8hDIeiA315IbsrxnZbAr4rOb+7lrVYUwEI6PtvnWayM8sy9L24iCzvdlAm0YxrtEzvtxqJZwcrzN0krEYCX3piWKBOgpBVRyjqNjbYbrCY4ZaPetFIGyCD8SOGNRaMME2jDeJg8/ubMIbAb9KvDbCu8F6cqK7s+xzOBO3nMxcnxwQw8f3dhLVyHg7ETM3706wg/2jjHR9pk8i5g8G4Zx7ST6vPrxI42EiZYy2JWjvxS+aak6AXpLEaGDIyNtqi2Pm8ZzGR03FxGKqpwUePHFv/xG2+6gsRA3vYbxtti2fZcAIcoi0PtV+DLwHoHK3P2usoobTuC25WW2bR1kzUCB8VbC914f4y93DzPaTMg56y5oGMY0zkSdyhyhCDcvK/EbWwbYtLiQlb67UjqHg9F6yt+9OsLfvzZKvZ2V1ZzmeINH+XEg/FMv8tJTj95ldaGNBYNFoI23L89P7hREuoA7gCeAJxDuAApzWSt9J/q8vpN/uHFxiVoz5Sf7q3zz5RGGGgmRsw6DhmFML5NzTKrZuYuJZsqynhy9pejKL70UirmARV05hiZijo21s0apTOs5DUHoUhhRkZdffvrrdbt7hgm0YVyGL27fJR56FD6N8Ici/CrCMpnRZljXHlVI0qze86du7uXu1RUU5dnD4/z1yyOcGGuTC9zUaXnDMIyZkGivMFSPUYWVfXnKeTd1iu9igRaBcsFRzgccGm5ytpYQTOMbs86fmgeKgvxyy4NfO7rbcqENE2jDOMc/3LFTbnvgq3mUTQqPA/8E2CpCaa5/b6qQeiVwwr1rK9x/Ux/lfMAvj07wX18c5shImzAQnHM2EAzDmFmJFohTODneBlWW9+QpXU6iOzbrgN5SSC50HB5tUW+n0xqF7gRPegWKoM/e/uAT4y89/Q27eca8xxqpGG/Kl3bsEg8Soz0KH0iFJ1T5INA9LzqHqE51A1s7kOdjm3roL0XsO1vnr3cPc2ioSRg4TJ0Nw7guEo0QOGWilfK9PVXKuYBP3NRLOe/wl+kB6DvNn+5YVeboaJvv7xmlESvB9M7WFYVPCPptUffngB0oNOY95gXG1YyRVQIPK/I/KHwCoacTGJkXpJqVrPv4ph5W9xc4Ntrk718ZYc+ZJs5lTQ6s2oZhGNfJoBGBKBBGGjHf2TPKiyfqtFO9Yt6c99BXCPnAum7WLSqigPfTnlmxWJFtCmvsphkL5NE0jEvZtmOngIaobAb9GsinFZbDdAcyZpYk9eQjx8c39fCrty5CgL/aPcQze8eotdNpzR80DMN4O0w2eNq0uMBv3j7A5uXlK0bBRCDxys6jE/zJs2c4WY2JOrP3dMxpk81VBP2/qeiTAXL2Tx+92/KhjXmL5UAbl/DQjp1CltP2EYV/AfyaIINz/aDgJZO9ZmXrNg0WefC2RfQUQ777xgjffmOMiZYnNHk2DGMWISIoMNKIGaunrOjJM9AVIVfQ1NAJPcWQdgJHR9u0Ek8wTW/UJPsqKixBOOKQvS89/Q0ra2fMWyyFw7h0IlQGUR5C+bfA/SCVefUNaibP7VQp5xz3rq2wuBLx8okJfrC3ymg9IXTWotswjFm4aDvwKrx6usGP9lcZqSe4K7wX9ArlXMA9aypsGixM/dw0O8WNqHtcVdY/kvULMIx5iUWgjSke2b4rvO2Br65X+F2Br4DcLEhu/s2AitcsOnPPDRU+fmMvx0bbPP3SEAeGW1nFDZNnwzBmIZPdXdspnK3F5ANhRV+eQugu22RFgK58QDkfsPdMk/FmipPpDBBICCxRJQB+ueXBr9WstJ1hAm3MWx7evitU9E5F/xB4BGQZ8/QNhZLlBq4ZKPC52xcROsfTLw7xyskGqhA4k2fDMGa3RgcOJtqesxMJg10Ry3py2cZfueR0U+igtxjSjJXDIy1aiU6VyLv2nwyAnMAK4DQie3Y//fWm3TNjvmEpHAbbntyZA7Yq/AuF31DoZx4fME09FCPHB9d1s6QS8aP9Y+w+USd5k1PthmEYs0afOxHk0AknqjF/+8oo+840pxKRL8YrlKKA962psGmw2AkkKNMVFpbs/5ap8AXg/V/YsSuyu2bMNywCvbDFWTY/8EQF+ATwrxA+DtI1b3vtdeo9p6psWV7mUzf18sbpBn/76ihjzZTAZbO+ZW8YhjFXRBqUkWZCO/Gs7s9TKYRcyYzLOUcxchwYbjLR8tPd5tsBSwRWKbxy64NPnHz56W9YKocxb7AI9MKmDHwG+B+AjwiU5qs7qmbxlsQr/aWQD6/v5uhom796eYTT47HJs2EYc5JQBJ/CrqM1frivSrWZ4i7zKk3Jzn3ctKzERzb20JV3TH9paPLABz36z1Bd9/D2nRa0M0ygjbnNtid3FoCPAL+HcBfCvH7FJmTNBfKh486VZSqFgP/+xigHh5sEDpyYPBuGMdfmtawkXeBgopXy4/1Vdh+vkahm85leKtFduYD33NDF2oFC1mBFdRo/X+b4IJ8Q5AsoSx9+cqfNtMa8wHaDC0+cZfMDT3QDvwL8C4R7gHmfn6adrzX9Bd6zpotdh2vsOlbrRGXOm+oNwzDmmkh3dv+1tmeskbKyp0B/Obqi1JbyAblA2DfUZKKVds5+TF8QQaCAshqIgTdu+9zv1F96+ut244w5jUWgFxzaBfop4F8C7wVyC+G7TrxSjAJuXFzkyEibF47XSLx22iqaPBuGMccX8840tud0g+/uGWG4Hl+2PrQCocCWZWXuWVWhEAWkfvJXps/xyVp8fw34HFCwO2aYQBtzhm07nstzLm3jToRwQWwZVHEiDJQDvMKLx2pUWymBWKdBwzDmByKCE2h75ZfH6rx0vEY70cuGB7xmtaHft6bCqp6IGTnZJziEGxAeV/T9j+zYlbe7ZsxlLIVjAfClHc/LzQ8+UVDVD5JFnt8nIgsi8qyaLRbFnGNVb47DI21OVONs92jybBjGPJToRtszUk9YUskxWIkuGykTEbryASKwf6hJsyPb0xxUEGCxwmqQ01se/Nqx3U9/PbY7Z8xFLAK9ECQSAoG7FfnnwPthYcjz1CCXrLPgyfGYE9U2XtWSNgzDmKeLepbLfGC4xbdfG+Fktc3lkptVlWIobF1d4dalJQI3eaBweuPRmp25+ZCi/0bRTzyy43mLRBsm0MYsFWjV1ar6FeBDiOQWmj2KQCvOOnZ5pdOByxTaMIz5OOFlERPvlVdPNXjuyATNxF/2gKAq9BUD3ntDhd5iiKpMtz9PLj8RsFVV/8DDe02ijbmIpXDMY7bteM7d8uBXlyv6TxQeEaRy3gS2YOR5cqGY/HdzZ+M6bmenxqPXrLRiqp3x2ekil/XGEDvbarxrTW2lSrWZsqInx6Ku6LKdVp0TyvmAkVrKsbE2idepqhzTLNEOWAa6FmF4y4NPHLF0DsME2rjuPLxjpwA9wMMKTwgs7lQNXcDLicmzcX3xHtqpogj5yFGMhEIkRIHgFdqJ4j3nBMY82ngXE54A401P7D1rB7IuhReXfVaFYuQo5x37h1qMNpIs0DAzIy8EbgA2Aoe3PPg7h3Y//fXUbqAxFwjtEsxPFEKUuwUeAlk2vfGEubGgmIgY1+15VCX1WbSvrxiypBKysjdPbzEgdEIj8Zwajzk+1ma0llCLPaDZBG27PuOdTHmSKXDilddONdh9rE5/KUcu4BKJFmBlX5733NDFqfE2E62UKJjecSfn1qoAuFPhD1CdeGTH8z/900fvbNkdNObIPtWYTzy8fZfzcCvo/wT6a4JEdlUM47qYMx5QD4WcY8uyEvet7WbNQJ5SLiB0mR+nmkWmx+opr5ys8fNDExwcadGKfVYtxjaAxjvEe8UrrO7P8fi9S9k0WLhsnrOIcGSsxfafnuSVkw3CybMiMzDwOh8nBn4syP8iyPdEaPzpo3eq3UFjtmIpHPOML27fJV51QOFrCL8FUrKF1zBm2Js78px4CERY2Zvn/ht7+cytfWxaUqJSDMiHjigQQifkQqGYC+gthqzuz7N2oIADTk3EtBI/E+XFjHmLoMB4MyVywtqBPMXIXeZ3QSkK8KrsHWpRb3ucm5lxJ+d8ZCWwCTgmIodeevrrid0/Y7ZiKRzzj0jhHuB+oGJLrmHMvD2rKqkq+dBx85ISn7ixh5uWlejqvD/36WWNG4BcIKwbyNOV7yNF+cGeKu1UcVg2h/EO5FQyM0288vyxCW5eUuDu1RXCi04UqkIuFDYvL/PTQxO83EgvOHw9ExKtmZPcBfpPVRnd9uTOZ4HmU49vtUi0MeuwCPQ84vM7djlF1yv8PnAfQs7WW8OYQXdWJdVMBpb35Pjoph5+9ZZ+blxapBA61F+dB4hAOR/SWwwZbSScGI8BtSi08Q4lOsuHbiVKM1ZWDxToKQSXZmeIUIgcSaocGm5Riz2BzNzO7bzqHCsUbgG8wMHNDzzR3P2X37AbaZhAG9PDrQ88UVT4kgpfROixpdYwZtSeSX0Wdb5zZZnfvH0R963rZqAryqJrbzOGJgq9pZBKPuD4WJuheoJ0mmQYxjvBK4w1UwqhsGYgTz50F9qrQthJJzo21uLUeBtlZtOHOn9TSJbOsVmgChzY/OATjd1Pm0QbJtDGNebhHbuErBTQ7wjcameODGMm3VnxXsmFjvevrfDAbQNsGCyS65Sne6c4gd5ySCNWDg63aMQpTiwf2ngHYtqJQrdTpR57Ng0W6S+Hl/19USAkXtlzNsuFDtzMjrfJkugi9ADrgCbC0c0PPlHb/fQ3LJ3DmBVYJ8L5soCTdoP+Q+Buu6+GMaP2jAL5nOMjG7t5YEs/N/Tns25w73Kp9wr5wPGh9d2874YuosChnRxrw3gHFo0AJ6ttfnKgylgzRdyF5uo7b1FuWVpmbX8eJ50W39dnyDngJoR/AfwByrov7XjeAn/GrMAG4jxg245dIXAn8FWQjVj02TBmaOOakXrlzhVdfHZLP8u789dWNhQKUUBXLuD0RMyZemxVOYx35s9kDVLiVBlrJKwZKDBYyV0ScRGyXOg4Ud4406TR9gTX6xRr5vzdwM3AMkT3bnnwa8MvPf11b3fUuJ5YpHJ+rOJdqNwPcpPdU8OYyWcvOzTYXQi5ZWmRpT35a+4YkyXx1gwUuG9tN4u7IlIPikWhjXfgowKBg5FGwk/2Vxmpx7iLVg31SuSEjYuLrOjJIUJWz/z6vfkQoB94IFH9o1T1rm07doUP73jOdpHGdcMi0HOcz+/YKQprFB4VuNXuqWHM5N4V4lS5cbDIRzb0MFgOmS7HCB0s7cnRTjz7h1tTpe3sVKHx9iU6y3GutT1LuyKW9+RxF+c5dypypKlycKRFreUJg0528nV73rQAbATZJHBU4OSWB76a2OFC43pg0cq5v4LnBX6FLIXDOg4axkw+fpp9rejNsbQnN+1/VzHnuG99N1tXlnFkHQyxfGjjHRCIMFpP+NGBcU5NxJ1MiUl5zqLQhchx26oy6wYKOJHrPtQk+18J+Iii/0eFz6rSs+3JnbaLNEygjavnoSd3CkqF7ODgIrsihjGz8gxZi+6eYkAUTP906lNlUVfE+9d2s7Y/j++0CjeMty2jIqQK+4davH66Tpz6S/Lq1UN/MeTOVWUqxYDY66w4wCoQCHInKr8P8gDQv22HSbRhAm28jfuXoFtVdQsWfTaMmVZoAMqRoysXIDIzlQoccOvyEh+/sZdF5U4+tEWhjbcvoQQOqs2UH+8b5/REfGF2hmTjqhA6blnaxeq+/HmjflaQIwse/Y/AV4Dl23bsNKcxTKCNqwohlBHuV2Gd1X02jOtD6rO23TOm7QqF0HHPmgr3rq1QjBypx1I5jLdt0E4EQTk80uaFYxPU2+ml1V1UGSiH3L68TDmXdSmcNRs2IUTYgPBPgd9T1XX/cPtz5jWGCbRxZR7O0jf6gA1A0a6IYcz0/jUTjbFmynA9wXtmbBvrvdJdCLhvXTc3LSmiiqVyGO+IwAm1dsrOI7UsCn1RjNkrFEPhpiVFBkrReb86qzZsS1G+BHxNYOMXd+ySL+943oJKhgm0cSkKOUFvE2StIFZ5wzCui0RngnF2Ima8kV54EGu65wCvrOzL8+ENPazqz5+XymGRaOPtjWEFDg23eelYnUbsL63IASzpjrh1aZFi6K5nY5UrfhvAUrJqVP/aq96uWTtwwzCBNi6hhPB+4AYsfcMwrtuqHQXC4ZE2+4YaeNHsYZwBuVCFUOD2lV18dEMPPVOHvOy+GG9nDAuBwHgr5acHs4ocFzP5xmPr6i4GK1H2tmVW7gWkH/itFP0/pOrv+sL2nSbRhgm0cY5tO54VnBZB1wBluyKGcf30I3TCqfGY3SfrVJtpVpZ5hra0qlCKhLtvKHP78vNK21kU2njbW0E4UW3zyok6zdjjLsqFdiIs7cmzcXGBXCidcTb7UCgqfDJBf09h8xd27JIvWDqHYQJtdGYIQVkOrMQapxjG9dOOzund1Ht2Hp7gZ/vHqSd+ZnubqLKkO+L+G3u4aUkJ7xVvEm28TX0OBSZaKT8/NMHZWnLJGFavDJRC7l7VRaUQEnudpd+LAJQVPpfCv1bVrR5yj5hEGybQhqqLUNmMygosfcMwrrt9BE4YriV8540xXjzeINGZaxCoCnhYP1ji45t6WdodZakcdmeMtzGGJ/Oej4212XemQSu5sC60KkROuKG/wIqeHE5mb/lEQXBZw5XPpvDvPP4Titphe8ME2uY6ySncpLDYrsblhELPtYizhFBjZvwD54QDw02e2TPGyWobcTN4oLAjN7etKPP+tRVKkSNNrT608faIAmGilbLrSI3hy0WhFXoKAVuWlyiEjnaqs/pFh0Je4aOq/JGqvv+RHbsii0QbJtALmEDIibAMsfJ1VyLxStsrqTm0MSMGnR3EEoQXT9R4Zm+V0UY6oxLtvaenEPChDT1sXdmF61QIMYk2rnptcULqlT1DDfYPN4lTveAVp1clHzpuXFyivxxm44vZK9Gdz54H3q/wrxT9mELpYZNowwR6ga7VaLdAj12JS8MNXrOmFn3FiBU9OfKhy37BXmgbMyDRUSC0Ys8P91V59uA4rUSZMYdWQJXlPXk+tqmH9YNFUkvlMN7OEOpUdhltpPziUI3henLZTeCSSo4ty8qUcm7WH1rtfPoc8GFV/o2iH/Vozu62YQK9AEnwKxXtw/KfL7AHr0o7VQa7cnzq5j4eunOQO5aXCZzM1rJLxrzb3GavwYdqCT89OM7BoQZeZigfulPPV1RZv6jI+27ooq8Ukni1KLRx1QROaCeeN87UOVltZzWfz59pvVLJO25aUqQrH5B6nRPPpUCocI9X/49F9Y4v7dgVPGqRaMMEeqFFCWSVKv325J/Dd94irunP85u3DfDJm3t5z5oKv7q5l/5SSKpWH9eYoZUacE555VSd//76KCfH4plN5VAoRo5711W4b12FYujOa7JiGFch0QJjjZSXjtWotz3OnR+qgDAQbujPs6onR+BkLr3lyAl8FPSfp6q3J6rRl7bvsqXUMIFeOGu0dAti+c9TwpDJ8dqBAg/dNch9GyqUckLgYLCSo68UXrazlmFMy/MpQiiC98rOwxP85MA4tbZeUld3ejfZSn8p5EPre7h1WQmlU9rOHNp46wFMGDhaiWf3yTpnJhKUS08T9hdDbl9ephg5Ej83Blbnuygo/GqC/ssUvRPrWGiYQC8og+5HKLPAUzi0c0BKFfrLIZ+8sYfblpWInMtSNrySdr4MY6Yf0tAJtdjzs4Pj7D42Qaw6w/WhYWV/gQ9t6GFZTz5L5cByoo2rl82zEzFvnO40VnHnBy2glHdsXFKkuxBMzcVziCLwmRT9wxQ2f3n7ruDhHRaJNkygFwJ9WAdCQEk9BIGwdWUXd6zqIh86fEeYFag2UqrNFO9nWF4Msw+B0AlHRlp8941RDg41UZnZ0nahKLctL/GBtRXK+U6k0FI5jKsgdEKtrbx8osZII8lqQp83dESEgXLIuv48USDMlTiFdP4HdAG/nqK/n8B6VN1D23faKmGYQC+A+7bgH3QFVJS1/Tk+vqmHvlI0FQURgVaivHaqzkQrNXk2rtNCnY3TF47X+d6eMUYbyYymE3kPpVzAh9Z38/413eQCZxFo4+oWGSfE3rN/uMWx0RZJqlxU046efMDmZWXyoSOdYxuz7OmUomYS/YSHdbauGibQC8QdF/QF0Cz63F+M+PC6blb05NALSm0Itbbn5RN1GrESmEEb12ORFiF0kKqy68gEuw5N0E51xlt9D1Yi7lvXzbpFBZL0vGZDhvEmBE4Ya6TsPl6n1vYXHIb1ClEorO7P0ZV3nRVpbi1NnRdFfQoPA18QGNj2pEWhDRNoYx6TKhRC4d41Fe5cXSEK3QU+oF45Pd7m6Fib2KsFFozrKtGRE4bqCd95Y5Tdx2ud2rkz5s84YOPiIh9a381gV5hV5bBbY7wFoUC97dl9os7pifZlZlGhvxyxabBIIZqs9jIHH1FYKvAFlG1A38NWmcMwgTbmHZ1mKV6VNf15PrShh0Vd0VTeM4ATqMWeV082mGh73EzV4TWMK020ncoc+4dbPLOvyslqPKN7uslW33ev7uID6yrkI8leuVsU2njz6RYRGK4n7D3d7Lw9kQsCFeWcY+PiYnb+RHWuhioEWAt8Dfg0dsbIMIE25t+ErnivVPIh719XYWVvDi7TJGWsmfLq6TqNdmrpG8bsWKE7w/CXx2v89ECVRuzP5UPPgMeqKt2FgPvWVrh9eQlB8Fgk2nhzQic0Ys+eMw3GW+mFAg3kA8eqvjzdhWDOP6IIGxC+ovD+bdt3WbdCwwTamD94D2HguHVpkduWd2Wnv8+LPgsQp8rhkRYnqjGpt+QNY7YItBAI1Fqenx2a4IVjWSrHTO7vBFjel+eDG3q5oT/fqQ1tpe2MNx+z7UQ5MNxiqJagF0WZRbIyohsW5ckFMqPpSdNADnifR/9I8Xd8ccfzgY0CwwR6frFg1zsPLO/J8fEbe1na3UndOG82FwcTsefFYxOMNZKsdqkZtDHLhOTIaHOqtB0iMzZGVSF0jtuXl/nohh56C2F2RsBSOYw32XYFThitp7x2skY9ThF34WrUWwi4ZWmnGsfcr7ufF/RDwB+k6td/fvsuk2jDBHoeESy8e6fEqZKPhPes7mLdQAEnl9lKqDBcS9h3tkkr8ebOxuybdCUrcLfnTJMf768yUp/Z0nbqlVwAW1d3cfuKrPGQVeUw3sSfCQOhnqS8cbpBtXmZNI7QsbovT6XTVIU53rBHkAIq96fKo4n65du2P2euZJhAzxOXrKO0Fsy3q1nJJK/K6t48d63qoisfZN0Gz/MO56DtPS8dr3F6IsFCz8ZsFZJAoJkoP9pf5Uf7qtTj7LDrTD5T/eWAj27sYfOyEiBWG9O4IoFAkirHx9qcHW9f0phKROgvB6wfKBCFcz6NY5JFwEPAbwHd26xToWECPS84BowsnPVOiROlFDnevzY7OCiil/ttjDVTfnm8Rr2dEjq5IFJiGLPGoTupHKONlB/tr/LqyTo4mdl8aBXWDxb48IZuFldynVQOuzfGZadWnAjjLc+eM00asb+wM6EqxcixdqBA6CRL49C5/owiItwgwpeB+4HIRoJhAj33p7MJ0AUVgXYCa/oL3NLpeqX+ksmOVqrsOV3nRDWeKr9kGLNZop3AkZEWP95X5fhoe8YHbeSEO1Z28f61FYpRlr+apXPY/TEuJHAw0Up59VSDaiu9ZI7OhY4b+vOUIjeVxjEfHEmRmxS+pqq3P7R9Z/DQjudsZTFMoOfuystZhPGFIs+pKn2lgPvWVVjefa5d98UM1RKeOzxBtZEQOZvjjNn+GGcbQwWeP1bjO2+MMdpIZ/StiSqUI8eHN3SzdWUXTrJ0KavLYVxuvMZeOTHeZmgiC1JccIAboa8csaw7Tzi/5t8ccC/o74CuxXIDDRPoOa2Vp4DqQvhOvSqBE25dVmbLiq4rRp/j1PPG6Qavn24Sp8zooSzDeMdS0olC19ueH+0f49lD48R+Zlt9qyqLKxEf39TDxsECWADauOJ4zaLQe85kh7QvnGeVSi5g3UCeYuSyjdg8OJiatfuWEsivk7X77reRYJhAz12OAcPM43UuO9CkpF7pyYdsXdXFonKYTchymUm97XnxeI2xRkpgo9qYY0u0czBaT/npgXH2nW0iM1mVoyMJGxYXO509Q9I0S+UwkTbOH6dZUxXljdMNJlqTI6czjjyUcsK6RQUiJ/h5VtVFYAD4LVH50Be374q+aO2+TaDtEsxFuZSmKkOqpPN3qs5eJTsRbl5SZOPiIlFwaaUt6bxyPjra5o3TDVqpJ7DoszGXxrpkr79F4PXTDb77xihnxuMLa+1O95yiWSmy966p8IF1FUr5gNRjpe2MS8ZpkionqzGjjTjbfp3XTDMKhKU9OXpLITL/Mh0EZKPC4x62eFWrD20Cbcw9g5YE5CjzOo1DSVOlEDnuXNXFQClEVS4zqQv12PPCkQlGGinmzsZclRPXido9f3SCH+2rMt7yM5vK4ZVK3nHf+qy0XeCy0nYm0caF4xQm4pRDw02aicddJMrdhSyNIxfKfHyDESl8OFH9qodVD2/fZQ5lAm3MMbmMQfeBnmWepnFMRp9X9uZY1Z/PFvPLLOSqMFxLePV0g2Zi0WdjDssJ2aHC8Zbnmf1VXjw2QeJn+LnzsKw7x4fXd7O6P0dq+dDGRQROqLc9e043GW9dmK+vCqXIcUN/gVwg827v1flWy8BnFD4NlGxEmEAbcyoKoImIvibC8fkq0IlXKvmA963pYklXeFl5dgLNxPPaqQZnawmu84rRMOb0pCxwfKzND/dWOTzcnPFa5oEIty4v85ENPfQWQ+LUuhQa50uD0IqVo2MtxpsJepFAF0PHyt5cduCb+bpCsQL4vKreve3JnaGNChNoY47w1GP3eEROAUdg/uVBT54TXNWX49ZlZUq54PLrtwhjzYQXjtQYt9J1xrzYHAuuU5lj98k63907xtn6TOdDZ00x7lvXzXtWdxE6IfHm0MbUtAsoo/WEk2Mt0tRfELZwLitn11sMcfPQnyW7Bk5F71L0t4E12yyVwwTamEN4aaLyOjA63761JFVygWPLsjKD5Stv7lOvnBxrc7zaIvY2mI15NDFLJq3PHprgp/ur1OOZLW2HKpViwH3rutm0pDgl1mbRRibJ0IiVIyMt2olessErRo4VvTnCQOZFKbsrUAA+2knl6NpmVTlMoI05Qx34BXAI8PPmu1LwKP3lkFuXl6gUQrzXy07gE+2UF47VGG4khIHlahrzi0BgrJHwzN4qrxyvkerMNSpUBZ/CukUFPrGplxW9EamVtTPO2+DV2yn7h5rUY8+FtUWVcuRY218gCgQ/TwdNli4oSxD+AXA7YKkcJtDGXOCpx7fGIrKXrCb0vJiiFEhUCZ1j87IiiyvRm05f462UvWca1FqeQMR6dxvzbIHOROXAcItvvzHG0ZEWM9kETVWJAuGuGyp8cH0P5ZzrpHKYRtvYhHaqHK+2Gaknl2y+cmF2ADych/WgL7oQAXCPqn4B1aWftyi0CbQxZ4RzBDig0Jgv31DqlVJOuGVpie5CcNlXxlmNaOXYSIuztQRVtaODxjxcnLNc6NAJLx2v8YO9Y4w2khkvbVcKhXvXdnPXyjKhyyrkWCrHgh+aiEAz9hwbbZGkF5ZcdCL0lUJKkUNE5u1wyboUUgTuB+5XKHx+x/O2HJlAG7PfN7Wu8FOyKPS8+I4CJyzvzrGyt0Dg3GVf/4mDeuzZfaLBeNMTBc5eLRvz1lQCB6mHXxye4NnD4zTima8PvaQS8dGNvawfKOC94rGUqQW++BC4LAp9dKxNM7m0Q2wpcqzqm6wHPb/TfxRWqfCbiq5X8yoTaGP28+ePbY0FfiGwl3lQjcN3uqFtWV6ivxS8SZQrq0N6ZLR1Xu1n2/Qb89WhhSCAMxMxP9hb5fVTzRnNK1XNDGHTkhIf2tDDYCUitSj0Qh+VWTm7VDlRjWmlcHEedC4UVvXmyU/Wg57PmRxCBNzthQc92vuIRaFNoI05wVmUN5jjaRyTeZXlnGP9oiLlfID6y6dvJKnn5Fib4U7unaU/G/NfVybzoZv8+GCV0+PxzEahJ/OhV3dx75oKxdBZabsFPiBFsopJp8dj6u30AkFWhVzgWFwJiQJZKONkEOWzKLertfk2gTbmgnnSAr4H7GcOV+NQsleCq3vzLOqKrlg/VJxQa3tePVWn2kwJbQQbC8RYnECaws7DE/xk/zgTM9XqW85JdH8p5CMbe9m8zErb2YjM6lDU4zSrB+3P1YNWhSgUFnVF5ML5n2LXeQfqBLaA/gPFL354x3MW1jGBNmYzTz2+NVaR51V5WZV4rn4f3me1nzcvKzJQDt50pqrFnsPDbZpta91tLCBhESFwwkQr5ccHqrx4rEbsZ/DtSydtY0Vvjg9t6GFFb85K2y1glKxpSitRjo5medDnd80UhHI+pJJ3C+kNYQH4KMi9KJGNEhNoY/ZPZVXgF6Bn5qxAk+U/r+4vXLnzINmBpuFazOmJNomqpW4YC0yis6ocR8dafG/vGIeGGpP7ypmZaRQE5dZlJe5bW6GnGJL4eZ7galwxmOEE2onn9ERCM734IGHW0XJZdy6rB80C2Wwpa1AeQGXFF6ysnQm0MdvnMa2J6A9F2MscTONQVRzZ676+UpjVdL5MuMNJdur72GibWtvjsKODxgJ83l2WD737RJ1n9lUZrifIDL6J8R7KkePetd3cvTJr9Z2q1YdegP48VQ/6zESbZnzp0lPOuQsPEi4Ifyav8AGy0nZlGykm0MYs5qnH7k47lTh+BozPtc/vFQInrO3P05V7s/QNoR4rB4eb1NopzomlXxoLUFyy0nZetVPaboJm4nEzeqgQllQiPrSxh02DRdLUHsQFORZF8D7rmDnejC/cRCkUAmFRV0jQmatloTygwkovfMbDyi9u32WeZQJtzOpdrzKuyjdVeW2ubddTrziBG/rzdOXdm0SyhHqccniklUWgLfxsLGCNDp0w2kj54b4qr52sk86woDiBDYsKfHhDhf5ySDvRzrNrMr3AhiLNxHO6mhCnOjUvK9lBwr7SOYFeCAGPzrefQ9mqqh/zaN4GiQm0MbsfWwV5GdjJHCpppygodOUcy3vyRKG77CQrkuVeVhsJ401/TrItCdpYsN6SVebYe7bBd94Y4+hoG1xWGWEmHFYVIgd3rapw37oKxbyQqJo/Lzx/ppUop8Zj2qleNCc7egoR5WhBqsZyhU+j3PAli0KbQBuzl6ce36rAhMC3yNp7z4llbLLc0cq+PN3FALlCiEIE4lQ5PtamHnucE0uANha8uUzK8i+P1fnxgXHGW+m5fOgZmAG8Qncx4EPre7hrRRcOmdEmL8bsEujWJak8Sj509JdDAtcp5LJArokIgcKdHj6mWXUOwwTamK1EIkkg7EL5KUp9LkxUnqxBw6rePF3Rm9QLFaGZKMdHs8MqDus+aBiTpe2aiednB6u8eGwiq04zkydsFZb35vnIxl7W9hdIvFp96AU1BqGVeM7U4qwiy0VvBcMA+opRlsbBAntDISz28BGvuvxLVpHDBNqYvfzxY3epQ04L/Ddgz1zY7HsPgXOs6stRzrkrf+JOBY5T4zGNxOOc6bNhdB4NAoGTYzHP7K2y/2xjRh98VQgFbl5a5L51FXqLQSbRdmsWDIlXxhopjXZ60cZJKYSOJZWIcGEe+g6Bezzcr9BlI8UE2pjdi2k7EHlO4Ofo3MiFLucci7oiwlCuvOgq1NspZ2sJSaqdHliGYSCCc4I4ePlkg++8PsaZiSRLc5pBiS6EwnvWVLh7dYV86Eg9FoVeKCLRqQd9diIB1XOzs0LOCb3FkEBYiPnxgrBchU+kyuJHnrQotAm0MWv5j4/dpcCQwDc7pe1mLdopX7eoHNKVD97MD/CqjNRjGnF6+TrRhrHACQSSVHnu8ATPHpqgEStOZrY+dH855MPru7llaQmRyeaFJtELwRKzKHRCel6DK1VwLsuTD5zMvSYF7/q6gEAE3O7R93rUuhOaQBuznEThJ8DfA9VZK9AogRP6ShGFNzmlLUDslaFaTDvN0jcMw7hUYgIH462UH+4bY/fxCVJmtlunA9YtLvKxTT0s7Y5oJybPC2LkSZbGMVLP3hBy/jlWEXqKYVa3/9zPLjSPXoXoJxHts/FiAm3MYv44i0KPKvpXir6ss7Q7YRaBhmXdWZkjuWL+s9BKlNMTMc2kE1WzILRhXLJMiwiBCIdGWnxvT5UjI60ZLfWoCjkHt68o8/61FfKRI0nVotDzftxlVZKG6gmxv/iAt5ALhFLksjSOhUkOuAO4c9uOnYENGhNoY3bjgVdA/xZ0aFZ+QoVQhGXdEaXcFQ6Y6Ll2sWdrCa3YE5g/G8aVfaYT6XvpZI1n9lYZbaQznspRCIX71vfwntVdRKHLStuZRM9Xf85SOFJlqJZklTgumsRzoTDYFRIFsoAPl8pakI+DdNuoMYE2ZjFPPb5VER0BngbZCaSzz/Cz18vdxZDQvVkJO4hTGK2ntM/rdGUYxuWFJnDQij0/3l/l5werNNOZTeXwPmv1ff+NvWwaLEzuhY15POZiVUYaSaeZyoW/ngsdvcWQUGQh76PKwFaUVduetMYqJtDGrObPH7vHi7Cv01zl7Gz6bEr2urmYcxRywZVfM0uWK92KU6qtlNSrNR80jLcUmqw+9FA95Xt7quw5XUeczGw+tMLGxQU+sqGHwa7wMpFJY76gHYlOUk8jTi952xA5qOSzg4QLmABlPar3gZZs1JhAG7OfBvhvgz7PLAoCqWaR5L5iSD548wOE6qHWSmgnHjF7Noyrm9wFQgcHh5r8YO8YJ8baM5r7pGQlzN5zQxf3ra1Qilwm0ZbKMW9lIklhrJ5kgY7zBkLghK58MNWNcAGzBPgAaP/DO56zxcwE2pjNPPXoPR7kIMh3gVmVCy0C5VxA+GZHKiR7HTzeSkm8pW8Yxtt4wrJDW6LsOlrjB3vHGGvO7CbUKxRzjvs29LBleZlQsp8zh55vIy0jUU+1mZKcd2xdVckFjr5SlgO9wC9UhHATwk2AHSY0gTZmP1oD/y3QXzJLcqEnUzi6iwH5N5lURbLcutF6SpxkUQ1bew3j6nepToRaK+WnB8Z56Vgtq9M7gx/Be1janeMjG3pYO5DvlASyp3herTCSjbUkPRfsOH+QOYF8aO2vOs51A/AezepDGybQxmzmqcfu8YgcBPk74PSsWLw0G3zFMCB0V9DirIgoXpVGnJJ4bzfTMN6uQ5NJ9MlqzDP7xjg41ERm+FWOA25dVuJjm3rpL4ZkabIm0fNKJjoNr2qtNOtCed40HjihuxASBrLg3z4o9CjcjtJjaRwm0MbcYBz0m6A7QZLZsbBn5a6CtxiFqYeJVkrsFbERaxhv7zmTc1+vnKzzvT1jnJ6IZ/RAoSoUIsd713TznjVd5CMhVZPo+bVRg1an3Gg7nTxWeO4X85Gb0XKKs5gQ2AjcbiuaCbQxB3jq0bs9okdAfgAMz4JdOE6E3mJI3r35yZI4VcaaKXGqOCyCYRhvX6IF54TEw7OHJvjJ/nHqbT/Dpe2Urrzw4Q3d3LS4gGOy1bfdn/kgz3Tm5naq+Mvc1MAJ+dAt+CpKnbrZK0C2ghRs9JhAG3ODOvhvK/qSXu80Ds0iYrmwU1pL32JyVrD2KYbx7hZuJzDWTHlm3xi7T9RJZ3ga8Aqr+gp8eEMPK3tzHXk2g54fm7SsnfdYM2vnffFsnQuEvmKWsmebJrqBm0Sl/MiO521hM4E2ZjtZRQ4Og/4MqM6Gz3Q1XuwV2mkWwTIM491L9LHRNs/sq3JstI2bwVVAPYQCd66q8KEN3XQXAlJvqRzzZXB5D/W2J7nM7XQOckEWgba7TQCsAF2Gqgm0CbQxJ1CpovItlJeZE/OYEHtluB7T6nQhtFrQhvEOnybJ3vg4gReO1Xhm7xij9WTG86G7co4Pre/hzhXlTLystN282JxlKTl6+Q2RZk2xjCn3Wq6qN3vVvF0OE2hjbkxzqSCvgzynSn1OOL9medBesS6EhnENJNqJkHrlZ4fG+dnBcRqxzrBEK73FgPs29LBuIJ9Jl8nVvJDoxCuNtr/wfmrW1Kecc1ltctsticIShVsVLA/aBNqYCzz1+FYFRgW+LXBkLkxjtqwaxrU3HScwVEv4wd4qr5+qM5NFIlWzdI5Ni4t8fGMfSys50lTNq+b85gziFKrN9KJuhEo+dCwqRwRObLOUUUHYKCIly4M2gTbmCIFIOyfyggi7gcSuiGEsRIfOGlvsH2rykwPjDE8kuBmsD+2BfCBsvaGL21aWOzWCTazm8Z4tK6do8nz+HnapwCK1PGgTaGNu8CeP3aVedEjR74KesitiGAtzBZeO1bxwrMaP91epNtMZT+WoFBxblhVZXIlIrpQ/a8wpUXZXvN/2RvGiSzWg6BqPWltvE2hjrqBoXbNqHHvtahjGAl3BRQgExtsp399X5YWjNeJ05vKhVbOqHGsGCizuyuG9CdZcN8LUK7W25+KiSQpYL9kLL5fCgGatvUO7HCbQxhzhTx69W0XluCgvoTTtihjGwpVo0U5pu72jHB5pzVzJdQVVoaeYo7sQZA04zKDnNK1UGarFpCkXjKNAoBBkB1jtFk9tOPoE1gkS2dUwgTbm1MMrYw75LrBfsXXLMBauRGd1el851eD7e8Y4O8P50FZdZ37huVCeVSEKHL2lMDtEaIvNJDlgGVC2S2ECbcwhQpF2IPIS8DpKagPQMBaqQGepHF7hZwfH+cWhmW/1bQ49j8bT5eZ6EfKRs/t86aWqgA7YpTCBNuYUqooOK/pz0LMzPW2oQjNVvLfV0zBmg0Q7EcZbKT/ZX+WN03U8MiMS7VVJVTt1QYx5u+LYJbjcVekBXWLXwQTamEP47GtchO8i7GUGz3hIZ9EcrSW0Uv+WAm0Tr2HM0KIgwt6zTf7u1RGOjjSnL79C6VQCUUZqMdVWihPbTBsLa9+K0oNiAm0Cbcwl/uSxrUpWB3o/8DozXBNagVivonnCVJtfO2BkGNO6mss5X37+aI0f7Buj2pzGfGiBRIUDQy1OVWOcsxi0sbBQpEuRRXYlTKCNOcafPrZVEamL8IKgozP5d3uFeisl9m9uxcFkC1gnWYjcTqAYxjRKtBA4IfXws4MTvHC0RiudnnxoEWG0nvDyiTpDtYTAZT9nGAuIbmCxXQYTaGNu7oFbwE6FgzOlptLJgR5pJLSTzrvcK+zPc4GwqCukEIoV4jeMGZLoKBTOTiR8f88Ye041rl1+V+cBdk5oJp6fHajyy2O1Tutnk2djoT1rhCLk7EqYQBtz8QHOXPYA8CozlMYxmQM93kppp/4tZVtEOpEp02fDmJlnVHACr59u8N09Y5yqtq9JKocIuEBoe+WFozW+88YYpybaneizXXdjYaEQqpWxM4E25iZ/9ujdCjIBsgs4M1Pbbq8wVE9oJvpWE8xF6m0Yxgw8ogQOUp/lQz97aIJ6nL4riXYOcMLp8Zgf7R3jr14a4li1TejEUjeMhUoeGLTLMPew9pFGR0u1IchzCofJCrtP89/XafuaQqPt0TfJgw6d0F0ICJ0QJ2pRKsOYwZkhcMpEK+WZfVWW9uTYurqLoPPaCr36Pa0TaCXK66fqPLOvyovHa4w1UgLJKn8YC2E0GZd7NDoSbZhAG3ORAEkdcjRB93vlLoRoJiY7r8pwLaadevKhu+z5wFCgOxcQBULt7azYhmFcE+mJAuHwaIvvvD5KTzFg42AJJ3pVCVVOIEU4Vm3x0vE633tjlIMjbdAsIm2tNUyi7XpYbqIJtDF3UcFDVZUXgU8C094ZSSQT6GozJU6V/BVGo3NCIecIJ18d2wxsGDO4wguC4gR2n6hTiByf3SKsW1TAiUy9PdKLpUCyZ7cVe14/3eD7e8d48XiN0UaC61T6sMDzAlpiVElSnblmA4ZhAm3MBD4L/TaAFwXOzohAA6nC2VpMI/Z05YPLzbqEIvQUQ3KBWAU7w7g+Fk0g2fP67OEJ2onng+u72TBYpL8cETiHcE6kvQqp95wea/PyyRrf31PlwHATgMhJ1kDFLur8leVL92DEqTLaSLOOk3bzDRNoY57RFuENhWPARqb5kKkIJKlyZKTNeNszOFnb7jzD1s5r3q5OHWjtNC00jzaMGVZoEQJRvIddR2vsH2pxy9ISNy/JJLpSCCiGQq3tqTZThmoxr5xs8NrpOtVmSigyVVHHmL84gVxwaUHCRJV6O8VbCNowgTbmE3/2+FbdtmOnAKMo+4B7geJ0L8hp6hluxNRb/rJWrGQHjMr5LAc6i5TbAmwY10WikazcnMJoI+WnB8bZeWSCvlLAYFdEVxQw1kw5U4+pNlJaiSKiRFPpGvbszmeULF++pxhkFVf08r/LRoFhAm3Mv9kPmsCLZGkcq2ZgRaYZe85OtEl8gcDJhZOuZpHqXBRQzAU4l70oNo02jOuHE0GCLBrdSjynqsqp8RhBUNWp59OJZL/Xos4LhkCEUhRwcbVDwep8G/NsHrRLYFwk0S2UF1FOz8wAFJJUOT7Wpt72VxyQUQA9hSwKbXnQhnH9EQTnhNBlUelAssYrwdTPdeTZtroLbAm5coqddMaNccH1UsXOVppAG3Oapx7bqogkiBxAGJqRRVggTuHEWEw91svOuKoQOUdfMSQXZg1YbAo2jNkg0ee6hF7+C3tYF6IU6qUDJfbKRNuTKjYoLiQBRu0ymEAbc16i71KFmionVImnfQAKxKnnyFiLiVZ6+Xd8quRCWFQOyAcOr1gU2jAMYxYSOijlLipRKEIrVYZqCUlqVTguogUM22UwgTbmR/igDeyZiV1xVlFDGGmkDNXaJP7SyVXJTnUPlKMsAu3Nng3DMGbf0pHN1T2lECfu8qkcdpj04gXOo6R2IUygjfnxRCeg+0FHpv2v6uRNep/lQTdjf6lAa1Y7dqAc/f/Z++94O+70vvP8PL+qk8+NyDmQBEgwA2Sz2TlLrdSSHJotyZYA7qw9Xtvr8c7M2h7va8K+VjvjeY13gu2RZJOwpO4GaFuhk9TqnLsZwEyARM64OZ18TlU9+0fVufciEenm+7xfDaIJgLjnVvzWr57f8yPjO0IbfjbGmAWYBZUoKYKWa4TrINRr/t4yVwFGbTMsPtaFw1wj02pTkKMKg8T9oGf1eucEgghODcdlHPGCKnrFZ3J0ZH2y11nu25h5DQ46FSFm6Cy019y3sPH1Gg/mtvnm/hzwnNCR9fA9uWqfNMOIsXpIECnO2d6ZOtO1jJVwWIA2S4Mnog4ZDpRRnYOOcc7FF9ezYw0m6iFrOq9xcQbSvqMrmyyogtpsbjOPQfnysKzJ76lOruoZ//vN3UEnXwW2FxoR9IrXgzL5++bqfRFEShjF28cJ+O2AZttrTvdH2gm9BZ+UJ1cdvWEEtWZIpODZ5pp+6aiCjtmmsABtloAv7H1Mf2P/y01Fh4lnCKdn+xkclHIjZKDcYuuKDCm5YgRDlYwvrO5Mk03VJmul7f5o5sLkcSZxUAujOCiHkRKqkk05cr4jl3ZkfQ9PIJd2pL0bt6FQlForotmKaIRKtRVRbYZUmhGexO3gPBdPzmo/NNpLGBCUZhjXA6wpplhZSAHKUCVguBJOPmTbQ8dc7RBNSvKuPuZVIYzUjttrbjcZJV7911iANktBFGkDOANMIKyc7a/nJO4HfWygxs7VOVYW/MtSgqJkPNjQlSaXcozXAzzFhuTMjIlHNPWK8yBu0BppXNuZ9qAz61NIexQzHh0Zj2xK6Mx6dCb/Xsz6eA46Mh6FtLth4I1UKdVDas2Iaiui1IgYq7YYr4fUg3hZ7PFawFg9DtWSvCp3Mv3wl/b/lvxOUojrbFHWdaa4d02eB9fn2dSVRgRODjf4zrFxTg03bOXSudotyT7xndCZ8Ui5qaNeJo/xgCC0dsfX2HQVwQ3aprAAbZaOOnCUuDZrBXNQB90MlaMDNUZqASuLVwToCFKeY21niqwvjEbYFFgzo6G5XYYRabzCnueEYsajK+/TlXF05XxWFlKsKvp05Tx6cylWFH2yaW9yERFp/0gOz5s9aaLLvv7UiF29FTJUadFfajFQCugvNRmpBoxUAwbLLaqNCOfAc/HXi58pl2pgjMNzGCkp57hvXZ6P3N3J/euKdGQ8PIlHo9d2ZfEc/Nnro1yaaMb7xQ71OYmCKSf05K8o4Uh6+deaSqg25nH1Ec0QzM26C8YCtJmbUztQdAikOhe1xk6EIEpev5ZahL2Z5FXgdEJHxsdzgnWyM3camCEOq0GkcUkQUMx49OZTdOd8VhRTrOtIs7ojxaqCx6qONMVsXJ7hSbyKplyx8jzTepS/24ps19IO3d60/5NL+XTnPbavyBIi1Johg6UWF8aanB1rcmG8wUC5yUCpRTUp+Uj5Mhmml9KodBRBI4xYVUjz0Po8H7mnix2rs6RcvHx4pHEVQcaDu1fmWVUsc3G8OQezOAxJvb/nhI6Mi2vQdeq4DtqLqNgA9JXqQL+iTdsUFqDNUrkeirYcXFCYUNC5uA8LUA8ijg/V2bU2T3fen+r5nASfbDoOFBcnpqUTuznOyQ3yunFwIQ8pXdGyRRXCdj2mQj7tWN+VZmXBp7fgs6YjzfrONGs6U3TnfdKeh++SwCxXb5OZfpC7VjMPIVkqG0hnPTqzHptXZHk8gnK9xbmxBmeGG5wba3B2tEnfRItaEJHy4uW1dXLUTxbhYRdviCBUfCc8sDbPh+/u4sENBVbkfRyX74P4MBXyWZ9s2lnN7ZyeaorvQXcuGYHWqetDM4jLktoPqmby3B4GTsHsL1pmLECbObwepsUbampUjqPGXIxCQzNQjvTVeP/2gO7C1XO1s76wriPNyeEGrZbGr23tkjyLmXmqo0Q0vcME8SQu5wR31WvZ+Zu4dVUds0Ko8avjIFQyvmN1RzzhbEXBZ01niq3dGTb2pOnKp0h5gi+CQ68Ks/PVPvFazy5pF/8oFFOsKqZ4aEMH5XqLE4MN3h6ocWKwxrnxJuO1AIHklbrO+/651WMv0ngJ6BV5j0c3FPnYzm7uWpXF4926nOjk9cTKBeb23POcoyPr4UQmrxUAgSqVRmiLYF39fDgg8I4FaAvQZgl5bt/j+reffbmhUGLOJv0LoUZcnIhfTW/tTeOSEbT2Fdp38Wv2lBOaRBaeZ3VvxOGzGcTPT91Zn0Ky7UXi1oOjtWCyW4TvhJtoOjG7nzmptwwiJQjjO1RH1mNVIQ6aaztTbOrOsKE7zeqONNm0R9qB3/7cSVq96RZ08xhW2lHRCaQFevMpOjf53Lsux6WxJm/313inv8Y7gzWGKwGei1eJWwyhUjQOXZHCtt4sH76rgz1biqztSF816nwt7UmcGd/RCiKsr/YcHJMCaV/Ip68e+GiFynjSA9p2w+S5qwh9gpyReBqEsQBtloomBBqvkBTOxbEiEtfQNcKII5dqPLi+QE/OR6cNgGc8YVUxTc53lOvh1TWoZkbSWZQEmGLaY8fqNBu7MmzsTtOV80k5wTmhHkQMllpcKjXpG2/SX2oxUguIVJP2a1NBPN6/MoMf8eoezJEqQQRZ37G2M82KvMfKYpoNXSk2dafZ1JuhI+vjO/BFkpZw07o6LNIDqd2RAo1LTTpSHsVVWbasyPCeLUVev1jlSF+VM6N1Lo23aIYRfruLR/vEW0CxIoriUefunM+utXk+dk8X967NkfEdRHrDpKEk2yHjkfaEZmCP2bMcBIG4xKYz613VAxqEVqiM1QPCpP2oAZQ6cFpFJw7s22O3MQvQZmmd3xqBjEn8eikzF1/TS7pxvD1QY7Ac0JP3LwsKvies6/DJppxNJJylu2EQxT2Hd6zMsXtTkUfWF1jblSbtO5xTZNroZ6RCvbsj9AQAAIAASURBVBVxaazB6dE6F8abXJqI63BHKgG1VoQT4lIPkv9Wbi1QTy8laU9WaofeKIoQJ3RlfdZ2xGUZ67oybOqOg/PKjjQZ3yWT/i6vMY6W4KNXPHIef19pJ6ztTLGy2M3jm4ucHKrx6oUKh/uqXJho0QoV3xNEdUF07lCNJ3PGo84ZPnJPF7s3FVnTkcaht/T6XwTyKUd6sjWJlXrN5jUjIm5ht7LgJ4vYXL6vmqEyWg1oRTq1yI09d1wCXlalapvDArRZYkQIUAaAGlCcm68piCgj1Ranh2ps6o5Hm9v1dE6EQtbDc+0AZBfjmQ3PiufgoQ0FPrGjix1rCxRTjsvSa3tfEZcPFNPCPauzbFmZpRkog6UGp4YbnBtt0ldqMlRpMVgOGK8Hk8v9ei7+b13yF12704tOji63J/61j4NC2mNNwWdFwacnn2J9V4ptvVnWd6XpzKVIeZC64u3Ecnvgaq+M6An05Dwe2VRk28os967O8+rFCm9erDJYacWj0czvQHSk8aIoOd+xc3WOT+7s4uFNRbK+m3wjcksP4g46Mx6ZlEMJbNXSOTjWfC8e9feu0V60EUQ0w3hpG7tmx5tMhAsorwMN2xwWoM1SExEBZaA5l9c83wm1lvLS+Qo71uTZ2pu5rONGLu3Tk49HOiLrKzpjN8BI4xHJxzcX+MyDK9jcm8VDUX23FcSmFktIO0inheKKLJt6s7RCpVIPuDTR4sxog/5Si4l6wGg1YLweUqqHlBshgSruioVAlLj3t4jGvZizPsWsF7eXK/j05Hw2dqdZ15WiK5ci4yc12ExNurM3FO19q5O10j05nye2dbBrfZ5Xz1f4wfFxTg43aAbRvJRzKEoYxrX2m7rTvG9bJ09s7WBDVwbf6W1POnNI/ObBRjvnZi+qkvY81hTTpLypeSsCiCrlehgvtW4bq31OhsB5cOcFtfpnC9BmCZ7mETAWPyHP3aXPE6EZRZwZrnNurM7G7vRkMBIg4wuriinSnotHTO2qPCM3QSfCPauy/NL9vWxdmYlH/qKb/a+5bLjXF0ilhHwqxaqONA9sKBBESrUR0l9qMlwJGK60GKuF1FoRtWZEK5yqdReEXEooZDy6cx4r82l6Cx6rOuLA3B7Bnt4lBCw03+ghKT6/4hHpD93dxcauNF97a5SXzpUJVedubaKk1KQVxaPOO1bn+MTObh7ZWCSbcmh088feNQO0QEfOI+O5yUVq7DIxu8dW2hfWdqXigY1k34lAK4oYqQYEaicnU+NAIwqvKDr+3NNW/2wB2iy9k1yIFO0HmdMarbghP1SaEUcuVdm1Nu75GiW9e9srxKWcoxWGtqNmQKhKb97nsU0dbOzJQHRnbdtUk8cvidvdiUBahEzOozOXY3sEYRSXZgSR0miGtIJpAVogm3Kk/aQPc9LhwyVdNuIFS3Ty/7fvSuYm942CE2X7qhwf3xkxUG5xYriGzFG3CkUJwviYe+/WDt6/vYOtK7OknRCFd54nHFBIOVK+JJOQ7eCYTVHy0FLMeExrZwMS9/YfKLUIQ8VeCEwOEJx28CO18g0L0GZpOrDvMX3q2RcbQDDnB6YTmmHEm5dqPLmtSW/OS/KRknGwMp8i7UO5ZWNLdx6oFEHY0JXm4Q150k5mpuexTD0QESUVzcmvecQTFQHEFyTjX10motN7/epUWYZe8TVs99/efo/Ac8qudXme3FZkoNyi1AjxmN3lwFXjThrdeZ9P3dvNx+/tpivrT73xmKFTOptypCyxzdn1uisXT+7mip7wQQRjSXceO19BlbrAGyK8/cV9e6x8YxFztgnMTcSgOb/kSVIPO1wNONJXpdYMJ3v8xhdrD9+zJb1n6IJOPuXY1pulp5Canb19jaNoejeNMIqXar7sx/V6MYsF55naJ5HGJVOPbCywbWUmXqFxto+35OfHNxf58D1d9OR8SN4uTX/wuqOvIUJHzifrO1St1+VsXz9yKcfGrkwy6fPyg6wRKAPlJq3QTtnk8D+j6LciVeu+YQHaLPGzXXSevrDn4iVg3+qrMlwLEBffCH1P6MnHNdDx6Km5E5Eq+bTHms6UtZhalgFIWVVMs6k7TdqXyRKP2X4q39qboSefikuzZuFreCL4NkFiThJhxhdWd/jX6AEN9VbESCUgiuLJwst8j4SgRxVeRmz1QQvQZokfIFKRuE5rjnO0TL5GPjfW4O2+GvVWBC5+vdyR98imbAR6xvazxCP7gtpo3TLke45tvTlWF9PTYtHsn+NxgJ+lv12gM+uR8cUO6VkP0PHiRRlPLl/kSCMm6oF1S5raWEMCPxYYOLDvMTssLUCbJR6gRwQpz3mATi62KU+otEJ+cqrExbHWZKhOJYtnxGUcetlF29zeTdBSxvLd+U6U3lzcLnCuDJZb1JohbjbuQsmbqWLGkfHdnIyqL9vDRyHjOVYV0/hXtLCrB0p/KV60R0TQ5R2iA+AQ8BWgZEeOBWiz9O+tETBvEx1EhCiEc2NNzo42aAXxSEbKCb15P561b8PQd5ick5JiGyFatoeAKOTTjmxq9l+xt7sPvnaxwluXqrSieKXK2fhCGd9ZWdIsHzueQFfOIz/ZgWNq+9daEX0TTVqhWtiAUeCHIGcOPv2YTR60AG2Wuoj5H5j0nVBuhrx4tsRQtQXiJmd9p5I+r+bOkkYrUqqtyEpilu0RAIWMRz7tZv18b8//PDlU58tvDvPTkxMMV1pESZvCmYq7DujO+mT99qioHdwzHZ5Vlawfd/DJ+XLVnm4EymC5RRAp4pb1JMII5WXgq2BLdy8V1sbOLPynvGQk4+hAjYujDdZ1pvFcPGI22RfY3HaacQ4qjZCL401aEWR8yxozERJvOi0sgLJzBcqNiGpzDh5HRXASr1x5dKDOSHWIXWtzPLKhyK51OXryPjJDJRfpVLwaoR3Os3PQhBFksi4J0O6qA7neihiqxAF6mb8IGED068CJg1b7bAHaLA8euGi+OnFMP1CdUG1GHBuoce/aIoowUgniV4NWe3CHDyjxSNHF8SZj1YBCKmWdTW7xAU+vSMxRpDRaEUGo1JoRtSCaDNbtxc9zaUch7fBcXGpwWe9l1Tl7MBTiN00j1Rbjtbls+S74HgxXAr5/fILjg3UeGSywa12e+9bk6Eh6Q9/udhCgmPZI++2tbkf1jB83qmR8x4buDBk/no8yeQ6oUqqHjNUiIlW85XudbhHXPn9ThKYdORagzTIRoZ0KhfmskNXkRhuocuh8hVzGJ1Ll1QsVWqHiWY3jnd8MBS5NNHnjYplVxe5pr73NlaGBJDCrCkEYUWmETDQCxmsh4/WIajNenrzcCGmF0TVHdhXoyHgUM46UF6+smU97dOV8unKO3pxPRzYuURI0HpGdxW8qUhipBozXozkNmk4EcYqq0F9q8ZdHxjh0rswjGws8tKHA9hVxqzuP6Yvq3NRFAxEoph0pz9mxPCvX5XijFjIePfkU4gRNasDabw0vjDVoBhFxf59l2cJOgePAF0BOHdhrC6dYgDbLKkCD5GQeh28kSS0ecGGiyX96dYhWGF+HfIcNLM1QkBmrhRw6V+H+9Xm29GSsjIOpBX3a/2iGynCpxVA5YLjaYrjSYrgaMlptMVJtMVwOKTdCAo27DsjkeLMwvdvx9JFo1fh3cr6jt+DTW/BZXUyxuiMV/1xMsb4zQyHr4URnvKOEAM1AOT8Wv4GQOR6tFZFkkaT4Nf9gJeDrR8Z47UKVXWtzPLqxwL1rcnRn/ckJiHqT31c2HT+g2KE887EwUkh7wpqOVLwC4RUbvxEo58ebtJL652V5nVZKwNcQ+ebBfbut9tkCtFlWAWKhfRiNR6LbXSPUGvPP3MOSKqeHG/z4xASdu3rozfvx0srL8JiPb/gOjZRSPWCwEtBfbjFQatE30eTSRIu+iQbj9ZD2EpmSBAtxkJo8LmX633rNO2x7KaBAlYFyi4Fyi7f7a3hO6M55bOjKsLUnw8aeDBu706ztSJPLeBDpZa/M7+Qh4eRQjeODdUJVfDc/75vaJSwe4HkwVG7x/eMtjg81eGRDnl1r8+xcnaMj68XLgUfvmu8QIJf2rrE6npmJZKiqZFIeGzrTZK8xgbAZxfXPrUiXaXZWgLeArwkyZseMBWizDHMVU6suz+t18LJKxmTUysxUeIm7FlSaId85NoGI8Mmd3awoztyEroXMAerihXmaQcTQeItLSVjum2jSP9Hi/HiD0VqAXPXQppcdpMKtHJtTf9f0ThEKhJEyXAkYKge8eqFMV9Znc0+GLb0Ztq/IcveqLL2FFL5IEmhuY7874eJ4k2+/M87pkQaeWxjHIiqTMy8ujDW4MF7nxbNlHtlQ4OENebavzNKZ9fGEdw3SQagEkdpbqlm4GIcKaV/Y0pshm7p6Nne1GTJQatIKInznls0u0KmfTiL8O5QXgdAOGgvQZtk9RksO8BfKQK+F5tnctnGt+UQ94FvvjFGuh3zgrk7uXp2Nl02PlKW0UKEgOAehKuVGxEC5xbmxBhfGmpwfa3B2rMlwJSAI49KC+MfUyPJMH4sybSKiTLsZtx8cJ+ohb1ys8vrFCj15n51rcjywrsDOVVnWd6dJOUGjmy1vUHCOi+NNvn54lNcvVuISioUyn6D9IDLt6b1/osXXJ8Z47UKFXWvzPLIhz71r83RlvcmSgunbUhEujjUYqwU20Ximbws61SZwXVcaJ1P9+EUgiJRLEy3KjXD5XbfjzTCEyBdF3FcQqgf3PmrvQCxAm+XkqWcOOWANkLetsXyknFBuRPzo5AQD5RaPbCywpSfL5p40nblUXIcb6aIclRZplwoIzSDk0liLU8N1Lo43uDTe4tRIg+Fq67LvzXPthWbm/q3H9PrrZJwZJa5Xf/5UmWP9dXasznL/2jy71uZY353BSTyZS6/z94kTIhVOD9f5zjtjvHCuTLUV4ckC3mfEkw0jhb6JFgOlCY4P1nh4Q51da/PsWJWlmEvRfoIQ56gHEe8M1hipBslqhxaiZ0qkkPYd67syFDPeVb/fCCP6JpL+z8vt4SXutPF9Uf4EdOTgvt0Wni1Am2XIAwpA2jbFcrr+C75TWqHy5qUqxwdrrOlMc/fKLFtXZNnYnWZDZ5p8JoVziktajenC/GYmQ2+oQqMVMlQOODPS4PxYgzMjDU6O1Ck3wslOF+1R33ZwWwi5Sya/l2RCXDLxcLQW8MKZMof7aty9MstDGwvsWJVlXVeGjH95sFEgCEMGxpsc6a/x4pkSxwZrNBZJK0gRoZ2DVZVzY00ujrd45XyFB9bluH9dgY1daYoZj4lGi8N9VV44U6baDOM3B5afZzRA59KOLT3ppMZcLzta6y3l4liTIFp2q7WFwPMKv4dwRLB1vixAm2UpeUvXA2Ts3rOsEvRkHW+kSj1QTo80ODXcoJgpsb4rzbaeDFtXZNnQnWJjd4Zi1o8XSoh08lX6XI9Qy7T/45Il7aIIKo2AoUrA2ZEGp0fjEo3TI3VGKsHlwSrJygs9TE6fA9Du4FFqhLx0vszbgzW29Wa4d3WOtZ1p0r6bfLipB/HDw8nhOscG6kw0AjwnOBZPuGx/znZXk0iVC+NNzo83efVClU09GTozHuO1gBPDDcZr7X1sV7AZTYmRkvcd21ZmyfgOvexkj3ufnxtrJH36l8O9UgEiQd5y8K8Rfnxg7x7r+WwB2izz48NKOJYxl/Rxi0OYxovZDNY5PlinK1tmY3eau1Zm2diTZWXRZ20xRU8hdVkLNyKINOkvrNdKvFNPbDdOx9P+nEyNFE/1m3NEGjFYirtZ9JeaXBxr0F8KODlSZ6gcTP51fhKyhcU7OikyVScsAvVmxOG+GkcHanRmPXIpj/bcxGorZKIRESVdEVKT3//ifsjT5A3IQCnukjJ9tvFUyY6ZsbCo4DlhVUeK3kI6edCe+v1IYbTWYrweohqXDC3hQabJbxt426H/yhP5BkjDjhQL0GYZExEBzbDs3sKZq4+FyW5tkyOaY7WQsVqNw301ihmPlR0pNnSm2didpiefYkXBY0UhRWfWJ+V7xJ3hFJGkDaFefiPSG339JDhFxIuYRMnEsVYzYCJpNTdWDRmstLg00aRvokVfqRmXZ5AsDCM6GbyWUrBql5u0e3gEkTJcDRFCpjp7xN+vY2kFy6mHiOTtR3IgOSw8z0ZgDCOlmHHcuyZHV85d8cAN5WbEudFkAZXlsflVkfMO/T0n/EeHjP/hXqt7tgBtjHVQNVNRZTJIJ3cNSELLRCNkoh5yfLCOL0Ih41hV9FlVTLGikKI7l6KYcRQzjo6MRz4V/9xeRdL3hGzau2bgUYVWEFJvhdSaEWON+OfRWsBwJaBSDxmttRgoxf8+Xg/iv6c9Qp1MwHNu6b/Kn6rbliuWbVniU+iS79uzvDzrd4MgUnIpx10rMxTTbnL1wfZ+KDVCjg3WaYa6HAK0AudE5Pcd7j98fu+jY3aQWIA2xpgbhjWS0DI5uqtx3XSpHlJqhJwabsTlEsly1R0Zj85sEqCzPr6Lg17GF7qyHs5dvYS4KtRaIeVGRKUZMloLqDVDRqoBY/Uw7hncrkLUZLKZTI1aL9dRSMuSZkaTYnKCiUBX1mdlMY0nQnjFCVtuhpwfa9IMdck+0ExdbTgF8gcOvqAwaEeJBWhjjLmzMD1tQRA0XtBitBowVg0ma6qnhzy9/O50dRJMwrDq1QFRklqQqU5l1nHBmNmIjaFCxnfctTJLV9a/akpDECkDEy1KjTB5qF6yGyMEjgj8Hwh/IsjoF/c+ah03LEAbY8ydh+lpeTaeTDR9jS64xsRAvfrXk18VlcuWwmwHZFsgw5g5Oq+J65+7cj73r8tRzFzefUMcVOoRxwfr1FtR0n1jaZ2fyXfbBF7z4P/wkD//4717SnZ0WIA2xphZD9XX7PywBG+2xiy18OhE6M56rO1MVh8ML18mvdxUTg43pgXoJaeu8CNR+T+dyHc8KNuRYQHaGGOMMeaaIoV8ynHPqizdOf+q51+NYKDUoG+iQRAqad8tmVIqhQi0H/g6yLMKLwo0/72tMmgB2hhjjDHmWoR4HkOx4Lh/bS7uvqFTo88iUA8iTg/XqTajZOn0pRKetQUcA/69g/+IcPbAvj1W72wsQBtjjDHmXUMkzgkriynWd2fwPUc0rX2dilBrKaeHm7QixVs6cxOawPPAvxORrwGjB/ZaeDYWoI0xxhjzruEZgghyacd9a3L05lPX+EPKWK3F2bEGQaRkfFkK3/gwwjeA/cBPQKoHbIEUYwHaGGOMMTeToINQ6erwuG9tPu6+MW30WQRqQcTJoQYTtfDyCcOL93seAb6A8q9E5OTBfXtCOxDMlWyJZmOMMcZcnSMVIuIFUdZ3plndkcaJu6pVeylpX9cMdbG3llRgGPhT4PcFTlh4NtdjI9DGGGOMuYqg8eTBtOOBdXl6ct5lvZ/biXO0FnByuE4ziPAW6bBc0mnjgsAXgWdBThx42uqdjQVoY4wxxtx6sKQn53PPqhwZXy4v3wCaoXJprMFoLUBVkUVYvpF02jgO8segfyjCpQP79li9s7EAbYwxxphbEypkU467V+VY1ZEiHpO+fPXBUi3kjUs1qs0Ib/GtnqIKZYn7Ov8R8BeIDB/Ya+HZWIA2xhhjzG0IIqU37/PopgKdWe+y0ee24UqLY4M1GkFE2hMW+uopyXegAjWF48BXQL7q4A2HVP/YOm0YC9DGGGOMuR1RpPgONvdm2NybJeUJYTC1eIoTaLQiTgzWKdWT7huLYwKhgvYBXxHky4r84OC+3SXb48YCtDHGGGPuSBApnTmfh9bn6c356JXT6UQoNZWjA3UaYbSgu29MG1KuCrwmyJ8j+ieqnBUksL1tLEAbY4wx5o7SZlznLKzrTHPf2jz5dLLyYHvpbiBSZaDU5PRInSBUUp4s9O+qH+QrCF9w8CpQ+oItyW0sQBtjjDHmzpOmEkaQ9oWdq7KsLKTiqXbTiINKM+L4YI3xeoiIIAt0BFohdHAMZL+KHgC5qEj0RZsoaCxAG2OMMWamRCg9+RS71hXIp9yV+RkERqsBb16qJt03Flxojj+magXkB4j8kSd8M4QR67BhLEAbY4wxZmbDsyopJ2xfkWVDdwbnru79HIRwcazJudEmgSrZhdf7WUGHEb6M8u9UeU1Eagesw4axAG2MMcaYmSRAEMGqos+ejUV6c+4a5RtCqRrw+oUKpWaI7ySpmF4QqbmtT5D9oPtFOHVw325bjttYgDZzejmKgCpgFx9jjFniwkjxnXDPyiz3rMqS9oUoujxgQ9z7+Z3BGvVW3Pt5Iaw+mCzwosBpQZ4VkT8GPX9g7x67fxkL0GbOBSh9CBWgaJvDGGOWnvYIcjNSurMej28usqqYuqp1nQg0g4h3+usMlVtIO1TLfH9+BYgEjoL8r4j8CbiRA3t3W5cNYwHazNtVqYLSQmxzGGPMUhWp4oBNPRm2r8qR8iVuXTedE0bLAS+fL1NtRnHrunnuvtEOz8ARh/xrh/yHz+/dPWp71FiANvNNwOKzMcYsWaoEoZJPO57YUmRFwUevrH0WCALl3GidC+MNIsCJMJ+z8nTqp+MO/hcn8hUPGbMdaixAm4USoI0xxizV/JwE5C29Ge5flyfru6tGn0WE0VrAyxcqlBvR5OTBeRaBXBD41w7+xEHpD/c+ap02jAVoM+/ROUQZBmq2MYwxZmmKVClmPN63rZPVxfRVo8/xn4HzYw2O9NVoBPHkwfkO/cBF4PdADnxh3+4J25NmLjnbBOZdr1Gig4hWbVMYY8zSDM9OhC29GXauyZG5xsIpToRyM+StS2VGKi3cQkgOyhjKfxLki8Cw7UljAdosGAf37VHQFvEEDWOMMUtKXPtcSDvev62TNR1puMboMwIXx5u8dqFKrRXhzXvts9YQ/TrwBwLnDu6zbhtm7lkJh7kBqQFNWDC98o0xxtxpCNX4h3OwY3WOB9fnyacu7/sM8ehzI1CO9tfoL7dQjeuh51EIvAX8W4F3Dlh4NvPERqDNjQL0RBKijTHGLJ0ITRApnVmf923vpDfvX3PwGQdDlRavXaxQbUb481j7nGT+08B+hBcPPr3HwrOxAG0WrCZTI9DGGGOWgEgh5Qk7V+W4e2WOlLui9lnBCdRbEYcvVTg9XAeY31UHlXGUPwH5EkjZ9qKxAG0WLEVDRSewOmhjjFlSAXpVMcX7t3fQm/eIuHbt80CpxU/PlCg1wnjZ7vnLz6HAIYEDgvQ9t3ePDeoYC9BmQQuAQaBlm8IYYxY3VYgiJe0LD60vsGN1jrSTy98xKogTmiGcGKpxfqxJlIxIz8+HRlW5hPB5gcMH9+0ObU8aC9BmQRMkFGQU6wVtjDGLP0Ani19v6krzvm0ddF+n9lkkrn1+8UyFcj0iNb8Lp4wDX1PlLw88vadpe9FYgDaLQQsYAMpYHbQxxixqkULGd+zZVGRLbxaPawRjB4EqJwbrHB+q0QyiZPR5boegNf4RKRx18B896/dsLECbxUJVA1XtByq2NYwxZlFfz/EFtq/I8OjGAjlfiK4x/OxEGK2GvHSuQqkR4nuCztfkQWVChO85kcNffHpPYHvRWIA2i0UIDIBWsBFoY4xZpOE5Hsrtyvt86O4uNnRnrhVWEYFmEHG0v8qxgSpBpPHKg/OQn0VRgcPxioMM2F40FqDN4jlAHKEn9AFjFqCNMWaxBmgl4wsPrcvzwPoCGf/aNc3ihL5Six+cmGCkFuA7QeaveV0J+I7Akc/bxEFjAdosJgf2PqYOVwGZ0Gsv8mqMMWbBJuc4PIeqrOlI8b5tHfTk3LUnDjpoBsrhviqnhuuEkc5b5w0FVDgr8C2shNBYgDaLUQQNYAhrZWeMMYssPythBFnf8fjmDu5elcO7TjNnEWGw1ORnZ0qM10P8K9vbza2KwCEROXrgaev5bCxAm0UoROsKZ5MLmjHGmEUToMFzcPeqHI9v6SCfus7oswjNUHnjUpUzow3CKJk2OD8rpyhwTuFrKmqdN4wFaLNYr8DaQPUkquO2MYwxZrFcuhVVWF1M8dG7u1jflb523TMgKBfGG/z0VIlKPYpXHZynymdVmiivorwGzt58GgvQZtFqIFxArBe0McYsjvDc7vksPLG1gwc35El7XLf2udyKePVchXOjjeQqL/PSeSP5eMPAj4H+A3sftXuOWZB82wTmRsRpBFxCxUagjTFmwafnuPYZETb3ZnnP1g66ch5RdI3ru0AYKaeH67x0tkwtiPC9+arcaH8ozqH8TOIuHMYsSDYCbW7o4N7HVdWNK3JebSKhMcYs+AQdREpHxvHB7Z1s6Epf992hiDBRj/jZqTIXxpuoznN4hhboUUTPH3x6T2T70liANotdHTgK2Ci0McYsYIEquZTj/ds6eHxzgax/vYmDEKryzkCNNy5VqLWX7NYZTtCqST32jasxBB0WeF6EMduTxgK0WfxE66DvCIzYxjDGmIUpSrpn3Ls6x4fv7qIn56PRtYOriDBaDfjRyQmGKq04PMvM1j6rKq0IWqESJD2pr/nnaA+Sy4hDXveQhu1NYwHaLHoetDzkTYGBmxtHMMYYM2eSEd4gUlYV0nz47i429mSmBdMrwzNUmxEvnC7xdn+VMAInM9d3I/66SqhQSDs292boynqAvNsdJEA565CLX9hrvZ+NBWizBHxx72MK9ClcUrAlVY0xZoEJIiWbcnzgrk4e2lDAd/Kuy8eeHqnxo5MlyvVo5lccVCWIYGXB5zMP9fK3n1jDLz3QSzHjCK/7mbQEvBmpjtneNBagzZIRCQ0VjgtStgVVjDFm4QgVPCfcvy7P++7qpCPjoddJqs7BRCPix6dKnB9rV0rIjH+eQtrxsR1dfHxnNw+vL/LguiJZ3xFdo6Qk7kXNEESvR0S2dLexAG2WDkUboIdAL6n1gzbGmPm+KMct6zQuldjSk+ETO7tZ15m+7sizSDxS/ebFCq+er9AIItwMDz9HkeKL8PD6Au/d2klnxqMVBAyUGjRDvV6XDwWGEI7iaNrONRagzVK6WrdA3yZe1nvRl3FcrzbQGGMWBYnrjFuh0pPz+MTObh5Yl8eXZKbKNYKqKpwbbfLdY+OMVAOck3je4AxlaFUlUmVtV4qP3N3FqkIKgJFqyKGzFSrNCO/agT0AuQAybJdmYwHaLCnP7X1cBRkB3gGtLYF7D4JOLndrjDGLbRigFSopT3jf1g4e29xB1nNE1xneEIFSU/nZ6RLHh2qoKm6Gmz6HSR32+7d1snNNllSy+uFYrcWpkXo84n3tr1lXOKUi5YN7H7crsrEAbZbckMe4wE8ELi7WUQIlvqAL4DuZnDyjqjbsYYxZNNexMIqvYY9sKPCRe7ri1QZVrxueW6Hy1qUKL54p0whmPjxHkZL2HQ+uy/Pk1g5yfhwxGkHE+dEmlWZ4/Upr1RKqJ4i0anvXWIA2Sy8+xwuqvKJwcrHXQYeqeE7ozfukPCGymg5jzGIJ0KqEqmztzfDJe3vY2JuNRwaUa88HFLgw3uDbR8e5ONFKQrXM4OeBCGVDV5qP7uhmdUcqWdVQqDYjjg/VqbWidysVKYGeA2q2d40FaLPkHNi7RxXpBzm8WC907et3pPHrxp5civWd6SREW4I2xiz88NwKlZWFFB/b0c19a/P4JKVo1wioTqDaivjpqTJHB6pEqjMantF4YmI+5fHerR3sWJ3DydR4xHg95MRgnXrzXdrlCeMi9InTwPawsQBtliahDPoj4NIi/h7wBJqhUmmGbF+ZYWN3GoFrtlgyxpgFkp4JFYoZj4/d08UT2zrI+skbtGtd6gSakfLWxSo/PV2iESi+m8GmdapExJ01dqzO8cTWDooZN1kmp6pcHGswWGkRKlx7qRYFGAU3avXPxgK0WbKe27snFHhD0BNAtGgztMQjzgOVFrVWxKMbiqzuSNGKbK1FY8yCTM8EEaQ94YktRT54dycdGfeuD/2qcGa0wTfeHmegHOC5meu40Y6+UaSsKqb46I4uVndMtdATJ1QaEe8M1GhFiueuVyUnEcgItny3sQBtlsF1fACVHwGDizI8Jz/7ItRbytHBOvm040N3ddKb92mGFqKNMQtLGMXh9741eT6+o5vVxdS7dhByAuO1gO8fG+dIf7t0Y/oV8M5FyWj4+7Z18OD6Ap5wWUoer4ccHazTasWTFq8V3jXuwHFBl0B3J2MB2pgbHDhSdfBN4IjyLiuzLgKewECpxaFzZbavyPKhZBWvMAKbVWiMmffxCo1HeSOF7SsyfOq+HratyMYx+F1KN+phxItny7xwppy0u5u58KxApIoTuGdVlie3dZD35bLR8FYYcX68znClxbv1OBKogF4AtRFoYwHaLG0pkciJnFZ4CVi8y66KICIoyjsDNd7qq/L+7R18fEcX2ZSjFVqGNsbMc4BGCRTWdqT41M4eHlyfJ+UEja5/fYpUOTFY5/snJhivB0nds8xg7XM8Ir6qmOJDd3exvjNzVYAvNULe7q/FLfPedbVDLYtyThQL0MYCtFna/nDfbkUYFeFbwKnFHDNFIOUJzVB54UyZsWrIh+/uYtfafHwjsjULjTHzFZ41brnZkXF89J5O9mwpkvbigJysBnXNa9pAOeB7x8Y5M9KIg/OMFj7Hqw2mnfDgujy71hZI+3JVOclYLeTYYJ1GGF23fCP5xGWE/oNPPxbaHjcWoM2S9/m9u5vgXhP4mbC4Rw4EIeUJfaUmf3lkjFYEv3h/D/evzSGQlHMYY8xchue413Mx4/OJnV18+J4uihkvHnm+3k1dYLwR8v1j47xwtkIz1LgueSY/VxLsN/Wk+eBdXXTmPHRa6YYINAPl5FCd/okWUXTDwpEauLLtcWMB2iwnQ8CXgKOL/mRIrvBv9VX54fFx1nVm+KUHVrClJ0MU2ZLfxpg5jc9ECiknPLm1yMd2dNGb9y8Lqte6hjUj5ZVzFX54okSlGeE7ZrztRhBBZ87jfds62boig1zxhk5EKDdD3rhYoR5EcfeN63+EKLmPWIA2FqDN8nFw76MByCvAC8SrFC5qvhOagfLi2TLv9Fe5d22eT+/qZV1nhlYYjwhZNYcxZrYFIXhO2L2pwCd2dLG6kHrXkWeROImeGanz/WPjDFZa8aTBGV6uO1TFd8J9a3I8uqlAxndXfS5VZbDc4tRIg2YQ3aj2ugZcBFvC21iANsuMCiMq/LnCO4s7XsYFhb4HQ5UW3zs+zkilxZ4tHfzyg72s60wTJcvVWoY2xszOBVUJo7jd3EPr83x6Vw+berLIVeO8V1+++ktNvv3OOMeGaogQ1x3P1Mdiqh57RcHn/ds6WdOZvuqtnCSrHh7uqzJRD0BulOG1ruigWgcOYwHaLD/SQuUQ8HWU8cUcLuObTnyzODJQ5TtHx6g2Q57c3sGvPNjDhq74hmE9oo0xM5+d41UGVeHuVTk+vauHe1Zl8eTdRyacEybqEd87OsGLScs6f4bv7tKeOOg5HlyfZ+eaXNwJ5IproRJPHnztQpVmoHjXSc/TpmaPC3oUtGJHgLEAbZaV5/Y+qp4y5ClfEvQNFn2lsMTLfAfKz06VeP70BE6EJ7Z28pF7uiimPYJQbRzaGDOD4XkqJG9fmeXTu7rZuSaHJ/Lui6W4dt1zmR+fKlFqRPjOoTqzpRtx32dYXUzx3q2ddGb9q1ZAFCAMlYvjDQZKLSLlJrp/yIQn7qQv0rKjwFiANsuO7yT0nbyOcAC4sPgjdByih6stfnB8guMDVYoZxwe2d/Kp+7ooZhyhrVZojJmR8BxfSxzCPatz/NpDvezZWCTt3j08i0Cg8HZfle8cHWew3MLzuImyiVuPz0GkdGQ93r+9k7tWZuNJ11eWbzgYqQW8cKZEuRni5IZ/rQLDqIw4xHodGQvQZvn5o72PqkBV0W+p8hOguai7J0v7BBHOjTX49tExLow16Cn4fHxHNz9/Xw+dOZ9WZJ05jDF3Gk/jLHnXqiy/fH8PD28okPFvEJ6TBH12pMFfHh6dqnueycVSElEU11PvWpPjiS1FCqlkxUG5/PMEoXJmpMHb/XWagd7MJbaJci5SLYvFEWMB2ixXf7h3t3rIOQ85ABxhkferEBE8J0QKr1+o8r3j44zXA1YUU3xiZzef2tlNMe3RspFoY8zthtNk0mBvIcXH7unm4fUF0p7c8MFcPGGw3OKbb4/x2oUKYQSeg5lOz6pKM1R6Cz7vv6uTtV3pa17ZRaDciHjtfIXxWpCMgN9wCLqq6OkIrf7R3kftImosQJvly8M1PJHvi+i/Bb2w6Hu+CfgClVbET06V+MnJErVmxIpiio/v7Obnd/XQmfWSiT92/TfG3GwynQrPazvS/NKuXvZsusnwLDBeC/nu0TGeP1OiFbUnDc78iimtCDIpx/u3dnD/2jy+E6Jr/1HOjTV481KVRhDhblBGkswhGQU9DGo9oI0FaLO8/fG+3eqEMUT/FPgqcVnH4j9RBEYqLb79zhivnq8QRnErp5/b2cUv7OqmOzctRFuONsa8azCNO1pECus60nzmwV4+ek88t+JGlw9xUG5GfP/YON89NkGlGZFyMguFG3HAF+De1Tk+cHcnHRnvmgu5OAeVZsiLZ8oMVFrJxMGb+Dwio764oyLU7KAwFqDNsvdHe3crMKDwReAQsLgnh4ggEt+gLo63+NbbYxwfrBNGSnfe5yM7uvjEzm46Mx7NUImwDG2MeZdgmvy8pSfDL97fw3u3dZBLuxuOPDsRWiG8cr7Cd4+NM1xt4bmk08VM52eFIFJWFT0+fHcn67sy133LFkXK+dEmb16qEkSK5+SGkxjjv0lHHIwf3Pe4XTKNBWhjAA7ufTwUOOTgXwu8qXEHpMWboZObl6IcGazx9SOjnBtrAMKKvM+ndnbzaw/1Tt5kbNlvY8xVobG9SAqwc02Ov/bICj5wdxf5lLuqJdxV1yAHIcobFyt8/fAolyaaeE5m41MCSiuKKGQcH7qri4c3FOKez9HVf1QERmshL5wpM1hp3XSoEAiAswHYCoTGArQxlx9cUvNxXwf534GTi/4bShZZCSPl0LkyX3trlMFyACJ05Tw+urObX3+oly09GaKoXc5hKdoYE6fNMOnas2N1jl9+oJdHNxXJ+TceeRbiEYijA3X+8vAoJ4fq7WssMz30rEqyEqLw8PoiH7yrk66cd82ALxJ36Dg90uDVC5V44ZSbDPWiMi4qhxWs/tlYgDZmugP79qgTmRBxf4byeZThRV/bIHF/6For4vnTJb53bIxSPQSEnO9477ZOfun+XtZ3pQkVm1xojEnKIeIofPeqLL94fy8PbiiSErnh9aFdTnxyuM5X3hzmrb4qCngSl0nMxhh0GMH6jjQfvCternvyun3FFxMnlJshr5yvJLXPt/B5hFGQw6jU7QAxi5Fnm8DMpte+9Ps8+Kt/t47qOYEUsB2huGjzM3G9oZP4hthfapHxHWu7MqQ98J2wtitNZ9ZjvB4yVg0INV6YRcSOB2OWXXZWJYzia8MjGwr88oMreGB9kbS7uYdrccLFiRZfeXOEF86WiRRSHszOBSVeMGVF0efn7uvhPVuKpL1rj5C3R8UP91f5+pFRJurRVCeQm6p/5ggiB557ene/HSVmMbIRaDPrDsT9PU8B/wb4AsroYv+e2iF6tBrwV0dG+fGJcaqtePpg2oP3buvgrz+yYrJ2MIisV7QxyzE8BxGkPOHJbUX+xu6VPLyhcNPhGYFL402+9uYIh86WiSJI3VR/5duJzkorUrK+44PbO3n/XR0U0u66n1OcMFIN+cHxEoPlIF518OaHoCvAW4gO21FiLEAb8y4OPr0nAs4A/x7h28kFdNGHaAT6Si2+fXSc1y9UCJKbjS/CrrWFuM5xYwHPxf1ULUQbs3zCcyuEXEp4YkuRn7+vh20rsgg3P/I8UGrxV0dG+cnpErVA8Z0wW6+y4nkbcO+aHO/f3klPzr960mA7OAg0AuVwX5Uj/TVUFe8WPpegQ4i+CjphR4qxAG3MjUN0CLwN/AuUAyj9LPKObw7wBM6NNvjaW6McvlSlFcUj0b7AzjV5fv3hFXz4ri6KaTe1aqHlaGOWanImUqUVKl1Zx8/f181ff3QF21dm4SbnRDgHw5W4bOO7x8epNkO82cvOcU/qSNnWk+XTu3rZ1JOJP+v1vkURLo03+NGJccZrrSTY39KXHBDlDVHr/2wsQBtzsyE6AF4B/mfgD1DOL+pvKCnlEIGjg3X+7PUR3rhQpRXFraBEla0rsvz6wyv4+ft66M37BFF8w7IOHcYsPZHGo7nrOlL80gM9/PyuFazryiTZ+mZGnmGsFvKdd8b40ckJaq145Hm2plCoKmGorO5M8en7e7h/XR7H9S9PzkGpEfCTUyWODtZQbi07q9JU5agqF1nsawQYC9DGzGmI3rcnAI4DvwfsR7nEYh6TFYkXMwDeulTly2+M8nZfNWkFFd8x1nSm+Ln7uvn0rh7WdqSI0MXdGNsYc2U0JFQlQtnQleKXH1zBx+/tpSfnEYU399ZJBMbrEd95Z4LvHJug1opXGYxri2dn0mArVIpZj0/u7ObxrR3X7vfc/nzxf8KpoQY/PT1BuRHGo8+3ZgLkBZARVZtZbRYv68Jh5sWbX/4DfeAzf6cMvI0wrrAW6JVFe0wKLpmBPlgJGKkG9OR9VhRT8QIsEeTSHht7MnTnfEYqAWP1aHKpXKxLhzGLODrHPZ6dE+5ZleNXHlzBE9s6yKfcNZe+vl46Ha8FfPudMb7x9hhjtSAeeZbZGX1WlDCEjO/48N2d/Nx9PXRmvamR52t8USfCYKXFVw+P8nZ/Deckrn2+yYtXMlp9xoP/08GpZG6MMYuSjUCbeXPw6T0K9IHsB/470J8ouohr4uKRaCfwxsUqX3pjhFPDcYvTeMEBpZj2eO+2Lp7avYo9mwr4nhBG7VuLMWbRhWdVglDJ+I4PbOvkqd2reM+WDrKe3HR4jlfzC/irI2N848gYo7Vkie5ZKtxQJQnPwhNbi/zcfT305PypgoprhWcH5WbIC2cqvHa+giq3PqlRCQXe8EXO+CIWns2iZiPQZl69+eU/4M0v/X7jgV/9u6dBzwG9gqwFsos1RLskDg9VAlqBsr4rQ1fOxyXrmftOWNWRYlUxRSuIGK4G1IKk3ENmr9bRGDOzIVSTvsk53/GRe7r4xft72L4iiyc3P8VBJK55/v6xcb51dILxWjg58jxbFwNVRRw8uL7AL9zfy5beDHKDKpMIODpQ4+tHRumbaE59xlszrvAcIj/+/L7dTTuKjAVoY+7QW1/6/fCBz/xfz4nI66BDiqwX6GFRviWJyzEiVc6PtRgst+jJenQXfLykvtABvcUUW3vT5NIe/eUWlWYEOrVYizFmoYZnnQzIaztS/NL9vXxqVw+rO1JJm7qbvVLAxYkmX3pzhG8fnaBUD/Hc1DVkVj53cn3ZtSbPrz60gh2rc3i8e3h2yWIuf/baCIcvVRHico5b+ZAaf1vHXTz35dSbX/4De+1mLEAbMxMe/NW/EwEDwBsgF4A1At1ABhbRwGxyX3EuLs84P9ZkuBrQnfdZWUzFITr5hooZj83dcV30eC1gtBYQWYg2ZoEG5zgKhgqeg11r8vzyA708eVcXXRl33cl31wrOClwYb/Llt0b4/vEJ6i3F92bv3Fd08rqzuSfDZx5YwYMb8nF41ncLz1BpKt89Osb3T0wQROB7tzP6rA1BfuCEPznw9J4xO5rMYufbJjALxcG9e9qX8bGnnn35S6heBH5d4W8grJPFFKKTj+o7BREO99VwMkLGE+5bm8clr3hVoZB2PLm9g+68z18dGeP1ixXCSPEsPxuz4EQKWV94fFORj+/o5p41OTyJW9fdSnjum2jytcOj/Ox0iTCCtC+zOxNC45rqjd1pfmFXDw+sf/d2dRAPBLRCeONihR+fmqAZRKRuKzyDQD8S/UCRETuKjAVoY2YrTO/bXfvcM4d+DJxQkTdAfwd4GCiyqEajBQ8lBA731/DeHEGBnWtycbuopC467YQH1uXoSHus7Ujxw5Nxi6jJ1XFtNNqYeTNVsiGsLqb50N0dPLmtg3UdaeQW650jhVNDdf7qnTGeP1umGSi+m/7YPQufnTjgb+tN8ysP9vLopgIZT67/uZOhakU4NVzjm2+PcWm8dZsjz8TD38JZlJcX90RxYyxAm8UhAi4KfBF4G+XXFP4awmZZRLXRIoIvShjF3TnqrYhP39fDo5uL5HyZXELXIWxfmaG30MuG7jQ/OD7B8aE6oSoeaiHamPm4CCUrC6acY+fqLB/b2c1D6wsU0x5Mq4W+EScQqPJ2f42vvDHCG31VwiheyXQ2z+yk6oQtvWl+7eEV7N5UxHe8e3gmLkG7MN7kK2+O8GZfFST+Hm7TGCrfRDjNTRe6GLOwWQ20WbDe/PIf8OaX/4AHfvXvhkk5x1uIDAIbBHo1eQBcHLFScMSvaIcrAUOVgELGsbYzQ+qKkaBcyrGhK8PKYop6K2Ko0qQVWl20MXMpfjsUh+es73hia5Gfv6+Hh9YXyPnulsotnIMAeKe/zlffHOW1i9XJjjwyS4ukKMkqgxFs6k7zi/f38viW4lXXm2t+Xk+oNCO+8fYoPzo1QRByu1032pMHT6RE/neHnPzivsdCO7rMUmAj0GbBO7j3UQWCp545dF7g88BboJ8Q+JuobFXIsBgKpJNVYiLg+FCdL70+QrMFj28p0pl1kzWUqpDxhAfX51lZ8Nm2IsMPT0wwWG4RJasbCourItyYxRWeNZnMK2ztzfDRe7rYs7nAinxqqm74Rudf8mdEoBYoL50t840joxwfrMc9lL3Z/fztkLy1N8OvPrSCPZsKpG8yPJebET8+OcEPT0xQb0X4dzYhIxR4BTgu0LKjyywVNgJtFo1kNLoFel7gNQ85CngKPQiFRVHWIYIkLapKjZBzow2agbKuK0M+ffnp6IDOnMfm3izrOjM0Q+gvt2iF8eqFFqKNmZ3gHKlSyHjs2VTkF+/v4YmtHXRlvct7JcsNT3WcEyYaET85McFfHh7lxHADJ3EHj9laerQ9r8IJ3LUyy688uII9m4s3F55FaEbKoXMl/vLwKH0TrZlYDbFPkP9NhVe/sG+3jT6bJcNGoM2ikoxGh7+x/9CIKH+lcBz4CPC3gUeB1MIP0eBUUJS+UotvHR0nVOWTO7tZWUyhyV2uXbtYSHs8srFAb8FnRcHjZ2dKjFRCFCW+D1uKNmYmkmeUdMZZ05nmQ3d18p4tHazrTOE7ubzLhtzwFMd5wlgt4LtHx/nO0TEGKgHOJf2TZ/F7CBU8Ee5fm+NT9/Xw0Po8aXfjiY4iEKG8M1DlG2+PcW60gUse+O9AKPAOyBsaV7EYs2TYCLRZlN740h/w0Gf+bhjCECJHgDeEaAjoVSQPpBd0rJT4HyJCPYg4P95gvB6yusOnI+fjnCRFjMmJKtCd89nSm2FNZ5pGEDFSCWiGTJvcY0HamFvPnHHoDKN4/sGeTQV+8f5entzawapiCidycxMFJ0s2BHUSt6l7a5TvHB1nuBLikldkMmsjz0orUjwHuzcW+MyDK9m1Lj/Z7edG4VmBYwM1/vS1EY70VwGJW2ne0efVi8B+4AeINN/80u/bAWeWDLvjmkXvqf2vCBoKor2oPKwqPy/Cr6JsUMgt5AHaeJRZCSPFOeHh9QV+8f4edq7Nk3ZCFF1+53MiBKqcH2/wyrkKPzpR4sJ4g0gVz4kFaWNuQaRKEMbn3sauNB+5p4vHt3SwqujHvdqjWzmR41HnZqicGKzxF4fHOHS+RCtUUkn7itkMz81Q6cx6vH9bBx/f2c3m9vLcNxGeAU4ON/jT14Y4dL4MKpMrIt6BAPgLiP4bRA6DFx3c+6gddMYCtDELL0i/KKj4qKx1Ih+NVH9B4UMIq1jgHTtUlSBSfOe4b22OT+7s4uGNHWR9Qa8I0RIXQFNuRLx1qcp3j07w2sUyQTL65IlYWYcx1z3X4sQbRUqgSi7l8ciGAu/f3sn96/J0ZDw00lte1MS5ODy/eqHCN98e5c1LVYJQSfl3XAbxrt9MqNAKle6cx8/d182H7upiTUca0JsKz84J50cb/Nnrw7xwpkwzjPBmpjPIEOg/R/QAUDq493FbuttYgDZmwYboZw7hQJxINlTdCOyJ4BeADwJrEbILNkSjcU9olPWdad6/vYuP7+iiK+dxrbt5ezT64niTV86X+empEudGmwSqOLG2d8Zc60FVNe6E4zthS0+GD97VyaMbC6wspvBE4jkIemt3SBFhrB7yw+PjfP/4OBfGmyhMLpAyK7faJDwDbOhK8cmdPbzvrk46kyXFb5RW2y+rzo83+bPXhnnhbJlWqPh3XLYBxKPP3wL9B4iePLj3cev9bCxAG7MY/O39L0srUiTu0rHJCQ+EymdU+KjACqBzIR7/7VXDwgiKGY/3binyieR1rHeNFc8EEE+otyJODdd5/nSJF8+VGS4HhJHiezK7k5aMWRTJOZ4gF0SKQ1jTkeKJrR3s2VRk+8ps0qHi5hdFmTz/XNzx4uJYk2+8PcZPTpWYaAT4IrO6gmi79CTtOx5Yl+dT93bzwLo8GU+IbuJ7EIEQODlU5y/eGuHFs5W4jGzGPrP2Af8c0S8e3Pu4rTxoLEAbsxj95rMviwO/pXqXwsMC7wU+jbAFyC7I+71CEEVkfOGhdQV+7r64LjrjXV0XDfFr2AgYKjc50l/jJydKvHGpSiOIe7h6thy4Wa7ZOVlMJCJeEGXX2hwfSMo1uvMpXPLm51Y5F78BOjYQL3X90tkytVZEykuaTM7S6RZG8YNAMeN475YOPrqji7tW5vEd17w2XP25IYjg7f4qX31zhDcuVWmF8Wj5DF0jAuAHEP09RI8e3PseK90wFqCNWaw+98whURAFX2AFog+DfAj4MHC3QheQWUgnRbs7gBD3c/3AXV28d2sH3TkH15kcJC4evb443uTQuTI/PTnB+fEmQRgvwOI5q482yyg4qxJFgu/ic+h92zt5cF2etV1p/Ha5xq3eNJMSh1I95KWzJb53fILjQ7X4jU97gsKMn2Jxi70wUgRhc0+aD9/TxXu2dLCy4CNwU6PnzkE9UI70VfnSG6Mc7qsgknTbmLnQfwrk/yvo55GofsBqn40FaGOWhqeeOSSIAtKZhOcHgJ8DHkNZK9CxgFI0EdCKlO6sz3u3dvCxnV1s6s7gy3VCNCCeoxmEnBqOu3W8cKZEX6kZv8J2Ek8SMmaJBud2P2ffg/VdafZsLLJnSwdbe+NyjSiMuJ1UJwKhwvmxJj84PsZPTpUZqgSkXNxqUmflvIpHyMNkSfE9m4p8bEc3O9ZkyfqOMLzxdyLJw/VYPeT5kyW+fWycMyON2ehLXQG+ICK/K8jZL8Z9+42xAG3MkgvT+1+WCM2Kss3Bg6p8FPhk0rmjuBDOEU1CQStUcinhwXUFPr6zm/vX5cn67rodA1wyk3C8FnKkr8pLZ0u8drHKeC1ez8CTpO2dhWmzRISRTtYAd2Q9Ht9U4IktHWxflaUr608ulnI7wVlEaITKO301vvnOKG9crFJphvgumWcgs3Pex7XJwppiivdt7+DJbZ1s7M7g5OZKNtqD4hP1kO8fG+c7R8e5MNHEF8Hdeau6Kz/zEUH+CxG+e2Dv7qYdkcYCtDFL3G/sf1lESYUarUJ4RNEHUPkEyEMidAPp+U3RcUgOorhDwObeDE9u7eC92zpZ25HCE64OBsnCDs4JYaSMVAPeGazx/KkS7/TXKDfD+JVw8gpXsTppswhNLr8dH+u9eZ/71+Z4aEOBnWtyrCikcMny3Ld1k5T4vx2shPzs1AQ/PVXi9Gg9HuGe4ZIohWS58GQUHcj5wqMbi3zgrk52rslTSMczF2/mu3ECgSqnRxr86ESJn5yaYKwWxD3jmfGH57Iqv4fI/+e5fbvH7MA0FqCNWSY+98whFBVEUSUH7h6Qx0T0F4H3AL0Kufk+caJkVCqX8nh0Y4FP7Oji7tU5Mv6731idi2foD5SaHB+scehcmcN9NSbq4eRCLp6zS4JZLME5LmuINC6f6Mx63Lsmz/u2d3DPyhw9eT8Ov+0keouHdnvUudaKeLuvyveOj/PGpSqlejh73W1UCZJa56wvbFuZ5YnNRfZsLrK2MxPPfWg/Kd/gyzvnqAfx26e/PDzK4b4azVBncrLgdIGiP0X5RyCvPPf0HivdMBagjVnOntr/Sg7Ve0GfQPm4xh08VgPp+Rqs1eSf7RXOtq/M8sG7unh8S5GepGf09QbbhHi1tFYY949+p7/GK+fKvD1Qo9qKUOJJSp6zy4NZoKkZiKLkjYvEy2/vWJXjPVuK7FidY0N3Ju5IESq3m+LaZQ+lRsRLZ8t8++gYJwbrRMQTBWXGJwomo+iRgggdGY/HNhd4/7ZO7lqVJZ9OejvfTIs6AAcTdeXlsyW+c2ycY4M1VNuTiGcj9usZ4H8B3S/qqgctQBsL0MaYp/a/7FAyorrBCY+Fyi8ofEhgpUJeZG7Po3aAFuKOG0EUr0K2Z1OBj97TzZYV8eQi3qWvbbuTQCtUBktNjg3WePlchXcGa5TqEWHyH87w7Hxjbv+YT45nJa7fL2QcO1bneHRDkR2rs6zrSuN7gs5AcK61lLMjdb5/fJxXzlcZrgZ4EpdExH9uZk4InVauIQKFlOPeNXneu7XIrrU5egopXPLAcDN3cxEhCJXzow2+f3ycF86WGazEn719Ls9CrfYE6B8q+i9FOPOcdd0wFqCNMVf63DMvO2CTCHsi1U8Cn0BYD+TnL10ojUARB3etyPLktk6e2NrB6qIf33z1+nc+kXghFo2gv9Ti1HCdQ+fKvNVfpdwICYI4jLQnSdkFw8xHcG6PNqecsKLgc9+aPI9sKLClN8uqjhSei0sbNLr9O1u7Xri/1OLFMyV+errMqeE6oUJmhpfjbgdnVRCEfNqxY3WW924pcs+aPGs700lwvrnyk3Y2Hm+EHL5Y49vHxjjcV6UVKmlvVltXRsCPHPxXCIe+uHdPaEetsQBtjLmu33r2ZT9U3SzwZAS/ovAhEVYC/nykDKVdD6r05FI8trnAx+/pYnNvlmQw+t0vBMlkw1aoDJRanB6p8/rFCq9frDJWDSdHpN1kiLZRaTNrz4MI8YNbNDniHK/M+eD6PO/d2smWnjSriqm4rj+69RUErwrPDhqBcnygxveOT/D6xQojtQDX7pEs3HGAnvqMUxME056woSvNY5uLPLqxyJaeNCnPEd3CqohOIEQYLDX54YkJnj9d5vx4Y3K7zVp4jp9uLiH8bgp59o/37ana0WssQBtjbug3n31ZRDUTwBYVnhD4VeBJ4qXCU/ORPCKYXOJ324oMj28q8p6tRVYW0qQcN2zhJQKSdO0YrQacGWnwdn+Nw31VLo43aATx4i4OZnWpYrNc03M8SbbdUSPlhHWdKR7ZWODu1Tk2d6dZVUzHpRS32ZLu8uM9Xk2wf6LJS2fL/Ox0iTOjDcIoXplvph4UVZP+1MTnTiYlbO7OsHtTkZ1rcmzuyZBPO0S56e9JiId/xxsRb12s8IMT4xwbqFNthnGXjdluUamMgn4R+F1xXDqw9zEr3TAWoI0xt+ap/Yccyj3Ax4G/BjwC9MzXORZG8STDzqzP/evipYt3rcvTkXaTN/QbcU5QoNIIGSi3ODFY46WzZU6N1Kk0IoLk7/Dao3N2NTG3mcRU4wVKSCa6pXzYviLLno1Fdq7OsaErTT7jEy8qcuc5TZK3MqVGxOGLFb57fJx3ButUGiEpN3P9kduLurSDcz7l2NKbZfemPLvWFtjYnSbjO/QWRpwlqdeoBRGnR+r84PgEr5yvMFxu4Ryk4hnAs62lyrdA/1uBQweffiyy49hYgDbG3Jbf2P+KqGpR0QdAfwWVXycenc7Mx4mmqgRR/Hp6fVea3RsLfHB7F+u70/jCZOnHzQRpcVBvRlwYb3J+rMGr5yu81Vel3IimAo2Vd5ibjsxTx2i7xldEKKY97lmV5eENebavzLG+K0Uh7aHR7fdxvuqGJ/HKnudHG/z0dJlD58pcGGsSoaS8O691npzwmPyLiJBLCdtWZHlsc5G7V+VY15mikIk75tzsA0H7UwUKQ5UWL5wp8cKZMqdGGjRaUVynPScnnqLIm8B/D/zFc1a6YSxAG2Pu1OeefVmUSIBeVB5T+BvAJ0VYxxzXR2tyB490ahnge1bleGJrB49sLNCb82+qPnryYtGe5R8pI5UWF8ZbnBqq89rFCmdGG7TCCE1eQbcXZrORaXNl9EKnWtB5IvhOWNWR4tENee5dk2d9Z5qVRZ+Ud2sjszcjUGWoHPDyuTLPnylxbrRBtRVNLSzSPtBv97ub9lDqOejO+ty7JsejG4ts7smwujMVjzhHycPDLWhGylg14LULFV48W+bUcINSPcAl5RpyR5/9lnbgJRX9H8F79rl9uyt2VBsL0MaYGfXUM4c8FTaAfEzQvcCDQPd8nHeahGhV6M573Ls6x5NbOrh3XZ7OrMMhtxRU2q+4a62IvlKLC6MNjg7UeKuvymClRRgmX492vbSNSi/r4KztiXPxstQpJxQyPveuzvLoxgJru9Ks7UjRmY2fMTW6/VZ013rwi1DGqhGvXyjz0zNljg/WJ8OnPwPLcE///lLOsbKY4tGNeR7eUGRDV5rego8nclulGo1QGa40efV8hZfPVTg72mCsFuJk1vo6v1uAHgD9I0T/fwiXDlrLOmMB2hgzKyH62ZcFKII+DPorwFOqsql99s31Cdi+0ac8YX1nigfWF3hya5HNK3KkXXuy062FExCCMGK0FtBXanFmuM6R/jrHhmpUGmG86AVxZwU3GaSF+doGZnYf1Kaylk5OnkPiUVLfCRu70zy0vsD2lVk2dKZYVUyT9uWq//5OuaR7Rr0VcWKwzk9Ol3irr8pAqUWo8ej3HYXPaa3oQlVEhO6czyMb8jy2uci23iw9eT+eS3ArZRoSn1ehwmg14PULVQ6dK3N6pM5wJUgWRJnrCbyKQgPkz0X1fxJ4/cDTj1nLOmMB2hgzmyH6FYHICbpakE+Eyu+A7kHonK8+Fu02WRlf2NSdYc+mIrs3FVjdmSbr3V6YEYlfXzdaynA1DtPnR+sc6a9xdrRJqREQRTo5WUyEaYHaLI0AnYzEajxRzxch7cet2naszrGlN8u6zjRrOnwKGS958zGzg5guOQ5rQZTUOZc4fKnGhYkGrYDJ5erv9LjTaGoBlHza45GNBZ7Y2sG23iy9eQ8nN/+9STIRN1SlHkQMlFq83V/l1fMVzo41Ga0GcVu69mef6+gMIfBDhf/WKT8TaB142rpuGAvQxpg58Lf2vyyhajpE7xX4m4r8TZRtxINh8xB2plqGFdOOjd0ZHlqf5z3bOljTkSbjyW3VoApxK7w4TIeMVAOGKiGnhmocHaxzaqTORD0kjOJuIe1VFZ3MQestM+PHkCb9x9sL7nhOJh/M7l2TY/uKHGu7UvTmPAppH+clJRozHL8kGbmtBcrFsQY/O13m9YtVLk40qDcjfE/iBYFm4CEhjOKvVcx4PLAuHnHeuTrHimIKScL1zXze+GxRmpFSbSpnhmu8danKkf4a/eUWY7UAQfA9kHm6XSsaAC97Iv8tyLe/uHd3y458YyxAGzOnfuPZQxKizoN1ID8fKXsVHkHilQznp1vHVJDtyPrcvSrLk1s7eGBdnq7s1ETD28k77SXDVaHSjIP0YLnFpbEmZ0bqHB2sMVYLJwNYpEkAv6q0QxC7Ys1DeGLajtfLg/P04IqQ8mBDd5qdq/JsXZFhbWealQWfrpyP5xxoNOOhGaaW124mvcsPnStz6GyFUyMNSo0wWYJ7Zo6f9gi7E2H7qiwf2t7JvWtyrO1MkUpW9Lzhw2XyGUJVmqEyWg15p7/K4f4aZ0cbDJVblBohguAlDddlvvY9RAJvOuF/dsifeUj1D/c+aiPPxtjtyJj58Zv7XxIiKYTwSNKp468jujbOA3N/WrZfNce1odBb8CdLOx7ZUKAz55N2yYj09Cx1Cx+1PeIWqdJoRkzUA0ZqAf2lFufHGpwYbnB+rEkjiAhVCcN48pdLApqzhVvm5bhQpt5WxIFV8CQOd51Zjw3daXasyrG5N0Nv3qcn59OR8fA9R7tX4owlrmnH3dQku4jBiRYvXyhzpK/G6ZE647UwGRFPHr5khraFQj7j8aG7Onnv1iJbe7Kk/fj7nHw4mP4ZrzhHVKERKaVawKnhuLzpzGiDgXKL8WpIK4wmJ9zOZ0tInfq4xzzkf/JE/8TDTVh4NsYCtDELwmefOeQB60T4FUX3AQ8Ikpnv0BSEigh053229mTZvanAAxsKrMynyPjTSjv09q4ibtowcxAo5WbIWC1ktBrQN9Hk5FBc6jFcDQgCJVAljJQomlp23LNAPSvaZT3tOvn25D/PCVlfWNuV5q4VObb0pFlZTNOd9+nNubivsQhEettvLG6U6ESmjrdSUxkqN3n9YoXXzlc4NxqPOCvgOzejwVOT7eKJ8P5tHfzaQ72s7crE/Z6Vy77Zyc8ogkNpRVBtRZQbAf0TLY4P1Hl7oMZAucl4LaTWihABL/nM831E69RPJxH5Fw557sDeR8ftzDDGArQxC8pTzxxyCN2KfhD4z4CPCFLQ+TpJk6E0BYIo7pzRk/fZviLDY5s72LU2R28hfmWNcse9egXiXnfEfX/rrSRM1wLGawEXRpucGW1wYawRt8hTJvtNT42KJu3ykvF7uTwM0B4OXI4XPL38H1dtm2haLXy8Lduj/ZD2HKuLKTZ2p9nck2ZtZ4begk9vzqcrF48yS7Ksts7i2OTUsvFKPalx/unpMkcHavSV4iCqOtXlZaYfrNqlG70Fn71PrGHPpiIumV53ra8VRnFd80Qt4Nxog3eSkebRash4PWS8FqDoFZ1A5ndC7bTdFwEnBPk9hM8LMnjARp6NsQBtzIIM0fsPiaJplAcEPqfIZ4H1oE7m9TSNg1ErjENqb8FjXWeaB9cX2L2pyMpiipwvcTcF7mxUuq09Ot0e9as1I8ZqIRP1gNFqQP9Ek4Fyi/PjTYYrAdVmiGoc9iOSld2Sz+AmlxmXyVrZ5ag92U+T0KcRk9uk3U/YCWRTHms60qzv8lnTkWJtZ5qefJqurKMr65NJu/hBRWdhlPnKNCdT9dWBKpVmxPmxBi+eLXNsoMa5sQaVRrwIiu+SLjA6OyG0/ZC4oTvN7zyxlh2rc/gSb81QhUihFSrVZsBAqcXZ0Sbnxhr0T7QYrcalStVmiDC1rZPngQUzaTY5NkJBDjnkfxXhG8DIF/futvBsjAVoYxa2z+1/SYB1ivx1Vd2L8oCI+PP+wTSuRw7CuONCZ9aPW5OtyvHYliIberJ0pCTueXvla+07vMo4AYlXbpkcoa40Q8qNiEojYqIRcmmiyYWxBkOVgMFyi0ozXmI80nbAif8/OhXKJldLXCKlIDot1LbrltsPNS6pWW6PLnsi5NMeq4o+KwopNnSlWNeVpiuXoph2FDOOYtqRSXlJMGVylHlWQzNx+7v2QdOKlNFawMnBKq+cr3J8uM7ARItaK5osK2kfYzKr2zbelvm04z2bi9y9MsfKgk8jiCg3IkqNkAvjTfpLLSbqIeVmSKkR0gx08gHFSyYDLqDMfGWAbgIv+8jvOpFv/vHe3XW7IhtjAdqYReM39r/sgF5V/WSk/D3gMRGyCyFEt7vChlE8OlzMxJPI7lmV44G1ebauzNGVFfx24J3BFeXaF6ypOtj48hVGSqUZMlEPqbSSQFMLGKkGDJdb8c/VgNFai2ZA0qdYJ1dmbJcwTO+QIDJVCtLub32t7iDXK1vQm/xervcbcsXfFU2boDb1bDItMOvUaLtzl5dhOBF6cj4riz6dGZ9VxRRrOuNV/4oZRz7t6Mx4FDIevpPLvtCsBuYrv+2knEFRai1lqBwvFf/yhTJnRpoMV1vUmhG+SLIS5tw++Giyw3NpRyHlkUs7wkhpBXE3jXIzqWdO9oEkZUXtnbpgn9EUVCiBft8T2e8h3/SQ8r+3sg1jLEAbs9j81v5XJNIoFypPAE8L/DywYqGcse2uHVESQLN+XCe9qSfDoxsL7Fwd10lnfUmWMJ7q6DAbnIAmCUWJyzgarYh6K6IeRFRbEbVWxEQ9ZKwaxB1AqiGlesBwLWCsGlwWpttVIFHyoNAOsVE0rY74OqOeTm7+ynq9lR+nD+DH9d1JDbe0J08yOYmyXYbRlfXpynp0ZH168z6dWY+egk8x49GR8cinHGkvHnnOpR1uWnHQrJdkvNsDURLam5FSbYT0jTd56VyZt/trjCYPQkGk+NM/7zylUZ0+wbL9+ZNPNVmWMfVEsKBvsMlDWCTKiMKfIvIHKZG3PGj8oZVtGGMB2pjF7LPPHPKBHQL7ED6rsHEhnrihxiNxIrCi4LOmmGLnmhwPbSiwtjNDR9aR81wyWjq7E86mB1kRQa8YMm4ESjOMqDWVehhRb8arvzXDiHI9pNyIX7/XWxGleshYPQCFUiNerlymfc+RxuFzKpDEq8lF0WS6un5wbH/GaX9Mk1Fkz0297i+mHV05HydQSHt0Zj2yfvxr+bSjmHXk0z5Z35FJxZ0ysr4jk/zsnCRL1ST/jKYmX87LTUcub2lYaiqlesA7fVVev1ThwlhcClFuRvgOUk6s28rsBOgQ9LCgX0TlP4KcOvj0nsi2jDEWoI1ZEp565pAnyGYV/ZsKf484RC+YOXHT+0IrSiuMA3JH1mNNZ4oNnWnuW5vn3jV5uvM+eX+qdnWuwvRl4Q1J6mwvj7ORRgRRRBAqzSCu966H8Ug2QCOMJzSKxMG50ojD9vTLaKRx54VyI7rh1TXjC105n7TnLtuWGR86cz6pZDXHtHNkUw4nSspzZHyH74RMSvCdkPIE59xUVYtONSKL5nj7vusDTVLbrMQlD5VGxIXxBq+cr3JmuE5fqclQJaAVRqScxG3d7C41SycsVRVeAf6NEH0TZPjgvscsPBtjAdqYpeVzz77sFFYCn1X0aWCXQGrh3ZyT0ViJ66Tbr9578vGo9IbuNA+sLbBlRYZixqOQcvheEqYjnfMSgsu+oEyvsZZr/BG57I+rRoThZY3yiIBGENEI9F0vsJr0Vs75Vy8v7Rw455haSmPqU0x2bki2dbv++aoNt0Cu7C4pGo+Skf9aK+LSeIPjgw2OD9W4MN6cnPTpCfFy23Dd9nDmjrVQLgDfAr6AyPNIWD+493Er2TDGArQxS9dv7X+lI9LokxH6TxR2g3gL/SSOFIIoDpsZ39GbT7Gi6LOlJ8MD6/JsX5kln3bk2uUGOhUOF/rF85oZ75aGTa8uPFZYMKPGt3VDaU8GTEJzPYwYGG9ydLDOieE6Z0cajNQCyvWQUJW0d3k9tpmtZ0WtAC85df9e0W8DFw8+vSe0LWOMBWhjloW/9eyhQoh+JoR/DDwEklrwJ/K0iXhBMkOvkHH05nw2dGfY1pth55oca7oy5FKOnE9S5iFzXuZhbuNBol2eoUotiIPzcLnB8aE6p4YbnB9rMFIJmGhENIJosq1e/BBit6HZDc40gHOofg844MS9cGDf7rJtGWPujG+bwJjFxYlUVfkyaD2E/xL0MZDUgv7QIoiCEyXjxaUQjUA5O9bg/ESTw/1VfnSqxKpkZPruVTk29WYmR6bT3tREsnkp9TCXB+Z2Pz9VgkipNZRqM6K/1OTYQJ3zYw0uTTQZqQZM1ENakeIl/afTnkxOabTsPKtaoIPAj0D+I8jzoH0RUWCbxpiZuRYaYxah33725VyL6BfiEM0eWegh+joXIEUJIpK6YaWY9ujKxYt8rOtMs31Fju0rs3Tl41UPs348ehmnaeal/dryC8xTd4sognqo1IKISj3k0niTd/prnBqpM1ILGK/FkyuDUEn5jlTSl9r20ZwJ4uAsr4N+CfgOIscP7rVyDWMsQBtjAPituJzjUxHyX4PuAVKLrZq03cVD2ou0KARh3BAgl3J0ZFL05D1WdqTY3pvh7pVZVnakKKQ90skyzm56TxIL1Hd+Y5i2OaNkMmgrWbBmqNzizEiDE8MN+kutuNVfLaDUiNv9+V6y6t60RWnMnAiBEeBt0P8EfA/Rk0DFJgkaM/OshMOYRcwTqaLyDUElhP8H8BiQXnRP8ck/BPBQfN9Nrng4XG0xWGlyYrjOkUtVOnPxqnnrOtJs6k6zoSvNqo4U+bRP2od00toNplpWWA31jbY9k9srfhsQ0QyVWhKY+ydanBltcGG8QakeUWmGjNdDmqHiiOvVs76bWqr6yhRuZvP5swYMAu+AfgXkZ8n/L1twNmaWr5/GmMXtb8flHJ+K4J+B7BHwllxSUE1a40VJv2RHMe3IpeOV9tZ3plnbmWJ9V5p1XSmKmRQZX0g78JzDd1dc8aLLV/xbDkFZpidcZXJ7tiLi5ajr8UqAFyaaXEp+TDRC6s14ifRaEMYPOeLwPK5qwWfmTKBQAQaAFwW+CrwB0cmD+x6v2uYxxgK0MeYm/eazL3VE8JkoHol+APCXcnOweMntOFQDZFKOQsrFEw9THt1Zjw1dcaheUUixspiikPFI+YIvcemHL4K4dvFIO6mzaMtALhtRFpAkLGvS/SSIIIyUZsjk6PJQpUl/KeDiRIORakitEVJJlj6vt+KHFZdMAHTObhnz8vAIiBICNYVx4B3gJ8DPEI6JyNmDe3fXbUsZM3eshMOYJcITVxbVPwethvBPBXYDbik//Xsi+F4cMKJIGasFjFTjdnmewFt9HrmUkEk5sr6jJ+expjNNV9ZnVcFndUeKjqxPJh1PdvNcHK7bgVGmjdrqlV9c5+mb5vKv3R4EjjQOx5FCS5UwCcyNVkSp3mKgFDBYDhivBwyUWozUAhqtiHqg1FsRlVZIEGkclCUeXU55whVrt1hlxpzmZm0AZZAScB54HuF5lCMCFxVKxLXPxph5uhwbY5aI39x/KBegn0P5pyB3sQwzT7u7RxhBqIomI6+eE7IpR8oTcilH1hdSnqMn77GimKIr49OV8+jIenRnfQoZj3TKi0erXVylnfLiiXFOwJepSXIO3mWBdb31S3CyFHc7uQYIYdLCLwyVUJUwEgJVgjCk2ggZq4WU6iHD1YDxWsBIpcVINW4jF4flpLa5FRGG4Llk5UMRvOR7saLZeRMS1zNXkx8ToEdFeEFU3lLlgsJFERk5sG+3hWZjLEAbY2baZ/e/vBLV3wH9vwMbl+M6b3qN7KroZNu79gItkULKg4zvkfKEjBePvKb8OGj7TujIevTm4t/vyvlkfY+0J3TlPLIphyrk047OnI9/xeNKXAIRj+xeths07jgS6TUuxAIT9ZCJWoCTuPxirBZSbUaEUcR4LaDajCg1IybqIc0gohUpzVBpBRGNMKIZxJMBW6HiknAs05YrnzwmxG4G83BoBqAh0AQJgLrGI8xHBH0b5BhwCXQQYdBHSh4S/eHe3fZ8Y8wCYSUcxixBDhlW9CDQo7APWLtsRwfk8l+Vdoa5Iug2w4hmCGWdSjma9NhLefECIO2yhnjEVkj5kqyYGI/mpj13VRDVZNXF7pyH316qnHgC33g9pNwMrxle24FYiEN2K4wIQkVRWmFcotEK4z/XLq2Q6d9yUn6S8eXqrSIWmGf7wS3ZvgHxSoC15Oc68cS/C0AfcDQOyoxN/hBGgRIqAaAH9+6x0GzMQr7HGGOWlt/Yf8hFqltQ/hHI7yB02la5zVCkV4xcTwvH04OTXqNfngK+i0tFpvdEVo2DcBBF174QSxz2Zepfpx6Qkt8jGUm2uuT5DcvJrlDQOlAFqQATqlwU9DjCcZAzwGgSlEugVdAxROqoTJXZCzxnodkYC9DGmPnz1LMvOVUeR+R/AP0YS7wzx8IN4NeughYbCV6cgVlRQRsqVEFqKGXikouTInrY4U5GMKLKmKDj4hhTlQoQTf018dPWwX2PWVg2xgK0MWah+eyzh3LAp0H/G+BhEM9O/HkKXnYBXoT7TQGaolJDqCtUUPoFDiPRaw53IlJG444YOi6i4z6uFiFRqKqg6ly8tw/YyLIxS4bVQBuzxHlI3cG3IqEzUP1ngt5tzcjmlm3sxfWgI9AEJgQmkr7Lp4HDgpwAPa8wTLxs9rBA1ReJPr/PJvgZY9d1Y8yS8tv7X5GAaGVLo78vKv9QRLptqxgLzNrOzYEgddCyJpP7BF4T5IiiQwqjojIiIhMKDVVVScreDz5to8rGWIA2xixZv7n/kIRRdC/IP1XkrwF5G4c2yy80A2hDoKRIBXQoDszyhoMjIXpJYUSEYV+lFKKRgoqKCsKBp22k2RhjAdqYZeWpZ15MgbxXkf8e+CCCbxcBs+QDc9xrewJhXGEM9IgIz3sq70TQH6LDTmTEg9IX9u6JbKsZY27EaqCNWVZPzC7w4NVI+OMQ3QpstXpos7QC82RZRpN4qetRkD7gBZBXQS8BlzTuv1wh7tVs/ZaNMbd4PzXGLCu//ezLEqKrWkT/N5B/IEiPbRWzuEMzoIRABdEJoB84CvoiyBuoDAn0ITISL+yuEYI+t9dayBljLEAbY27BZ/e/uAvkd1F+EcRKOcxiFABjCsMo54GXEQ6BngaGEB18bu/jE7aZjDEzzUo4jFmmHHJS4I9DuAvYBTjbKmaBa5dmjAH9oCeBQ8ArIJeAPpARoPncPqtlNsZYgDbGzDAPaSjyXdBtKP8YWGfvpMwCDc0lYETj3stHBH4CvBUHZgYEygohoKKKtZYzxsw2u10as4z91v5XJFDdiup/B3wOIWVbxSwQ5bhjBhcF/Sm4Hyt6FugXoc/hGl/c+6gFZWOMBWhjzNz7zWdf9kF/OUT/Bchddl0w8yQCKoqOoAwKvIDI8wpHRfWciBtCpHnAQrMxxgK0MWZhhOhDq0L07yj8Q0FW2RYxc6RdnjGqqheB50XkeVU9LXAOccOKNkVVDz5tHTOMMQuH1UAbYwglGkb5c5A9Cp8GMvZ0bWZRIwnNlwR+DPJT4BhwTpChg0/vCWwTGWMsQBtjFjp1IsdV5WAED6JsR+wNlZmhgyseaW4JjCcLmBwW+BHwKnAaGBJxzYP7bJlsY8ziYDdIYwwAv7X/kKiyIVD+KejviEjetoq57dAcR+GmCGMKA8BJge8ALylcFJEB1aiGos9ZeYYxxgK0MWbRhuhnX3Ytjd4L/G8ishvrDW1uIzsDJZRBheMi+iOFn4KccyIXBKla9wxjjAVoY8yS8tSzhzqA/wz4L4G1dp0wNxOaNa5rHgK9iPK8h3xD4YSi/eIYP7D3sdA2kzFmqbAaaGPMZZy4cqTRl1X1PoTPAh1WDm2uSszxTyEwInCReGGTvwJ5E7QPGPREgpYqB/daiYYxZmmxu6Ix5ipPPXPIV9Engd8FnhTEs61ipqXnKnBJ4TzwbRH9gSJnEC4JrnnQSjSMMRagjTHL0ef2H8qh+tcj5J8D9wBiF4zlmJUnNQVGgSGUnwh8VZGTil4U0bGD+x6LbGsZYyxAG2OWvd949uWeCP1tRf8BsE0sQy+v8KyqICVgGOFtga8Bh1DOORhUpKXAwaet/ZwxZnmxGmhjzPWfsEXGQA8CnSh/D1hjW2WJh+b4p1BgDDgHfN8h3xHR43HJhisd2GclGsaYZX5/tE1gjHk3n9t/yKnqZuAfofKbCCttqyzZ5FxXYUjgCPAtRX+sKqd9ZAinTQUO7N1j4dkYYwHaNoEx5kaeeuYlB2wD+XvAbyGssuvHkhGCjqL0gbzkhK8qHFGRS6JMRGjkIXzRVgk0xhgL0MaYWw3RhzyBexX+IcLngA7bKouY0kToB04g+g2Un6JyykGfOGl+Ya8FZmOMuR6rgTbG3OzTdgQcBf4dsBr4eSBrW2ZRiVDKxH2bXwa+gciboGdAx0DCCDho4dkYY250TzTGmJvzuWcOiUIK4f3AfwV81EL0wpYk4UBgEDiD8iPg28DbwABO6hApKAf3Pm7B2RhjLEAbY2bDU/sPZYEngX+E8nNAxrbKgtQALigcFuEvUHkJ1fPA0MGn97Rs8xhjzO2xEg5jzO0Gs58CoYIHfBzI2hP5ghCBloDzqLwk8DUR3kpWDawgEh20CYHGGHNH7H5njLktT+0/JEBK4XGUvw98SpQexK4r8yQE+oBToN8HvoPKSYE+EZqRoAetBZ0xxliANsbMv8/uP5RC2SXK0yr6N4E1lqHnhsZxuCXQj3BMRf4E5cdCdB4YseW1jTHGArQxZqGG6GcO+QJbEP1bCvsE2QA42zKzFJxRRamAnAZedci3cPp6BCfBTTy311YKNMYYC9DGmAXvc88ecsTt7T6r8Duq3A+kxK4yMxeclQjRUeAsyk9Avgq87SH94rQRYmUaxhhjAdoYs6j85v5XBLRLlY+Eqv858KSILbgyE9kZuKTKUUS/C/o9VE4I0n/w6T2BbR5jjLEAbYxZ7EH62ZczgeqjAr+N8AuKrgd8q42+pcSsKHWBPoRjwFdU+QGi50V0/ODex0PbSsYYYwHaGLOEPBXXRW9S4ROK/iawWxAbjb6p7MyExmUar3nwFyK8EcIZVakA+tzT1obOGGMsQBtjlqzP7X+5EEXRbuB3EPkIsEXi3tHmchEwAlxC+bHCl4B3POTiF5/e3bDNY4wxFqCNMcvIZ595yQfZgPA+4LcEfQRkDRakI6AKXASOg34LeAmVk4DVNxtjzAJlKxEaY+bgSV1ChLOI9KH6CvBplF8F7kNYwTJqeadxiUZLYBA4j/Iq8FeIHEH0HEodITq4z7ppGGPMwr2vGWPMHHpq/4sC0kkkO4BfRPg0sAVYydIekW4BoxoH55MC3wKeR7kkcOnA03tadnQYY4wFaGOMuX6QfuaQAN3APcAHET4F3KuwCsjKIr4+abxGoAINQcYURkFPCfxQ4WcgZxwMIVI5sNcmBBpjjAVoY4y52RD97CFBEaCIsA54VOGTAg8BG4AeILNIrlUKNIFxRUeAAeAEyE8EXld0SOJJgiVFouesRMMYYyxAG2PMnfrc/pczKKtFdWsEHwCeQNhFPCpdIJ63sVCuW0pcllFOfowBp1FeV3gZ0VPACCJDz+3dU7W9a4wxFqCNMWb2gvQzh1wEnQI9ImyL4DHgAYHtKCsVOhCKAnlmfzJ0pEoTaAhaRqRK3DljVOEk6BFB3gEuASMo40Dp4NN7mrYnjTHGArQxxsyZzz5zSLz4KuVCyCAUROlGZZuiOxDuEbgXWAmaBfKoZFXwgYzEpR/vSuN/JLXKNIAItIHEgRmkCpRVOQcMCXpCRM5q3HZuRKGMaFVUGslfp+2/+ODTVqJhjDEWoI0xZp499ewrgqqnaB6hQ6AD6AbdANyFskFFOoC1gqy9iQAtqAbABYF+oCVon4oOgvSBnAXqqtTikK0VEeoH9j1mo8vGGGMB2hhjFmOgPiTEPaTTaJQHSauID6QFSd9EgAbV9gh0C4gEbapoE2iCa1g/ZmOMMcYYY4wxxhhjjDHGGGOMMcYYY4wxxhhjjDHGGGOMMcYYY4wxxhhjjDHGGGOMMcYYY4wxxhhjjDHGGGOMMcYYY4wxxhhjjDHGGGOMMcYYY4wxxhhjjDHGGGOMMcYYY4wxxhhjjDHGGGOMMcYYY4wxxhhjjDHGGGOMMcYYY4wxxhhjjDHGGGOMMcYYY4wxxhhjjDHGGGOMMcYYYxYzsU1gjDFmtj317KEMsAHYBtyf/Jy+zh9vAEeAw8Cpg/v2XLQtaIyxAG2MMWY5hGYBMsBq4FPAX0uC8yqgG3DX+U8jYBDoA94Bvgb8ELh0cN+eum1ZY4wFaGOMMUs1QHcAvwT8NvBgEqT9W/grFGglQfoQcAD46sF9e2q2dY0xFqCNMcYstfCcBX4V+C+AR4HUHfx1CtSBl4H/EfjOwX17qraVjTEWoI0xxiyF4CxAFvh14L8GdnFro87vpgm8Cvwb4M+BiYP79qhtdWPMXHO2CYwxxsygPPHI8/8TeGAGwzPEkw4fA/5J8jWytrmNMRagjTHGLHabgM8B987SPcYBO4C/Aax96tlDdh8zxliANsYYszglkwZ/GXicO6t5vpl715PAPmCzhWhjjAVoY4wxi9U9xKUVq+fga/UmYf0+wLNNb4yxAG2MMWYxupt4sZS5urf0AluxWmhjjAVoY4wxi81Tzx7qJO640TmHX3YN8HPAOtsDxhgL0MYYYxabtcS1z11z+DXTQA8z2+nDGGMsQBtjjJkTSry2wFyvL9ACAtv8xhgL0MYYYxZjgI7m4esWgU7rxGGMsQBtjDFmsZmvlW3vJ171sMN2gTHGArQxxhhzYyniumtrZWeMsQBtjDFmUdF5+rrHgK8AE7YLjDEWoI0xxiwm8zGBEKAfOHlw3x6bSGiMsQBtjDFm0d1P5uOe4mPlG8YYC9DGGGMWoWHgCFCZw6+pQGib3hhjAdoYY8xiDdAvASNz+DWHgO8DA7b5jTEWoI0xxiwqB/ftUeA0cU3yXEwojIC3gK8DY7YHjDEWoI0xxixGbwPfYW5GoceAvwROMj8LuBhjLEAbY4wxd2wc+GPitnLVWf5aR5IAPZKMfhtjjAVoY4wxi8vBfXtC4B3gj4Djs/ilBoC/AM4zf/2njTEWoI0xxpgZCdEB8DrwH4CLMxxwFTgL/CvgGeIRb2OMmXNim8AYY8xMe+rZQyuB/xz4LWALkLnDvzIELgD/Evg8VrphjJlHvm0CY4wxs2AE+LfAq8DvAJ9KQnTqFv8eBcrES3b/qYVnY4wFaGOMMUuVEre0+wvgHHFZx73Aw8AqoDO5B8l1/tsKMEpcBvLN5McRC8/GmIXASjiMMcbMqqeePeSAPNAL7AIeBJ4ENiT3Ib3ivhQQL8ryE+KR52NA+eC+PdauzhhjAdoYY8yyC9M+UATWAd3XCdAR8chzP9Cy4GyMsQBtjDFmuYdouYl7kFqphjHGGGOMMcYYswTYCLQxxhhjFpUr3mLY2wpjAdoYY4wx5jqhOZ38gLiTywbgEnHHFgGaB/ftadjWMhagjTHGGLOcg7MDCsBK4BHgPuJOLZuAPcTLxr8GeMAZ4u4tfQf37WnZ1jMWoI0xxhiznIKzELc/vAf4EPAB4l7ia4k7t2SJO7o0iJd1d8AY8CNgP/DCwX17mrYljQVoY4wxxiyH4EwSnn8d+IfAdqCD6y++M10d+Cnwu8APiFshWo20mVHONoExxhhjFhAPuBv4TeCfAI8RL8KT4uYG/rLEI9b/L+AjQG5aKDdmRthS3sYYY4xZEJ569pAHPAH8feC9xHXOtxvC35OE8FPACS5fsMcYC9B3eLI64pH4Wz2x2qtnRfZqaFHvf0n25e2MTkiy/22VtOV5/kdY+yyzuK51jqtXflwwx/tTzx5KE08K/GfAx4hHku9EFvgo8aTCi0DFjoQZuWbK7Rw/S+1eKctwx+eSB4coObk2AavaF4db2G4OKAPHgCpT5TANa6GzoI+BVHIMkOxvn3hSSvE2bioe8YSV08kx0A7iTaBuwWrBhQefuKZSmZqAtB3oSs5/bvH8Hyee8V9Oft3Zvr/lsJS9zvat2eSvO77OZaeFZZfc5zZPu//dak6oEI/klqbd79r3wfBOjvlpkwXfA/xj4JNAZoY2Rwj8S+B3D+7bM7aA95mX7DPvit+KgBrzMFiX7JcMcdvAdmbaAqyYdh29GQ4YAk4m+0OA1mK/VsoSvXhMH1HMAz3Jzu8irovqJZ61uwp4GFhzm0/k48DPgAHi2iwFzhG30yknB8po8rUUwG6sc3oMkOyXnuTnXLK/7072R5hcED6cHBPc5jHwMnEfUpfcnPqIJ7CMJzedUjuw2/6f0/PfS/ZrOrkJPJQ8LIXELbB6khv2yts4/12yX18Gzie/lk3O/59NC9WjxBOa7PyfGsToJe6icD+w7Yow137QeRt4CZgAJg7u2xPakX3De92K5BhsEbd5251syyA5/ncBO5Jfu53jsJrsk7NM1SJngEPAG8nf2QSGk3Pspo735JhYB/wa8Bni8o2OGdxMEfCvgf83MLRQzsFp96gO4n7WO5NzIjdt/7Qfyg8RD9ZNJPthVu4lyWfyks+TTa6Ne5KM1EzO3ceA1bdxDJ0HXkj+Hi/JTc8n98mJadfMRXOflCV4IfGB7uQpySdue/OB5ITuIm6Hk0v+PUPcW9K7gxOzlATk9hP5RPKUXkkOlB8mF5dScnMdAwILUrN2DLQv7N3AxuSC9PHkgpBLbtg9V1yguu7gGNBkX9evCFZHk19/A/h28vsXp91cQiv9mJX97ycX+a1JWPjEtAeo7cnvtd82pZKb153u+1ry735y/h9Nfi0EvpPc/JrEo9WVaftfl9m+SQMPAnuTh5k1yXl65Xbwpo1WHQY+D7xlPX0v25YuOX7XJT+ySQDdnATojck9sF2e5BG/ZUvfwZduH+/T37h6yXXtNFOjjF9K9t2F5HzQ693zkvC8Hfi/ENcqr2V2SkvfBv4R8K2F8DA2bcR9M/BLxLXe26Z9/zoto4VJ+DwFvAp8FTh2cN+e2gx+Hj/JQ+uTa+enk8+2Mvn3fHLdvJNrZjMJyVHyfVWI69Kn3ydryffavxjOd1kiF5RMcpO8K/mxJwlNfnIA9HD7da63e6EhOfBHkovIOPBd4EXgTeIRy9LBff//9s47Tq6zOv/f2aJVb5YluRe5YdzHBXdsMGBM3IBwQ88SCITEYEJPCGkkEGqAH4QAlxDaEDAY27h34+7rLktyk9WtYquuts7M74/nXHYsq6y0c8vMnOfzmY8sydqZue/7nvc55zznnOKQXwl1iWpNsQv5KLsojrQ9sJvtgc6U93yc3toArLZL5357bbRowhOl7uJmX8FRr/8Yc5D2tcv4TKSfnJrh2scO9hpzmjcC1xiJXgkssH2xsRWiq0EYzbI1eTvSpE4Y4XPcAFwH/By4s9RdXNPidm6C3WevMGJzttm8mEzH0cu0O2xVGZavPW+BgpvsrutHketna4MGRiL3By4FApQRTgobgA8DpazvXPveM+0cfMDuqukjWLMyw1mvbwPXl7qLPaP8LB1okuPRxp3Osr0120hzWwr7Bvteq8z5u8tsZYQyeBvzGmwqNLAxKZjXHRPmY+11oF2mk3P2keNo9QvmRc4HHjUitRhY62nKnV7/djO6p6J05UF2mUy2wz8lRx85jt5sNCMxH7jC9sIyc6gGPDOxU2SiE0XZTjOjf5Ttgd2pbwq4HiibE91nl8JjKFJ9pzlVTSdTqMkKzjSi8G4UGd1ZbWsPinD+Avie2dCWkMPYPu+w53aA3XWHMpxWn8JwTUeeEDs/PWbvbgOuNHK9AEUaDwDeBbzHzmwhwc9yPfAZ4JEsyZhp048E3ga8DmVIO3fyxwwgKcQ3jWj27MxZsHM5DdV/HWyfI5a2TqZ+2vNdxSa7E++tsZGPWSAiV00bCg1qUCagVMMbgTeYQZnB1gX4ecSAeeWrbKM8DPzefn3Ro9I7XP/JKMp8Mko1nWbRlzGMvE9o1hhCEcjF9rrZjOEqvAhtR8Z/nBHnM834n2AXQheN0VmoaqSiF6Uw7wBuQLr5DTSJvMPWak/gfUag9xzF2ayiyP23ge8A65r5jNSk+A8AXo9S/Aca6Zlstq6R7u9eJPV40YjRBgt6nICyhEk7r18D/j3LfWNrOhv4lDkOU9n1CO8gCsB9DfjdSCPRQRiNQ5m6i1D2Yn87l+Nztp9iPX0PkgPdbQ5YzJFyEWwoNJhRGWee+HmoSvdEO3yNLkWpvUh/DcwFVrtG9mXGZyIqAjvffj3OLpTOBv96ZSPOd1ik5EZguWs+X7YHxhiJOMOc55Pt/Lc3+FfrB55GUoWrgYdK3cUXm2S9zkXT4A6v0499GPggGtFcbeJ9vr/dcefZPp/UBPs8RlxU20U6UpM+4KvAl0vdxfUZrusE4C3A36HI72hRMWfk74Dbt0cqbU9NRzUh5wOnowxGoYH2zJNIFvQTVBOReZeeQgMYk1iqsS+KNJ6DUvZJFRtk6XFtQqn9PwC/scuip1WjkTVVyh3mJZ+HxroWURais8m+8oBFaW5BEcn7UOFpS4+hNZ3ePqg6/83mOM9mdAVReT3/84xE32QXxguNKu0IwugY4O+NRI+v049dh1LXX0Oyl2qT7PFY7jLJHMR3o6jzrCa0c2migjTDnwduyqrFrGVOi8AXkM64XtxlPcrKfMNsRXUr7zsZydv+1Aj0/mQv09hVG7nBbOP/ooDTOjLs2lHIuUFpRwL3823TnYD0dGOa/MBvRpqfnwHXAktasSeqec0zjDBdiEay7t1EkZjtedtxK7zrLMqwkBbTSNfYgCNQodFpZg+6mvz8b0Ca31uAy82RGmikjJSt3fuNMMyo8yX6BPC3RoiGmmSfj0FdY/7EnMQjmvyeSwubkOTn66izQ1byjcmoiPHj7FrL1G2hbPbhn5EM8I/BFusrvT/Dhbsnkj+pxq6gH2Xsf4ky9ovJKNCY5wjuBPPAL0B6nVm0xuTENiRVeBXSeZ4MhEEY3YOGC7QEgQrCaCySaLzTDv+cForEjGVYm3Ymqkb+L1SI09Mi619AhUXHoSKjC8hnsVQS538qcAwqiDwO+B/gziCMnm2gaPQ0VCA1sc4/t4DkW0cAt6JagkbHbJRVDczWTcdRL2crTvuvzfjuHG/neUKdf247ii6/BQXdlteQ50PQOPS32Xlsa5J1jXuaX2JOwf+h1ompy3Ny5YnU9LecjnojfhBV10+kxaYm1qAHRSB/jaLRi5pVG12z/jNRcehb7GKZQmsjrrouIWnHIpo4Gm37YBbqDftWu3jGt/Dar0aZiK+j6GvuBw0EYfQqFPk7JiHbfRkqxnq2Uc+B7fM9UIHlO1B2bSyOemEp0t//DLVCy7J4cH/giyiTWu/MwpDdCx9FXb0KZjM/AvyZkedmto9zkaTrclKOROfNI+lCadp/QC1nikgTVmhhIzABaeI+h9LYc8y7bEZMAk4BPgH8I+qw0OrkGTO4JyM96d+jAro9TN/WbOQ5Hjn8PuCvUMun8S2+9nsh/eIn7Hl01NQH5BXjEg58vBZF2AoNvM/3RWn9vzTC4+S5fug1p/OKLMmzYSzKKB9NMlnUKsPDoeLI80eRdGNak6/zGBSB/zgKuE1L0za25cWYmEboNCMI70dVqu1uBwBJV/ZArW8+aiS6qchTEEYTkfbv31FEZl9aQ7IzUrSjVO9bka70fc1Gou277IUizx+yPV/wpQcjo29BUdejGsA2VnjpiO56o9H3xZ62x//SzrWjfuhBLUF/jLpZZZ2hGIMy6UnZs3aUvZhjjtjfGHme2kJ345HAJy3QkFrQLfPL16Kpc8yQfN5IdJfbgK1iKtLJ/TWwfzOQpyCMCuY8nY9STq+i/jqxZsJYpAF9H/BeYHYTkegZRp7jnsGOl2J8zTl5ZRNnokaCoYQJemJOYhBGe9g+fy/J90BuJVRQQdmVwJeR7C0PrUCrtl+TIvJtqF7qIiR7vYjWy9y2oXkglwAXB2E0KY1IdFvWxgRpg/4aheBPxtNYO8J0VFj3EeDARr5E7bPPMq/x06gwyLMOO0YBReg/CPw5MLMBUvoj2Quvs++zLx553hYm2AV5qZHojhY+Aw1HnlE7xli2Mcu3c10dqodQdu6fgAdK3cX+HOnjqwkSaFCG6kJUcN2qGY2YRH8MZbMTl3O0ZWxM9jZj8i5UOObkaWSYZs/sY8AhjUiia0aafhLJdo709d9pArE3SgN/ADg0CKNxjUikayrG34zLNkZ6Wb7Fgg6HtzCJbjTMNuL8QVy2UU9U0FS+LwI/K3UX57fgNN8O41BTW9x+tiG5zCfNRk5J+s2yujD3t8u/FYTuSZHoWM7RMJpok2yMQUMxPgd0o/STY9ewpzmhX0adSxqq4M4I/xQUOTkT172PFHEk+p3AlEbPQDQzzObNQNmV9+KyjXqijDrTfAO4eqQjrR1NT6IPNWf1eJNNFZJ6oyzI8wFIq/I+PI01WhL9Z0hPN72BNndMns/Du2yMFgWG2/5dChQbjEyNR9NF30DrFL3UCxOB16C6gS4n0bl1EMeg0cnvIh+R5yrSBu/MK4968wHgEQseXF7qLm72Heeo4RmHoHbIe5JQVD6LaM8eKPL8LrxhfL1I9J8AdwRhdCPQl/O+qDNRCvMsfERtvc/ycWjgyIIgjFY1QK/gON0Wd5ZwArjzOMrO01LgcRSRc+TrIj8SDbPYO8M9XkET3IaAFcD8Ggd8e855bEP2Q1njDlTkn6XcrgysRaOcfwTc7JFnxzYCDBebXfxFEEab630npkagzRPvRIWCb3byXFfsj9L4G9HEsqG8kSdb/zjaeLKT50QwHhWSPA/8xEh0LjsV2H6YjHpaH5Ej8lzdDpnIq+N0PHA28GwQRptaadx7A2ACyq6cQzbdhapoNPyzaHLjWjQG+WH7u7YR/PsC6pR1rH2HE83xnWF/l/bZWAv8L/AD4JlSd3HAt5ljG5iFAoz3GZFuPAJdk8Y6CenAvEVVfTEWpQgfBRYYgcobptpG/hjqsuCoPwpIHvVh+/1PgzB6PqfOVAdKsb0+Y2eqglLBcZX8Urug27YgELPQgJda29mRE2JdOzZ7kx+DXO3zw5HMJk2pWhVFm5ehKZY3o0l1j6EBI0Ps/Aj0eCR2J3Agkg0FKBB2AOnWXnTauV3j5NmxA4xBA/lOQy0O1zUcgbYNfxLwWYuUePSx/hiHesQ+hmbD9+foIulAUZjPInG/I1kSvR+a4teDIjV5JFVxJCuL/VA10vwi8AJqf9WPUsM3Ak8znKKOo3THGWmIifYe9tk7UCRuHNl1NepEEcEDgFW4jCMvmISkaq8kPclDFVgC/AH4PZJqLATWjdKRrjDcU/nBIIzmIgnFbFSDc4Y5mGl8z8nmlFwdhNGtnnFx7ACzUJH6kiCMri51F+tmHxMn0OaF720X+pk5Js9xYcVIDmNbDr9HwSIDFwEPBGG0IOv0va19m32ud6DpknnG0AjJRyxHyrNmdx/UxuehIIzuB8o5umgKKGp6iBHPtFAGVgLPAYuAe+y/HzMCXQXWlrqLfVvZx/ONkMS2YhbSH3cYsT7MCOzMDGxDm32WI4AHnEDnImhQMCfrRNKLPg8aef4ecBmwvNRd7E3ijUrdxX7gsSCM5pnT9gDSmx6Hon5J2485SBbziDnCjuR40c4OLeogXy1pO9AY9QCYG4TRwnrdhR0pGJGpKE2btyEpVbto+myDrEa6sI07WPyyXZJHW4Shk2yjT7XoBE4xw7I0B3rINiMV7zWSkadWexWGU50DwGZgHkp7VrZDjiu2j481ElVFRTVjc2Y02lHq6v3AeiOA1Rx9toNtr6ZFoAeQ9vPHKKX9PLDGzv52awbs7zZRE8kPwmglap/VBlxve+E44FwjTTNSIBK1mACcAFxBPiVcrYZOlKE4gOQDVbHO+XbgKuC3SN6Q+HkvdReHgjB63BzR+agg+KQUvvMklM3+dRBGaz0KXde9VLH7sGLOyaP264707lWz7YeikeLtZt/zEGwaY/b5KHMy6zKhsiMFI3I26rqxd042SD9K266zTfGIXTgLgbtrCHR1K15vTKBmAKdahGFPuzBnIT1YZ8ZEajdUmHWnOQRZRqOmoT61f0F+ep+W7bJZbnvhYTP+a1FEctkOvO2qGYWTUWQdJJk4GtjL9sAY8tHPeDLqyjEfRVzzUqleMIdjfEqGdR1wF1ACfl/qLo46YmVpwPhsLUHpwUdQWvsc4LXmNO6WkuNYsEDFT51AZwsLHM1EEdmDUlj/F1HE+f8BT26ZQUmBRJeB9UEYXW+27zNGVDoT3u8zUQH94+YgO3YdQ0Yq19jdeI/diYuNS6wboa1uR5Kl4+2ePM6CJbvbfZQVN4qDuQfaCK3UggAAPB5JREFU58o3gbYWVfuZETmE7KOPA7YhbjNPfYltloVGLAaAEY3+DMIo/nedtileaZvkJPvOc+xwZ0GiOozQnws8HYTRhrS9c7tA2lGU9iJeWnyVBSoo07AJ6VtvQVW5ffb7NUaGekcie7Hvt5LhCOMUW/ND7DsfhNLpM3JApONOFw8FYXRzPfVfo8B4JHlIY4DSehSR+y/gsaRS2kYkBoMwWoAKEW9BNQlvtX0xNgVnIW9ZkFZFbINPIvniun4jON8B5mZ5vkvdxX4j0Z1owNcJJJuFmWnO6n1BGC3zKPQuE+fVKPv6HBDZf883XjTITrTGtbtxNXCvcb79zf4dg4KOR9h9mYWdmoICX1cHYbSxHvslyct9OhrycRZKcWdJnF8wwnQjcK1dcGUjVpWdfZBGsnqB3iCMNlrE53bgdygKeRyKvMZ6sEJGG+VyYG5Gz303I/FZFw1WUPT1BpSKetSeyUYsXbWzWnHbL332wvZA7LVfZk7Ua1FE8Cg7C1k5kPFlHiDN4socXDSzUGYq6SFKg0he8RVgQRrkotRdrARhtMn22FL79ULbD3smbAsq5HPgRauhvSaIkuR6Vy2QcxnqvpSHtd8EXGn34z+b/UsK44yQzTL76wR6552v+4DfoMzZErsXB9nFmhn7N4PAoJHpR5HU7VrUD/0cNNzk6AyCS+OMxL8RRdZHPXgnkS9g0wYPsw+a5eSlF4H7jdjeAjxd6i4O1fMNbMPEbYHiVO79qO/mpag6fmbKTkSbPfdZaRNoOzQTjCC9gXR1oLUom4F4DgiBXwArkiCP9jPjlH5fEEYvmtG4wc7ABSh1NJ1stGBjUZX86WYss45Ct5NORHY1cEWpu/hEml/O9kMVWBuE0RVIJrQK1QJknY1xpOO0pqHt77EgyXVpyzZ2sPd7gjC6w0jZK0hOyhEXqJ/NcMTUMbK7cT2KEn8DuD2J/VNjBwfsdWcQRg8CTwHd5lztlvKduDuqvfmfehDoukfFagoHT0fh+ywIw6AR2O8Cn7SHtaDe5Hk7G6dshP1jqKjiWvPs0sR+KIU4OeURv/Ec+rcjWUsW6z+EdHH/DXwE+GFS5HlbhsMM0sPAt1E68+uoXdpgBs+jgLpyvAk40BzcTGB7sSuF6EO/Oc8PZkwoKhbt+K7ZoeW4XrPZcajdf5MTJkELzElfk8NnsAEV664g2cjwDCQRGOPbbkSomj36qnGj20i35W0fKnT+OPB9CyykiTakEji0Xj8siQ94OHCebe60MWCE9WNGWh4nm/HWAygK+Rvg08DPSbfdTlyklbZ0YCySj5xA+imaKip2uAX4B+Bf0fSt9VnIFuw9N6AWT982o/EHsokAdyFN7gcSvth3hHGoh+srEn6fVcB1KAORKYxELwK+hXqhX1+P6Mc2bK+PQ88eXSgLl6TtXQtcg4rgcyfbsWDVvWj4SpKBqzj75/KNkTk1Dxl5/r7xk4GU78a4o9GjqOj1B0himyaBPgxJ6kaNJAjONODVKPqYdqSr3y7Nz9vmGMxK71nzvv1BGD1pZL6AdOGTUvgIHSgDMIM6T9/ZFiy6uB/SOWWRql6Bonw/AhaVuotZRHu3tg+qqEr9TiP27yebDM0UMxy/D8Lozoyez1jz/qcmbKTXU8d2RfUg0UEYLQV+idrpFYDXUd/09rwMIjqOre+/JO+dMpLm/Z7RD0hJEi/aXi+TnIzDCfTIsA4NWPsx6nu/KaOg0h/XLAij5UbkJ6I5EWkFXLuA/YIw2rPUXVw+WjZebwJ1GIo+p9m2bAi1H/sJ8AUzLoN5MSwWgXoGRaB+SzLRp61tkpPMkUk8Cl0zrv00NDAn7cj3Cnu+3waezQN53goGLSrzWeBLSAuWZvQoHmp0JNCZsrSnFpUUvid5u1TNHsXSkq+i7Ei9onPrgV+hojJH8xP0HiNFeS4aHUQZtwcT/JxtKNrf5dtiu+twK+rU8kBW5HkbWGqf69ekp2Efg7plHVaPzVdPAjUFCfrjJtppYROKPH4BpSiGcuiVl1Ghw9fsolubEolOaypaAUVULySdCHvtZbLSiPP3geeznsC4AwI1hHSw/4e6Q8wjXUnHBCPQu9Hc2FHT/yz3wADqOf9FpGEdrQaxgtpP3Yl1hnFkA7sHywmf6Xi8fFvOW7fFkfL5CRLoTtTt6gTffdvEIiQhnUe+Aovx0JZnjBMtIFm5T+3dUJdZDfWMErahljKvI9n07JbYjGQbPwEWl7qLg3k0KjWdGuYaif4N0iQlTS7TIpPtaLBMKhHvmu+3HBULhsCLee8FagWGsVb7V0jaMzclwwGSUJyE2giNyTAKnca+j6dN5tEW9KPhLl9BNRurR/Fdn0PSkCfxVHbWGIuGSOyXoB1cj7IYq/P8IGrka0nuyXigyl6+9bbqWC8F/hO18M0dN7L7sGwBgB+STjvCgp3NiUEYjar4tJ4HvBNFIPcivejzJtTG52uo60a1AQxKGemzv2WfPcnuHG2kUMhnJGw60r6nWTj6POpu8N/AqkZqpG+fdb05Uj8jvQLTAsoQnYcyRlkR3LS+ayHH69+PItGfA76MtIkDI3w+cb/VuNvQ79AgICfQ2RPoV5JsDcg6VBy/tkGeSdJnsJxiAKKRsB74X3Ou1+XcNmwwkv9ICmtZQD35XzPac1pPAj0NpVKmpkief4u0pHmVbWyPRM9FPRjrkcLd1gW7iXRSuh12abye9Do8DKE2ST8FludVtjGCvbAORSDvIr12QuMYHq/ajBHogjlyhxmhyfP695ktCIF/ZHj4UTxqvrKV1wBKe16OZCA/NQfSh6hkjzbU/SjJwMUQyryWG+QsNpNT3ijoRfrz3wJrGsSxXoqG8CxLYT0nAAcwykmhdTnkNRHIY1FFZdKomAf+XTIeXzqKi3MoCKO5SAt7JIoK1tPYDKK0SBqFap2os0KSacstIw6P27Nb0sjEodRdrNr452/ZYT6T5AtiCrbnzrT9kWZf4gLptDecgQb53IT6cefZFlRt+M7vjTwfhLJ5Z5pdrb1M2lG24kqkeV4BbPbIc24wYERgA8nVGUwE9jV7kffhIWlmmxzDWISiz481SmAxCKNeFIV+DVIydCa8LwdG64TW6yLrQuOC9yV5+UbVPJTfISlEI0ddBu2CPwD4KPUdbdyPijdWpvA9djPnaWpKz22NedZ/aJLIwwCKQP8ITdaak8KFMMNI9ISUCXQZRV0rCTtbnbYnzwjC6IlSdzHXw0tiSUcQRk+hThpdKDu1pTPVZs9vmRFnjzrnC5uB24FzSW7y6O7mXF2HMhG5hAXWhki+lWQH6RXLN8p9cjdwV6m72N8oH9pI9FKUWTvB7sKk0G68azqSwe0S6nWBTUDRnr1SuPg3AiU0mnljI0de7LO/gCpkb6+zoVmMorRp6CJnI/lOWuNrb0DRug3NEHnboqjsdtKRchSMYB6ZciHhZtRS6dkU3msaGqN+ShBGYxtkL1SM7G8CnkYR6drXYyhr0OPkOZeoIFnW5gSd+3bU6SjvpLGAgkIzE+QF8R26wrfeH/ffs8BVNGZP+CEUhZ6b8Pu0I4nfzNF6bvXAHBR9TvpAV+3B/poGT91v4XWtRDrGvVEF92ifYy/SB99Hwjo5I18dpDdKdSGK1D5KY2gAd2YfLEOR9RNQR5skiW1cTHg4cA/pRaEHUaHIIjSCN0m0oamYnwa+HoTRLXmPRG/hVLksozHPcQfpZGLzjg40MOqkBJ/HIJJoRb77wOz4fWjeQLlBz0+PBQrOIllJ8Khb2Y06Am0E6my7DJPWv8bEcF6TRV8G7Ht9qQ5kpoomsN1KOsUDE1Drwj1TeE495lk/mNd2haM0HmVb/5+kFD0YBxSBvdOKQtuapZlyHYfS3Z8CXheE0dQgjNqbtH2fIx9IeqR6O/AK4KwgjCbk+DmMNSc9yZ7zFdSNZJNvO2A4c9XI2fkB4BbSkZ+O+qCPFlNQwUvS6fu4/duN5L9wYldIRQ9wPRoGcxXq8VndhWf0JBoochfpjDEeg7S0UxN+nyqSpdxI8v2zs8Q6FKF9geSjTGNQ9igpreaO1jPNi/w0c1D/wRz+2UEYteFwJEPqkoz+xRNF3wjsk0dn0M7WsagzU5LOcjuqE/CzrD33KArGbW7w87OZdGtzMiPQ8RSgpFP4m1DV+XyaMLVpDcV7zfP6NBqw8TAja0M3ZOQyJuA/BFYm7YGakZxkBCVpI74eFc3MpblT2xVby6dIPgVXsMttPNCW4kW81pyENB2hTiRX+Uvgm8AngVODMDo4CKPJOBz1Q1x/kiSJ6QBeBZxDevK5nXVaT0Y60yTJbZ/ZEa8HUMBsMZK3Nnpf7NUoYNqb5w9ZDw10px2WpD3ATfZA1zfzCSh1FweCMHoGRZEfAN6EqkUrwD6oXVyb/f5JOzDrUTeP+9E0xrQi9F1oeMpRCa9/HH2+jQaYNliH77oIVSIfaWufFLFtR/2gT7HIRVpna605w28kvb7hMcbbpb4HcAaSOz0UhNHD5og+WPMchhpFM+3IFV40B7iP5DScBVQkeyHweBBGdwEDebCNQRi1I0nna0i2JWcFBdSuosmy0qMgnXej7GWjYyXStZ9BOs0J0ifQVizRlcLnHDLy/Cg5HEeZEIl6AUWjHzEjXEVtXU4xEtCLZBpPo0jlGtS9oZry/jkQSQCSRBm17VpCk0+csiKKPnOILkS9tZMsSJqAuqikGcWKMyZP2/7pyOBRT0Ep5qNRscqL9rluQYWqncDTQRjdZvuvgjoA9Rt5qXjvZcd2iF08xKqasAN8IvAWYAE56ERh5PkI4MMoQp50YG29fe+ybzt60XTevkb+EnYHVmocxdxitBfXDPMQZiX8RYdQ6v6JVjgoNRfzEComW2Xp9cWourbNnkN/DlI1QySfPusxZ2ExLdCZwAzIWouunI1kMkk6a/0pn6uKkeebUJp3WkaPumAkZDLDkfB9UCq0zZy2O+33cZvBhfZ3a4IwWlFDrvudUDsM8RCr+XY3JqkBHm8O4OPAZUEYrc54Hx4KfBw4n+SHqvUz3A+91c9e1YIA62gOOUsbDaBtHy2BnoxGOCedhl1ml1dvqx6UmhHguag2Nv3z3rb+SWchBlFvy7UttP6bkab9fFRxnxTGokjsHDO+5TT2chBGG1DP6/lGovOCrpr9fBBqz1m1S+l1KE3ajqbNPYAKXXqB+4IwWm0Gfy3DKeUqUPULvuXIzFIksXtVwgS6DcmwPormMFwbhFEE9KW152pamc4x8nwRymwljVXA1Sjq2uroN6ftySaxNf2old0S1KAgl0R6tAS6TDpDH54G7qDJ0/cNhrgR+bEkn/5fTTpdKfLkMFWCMFpojsMhJCfj6EQa9lciuVBakegyMA+NYz/WiHzeUNjCOTzYSDX2mc9ieCTsXLvQC6j4926zV33AoiCM4sEag06mmz/YYRmk61H3lyMSJgAdtjf/ygj7N4HbgjDaZK0xkybPu9t5CIA3p0Seq0acn6EBujWkZE/X0Dzt/GKb+hQq/m5KAl2wL1ZN+KD00MLR55yiYMQ5De3s3eZdt1ql9RoUpT0JyaWStANdpKg3i1s3BmF0M6ptOLFB9nz8jLq2INezbX8WUPHUs2a7NqDJmQvNjj0WhNEQpqd2m9a0JHogCKP7UODnAJKVYcV7cxqSVLajItm7gjBabntwqJ57zbTOk+17vRO4GMk3Jqb0iHvMNi7yM/TH9e+gSdr5mRM6iLLPuV3f0RLoWeYdJFkE9KIRKPcy84UqirCVU3if1bSWfCNGP4pqJr33K2RXW/AMUCK7ftT1QlvN5RWPL8ae63FGmNeiGoY4uvKE6aifdzLdlFiFOge9PgUCHaMTFZofjDrKzEfdmR40Ml02m1pmBNKimtaWHQwHzKbbvX8mkji91hzItMhb1RzSG4wfOIad+2YaENVWs++akkBPN+86yYOz2rz4fj8juUMlBe9wjZGsViUX7U3+3TcDv0PdRt5NdgWFSVxosY2daa8Kak0YO4XLUWH0dSha+KKR6yEn042PUnexHITRsygNvR/pTd8cg/TQs1E2ZLk5brehFH+/7bsVRpCr29m/VTuTr7RfO9D00pORtKyL9PtQb0TDQh5rsonEjgZDvSQcaXghfqHkj9hNSsF4PorGkrfi+peR/v8ZFNVMKtMTZxNSf8aWqnsOCIHjUfSsWcdsx5XloG4f+wDHGBm5AUULHwUeCcKoBy8+bAY8jTIsh6AsS9o2ejzDxbBnoZT4gBHqx7Zzt8bEuoKCZKeg1o9tRqSzGiEed/C5xoIrDkfDEui0Lp2OmgPtyAd2t4t/t4TfZ4DmKYzY1ctinpHLpM7rOLvcJwVhlMUwhirSDP/MHIUDSLb3dZ7QhYpx90HdPOYDv0eytceCMFrrJLqhsQFFS1+FiuyyyrCMAfas+f0+wHkjcFartkfH5cSxXQz8BHgI7/3syAE5zTuB2GxesyNfmGxEZ3wKTl57Cz/nKkr9Jnl5TUIjgQ/J8JLsAX4OfIMW6fe+BSagQtFTgE8D/wG8Ddg7CKPOFMesO+oIc35WAj8EbiQ/UsSxRuan7uA1zWx8HvZfH3CtEWiPPjucQO8Am9Agg5YYoNFgiFt0Jb0uVV/7VJ7BFDKKMpW6i1V7rUdR6G+iyHsrrnubrcWJwCeBfwZOALqcRDcsiR5ErQ2vRoWFjl27bx4HrgBeLHUXfRKowwn0DtAPPAes88PicCSKQTLSQW9BNtYhzei37cLc1MJrsj/wduAfUfp/Xxtg5Gg8El1GfaF/jgpI/T7bOdv0APBV4A/OBRxOoEeGAk3S19DhcIyYbGwCfgF8xn5t5XTtGFT89XXgU8Ac68HraDw8D/wX8CNghZPoEWHIyPMXgata3KF2OIHeZSLtcDhaBy8iveOXgMtQMVartqzqQHrUtwN/A+zvkeiGdAwrSI74TeD7uJxjRyijfun/CVxf6i5u8uizwwm0w+FwbJ9sVC3tvRD4GvB51A9+cws/limoV/alWCTaddGNg5q12gjcg6LQjq1jEA2A+RJwdam72OuPxOEEetfgXqfD0ZpEOm7l99/A54DL0WCKjS1qF6YA7wAuAQ4E2pxENwwKaMT2XwAfR8NVHC/HEHAf8G/Albhsw5FT5L0PdGYDHhwOR65I9OYgjO5BBVhHAm9AU9b2JL0Jb3nBVFRUOISKLRe6jcw3zMmZjloT/g0abOIZ4JdjI+pY8p/AjR55duQZeT/A8UjS8R5lySV8TZoH7fbK85oOAk+iVlb/iqJ4v0BT1Z43QtkqmIHkHM00/rxZyXObrdc7gb9CkWcnzy8/28+gPvCfAK518uzIO/IegZ4InAH8CngBj7LkzfnybgDJo0ryQ0WqKE3an+czVuouggoJ+2389zIjz7OA04DXobHFuyOpQ7M7eNOBc4HbgzC6o9RdHPDjkjvyXABmGnn+EGpN6IGHYZSBpWiE/dXAb1DXHb/rHU6gR4l2uwi7fKlyhz4zdANoqlWSBrbcotXXBdv/00g2YrUZFeg90ygXl+2HAWBJEEZLkS76VuBQ4CQ0iGQMivbNbOI9cjjS1C4LwuhJk7s48oOpSLbhkeet41HUkeR2YAmw0TttOBoFjXCYy3ZR+qHKF1aa0Vud8PvsBxzRohKeDuBYeyXpRPYAjwFrG/jy2mCX8e9Qz9j3Ae9Hk/x+iIazPIEi7ZsZrq1odLsyATgd9Yp2qVuOEITRJKRV/2sUeXbyrHPXgwqDS8Bn0WjueU6eHY14QY8G/XYhTUzwM45FEaR2WkvjmHcMol69/Qm/z6GoWOwWkpcy5A0FYJK9kiRGbagQryHJV82lWw3CqN+cutixm2/fbRyKTB9mpPM0YG8kCdkNySHiZ9Fo0qSZwDnAzSgS7yQke/LcDhyBencfQGvLNip2d69DBYJ3Aw+iThtraN0Mo6PFCfRy4CHgZJKTg8wEXm+Xw3pfslwhjaKzVtZZxzKFoRTepymwlYu4H2mme9BgluuNUF+DtNIVc9JOt+cwHTjaSHbB7FreI4edSLJyDPAsrTtwJi/kuQ1FnN9he6veNmwjygDubvs0j1LMKgqyVNAwlKeQTOx++30/UHHi7GhlAr0ZRSGTNNhjUaTIC9byhULNK2mMB8YFYdTTYgZ3d+BUhqOjSa9l08L2zZARnEE0Hjj+zneg/tKgaP9xSLvaacT6KLOVY5EmPY9t8/ZEhWoPGllxZHuvvhq4EHXfqCf6gOuQbniGOXtnA7Ntf07L8K7sQ1HmXpT5ud5I9GPAcygr1A9UnTg7nEDrAkojOjMN2C8Io/U2ncyRLxKdNM4GTgBuo7XS05OR5GBcCu/VMs/VLu8/fl+LTvfU7OkFRkLaUFeAmfbnBwJvMrLabr/OMjuatQSmYGdkbyfQmWMc6vM8vs57ohe4AWn8H7GffQ3SEE+0/fk2uy8r9mf7mh2p1pzzdlRgO1JUjPhu+V0GUQeNF8w5nYdaTK5G2eLl9m/jSDROnB1OoIfRbsYiaRL9StSiai6tp4ONL/k2M4yT7BlU7dJfn1HlfRmlixcA+5BsGnG2vUcnyWuu84SxJN+BZsjW8RlatMZgi0s9ls3E524hip6B9Jt3GPnoMMJaNKJypBGYGRl+lQnACUEYPVjqLrrcLTscgjJHk+rs4C4BQuDRUncxzqasQ1HfgpHqu21vllEG6ywj0dWa13jbr3ux7exxHBzpMxv/zBYEug1JSe60v6+geqg1sR1xsuxwAr19bAYW2a+TE/boDwNmB2G0tBVaNRlh7kIFKPvb5XgKinrFF/xq4IEgjBaZ8ewlPV1ZxYjXgyjNnSSBnmgX0h+CMFrYCoY5CKPxqDDswITfqg/1Up7Xqs7pCMh11dakz0hMjCVIV92F+k8fDrwK1YTsT/ra1PEWaLgcrxfJ8ty+GhUQ1nP9e1Eh9f2l7uLgVpy/qu3P52r+zWI0eKiLl0agO4GDUYej7d2lbRakmQ+s2oJAF8xebKSmS5aTZocT6JFjJXATcCbJdgroQJGeY4EVNHmRjFVw720E6nxzHtotojC25vsPAhfbM7kaFVo+nsblWeouVoMwKtcY0yTRiYpx9jCHrRWI3nikvZ2S8PsUai5Dx47JdO053WzBA9AkxPtQCvssNDTjGNKR32y5nl5EmB3GmjNV73Pbi9owrtqJ/VlG0elt3d33GvEt7CBQMsh2JF5Omh1OoHftQhkIwmgTyesn25AOcT8jU4NNTJ4LKMr8QeBPjUhvS6/WhaKze1tE4Szg8iCMLgOWp2DYyigK3muELym0ozTkkajry+Ymd6A6kTzgCJIvCBpEUSQn0KMj1EPAUBBGvagX9Ro7v+eZ45sWeR4LTAvCqN3rRTJFEkGFnepbvgP7P4S3hXU4Rk1MR4tYB5s0qZ2Mxnrv06zDAky2sS9qvN+N5BsjKfZoR71sTwc+AXwMOMQi2UmiD2UgHiX5qNduKAo9rpmHRdSM/r3YnKIkv2sZDTS4A+kXHfUh1RvtXPwT8B2UIUqLtM1BfdMn+VCVTDBIMoO/GqWlosPRMqiHRutJ1KbmLHausndnMc4I9KuNtDdVFNrI7n5o5Ou72bWoVQeKRr/XDPhXE768K/bz16bwiCYiDfghwD1NfiZPRLKoNNL/G1A6d5AMOnFsh+QVaNB2V/GYcatN+J45Kh9CEqQ0zsleCdtix7b38mQk3ygksK6vRq3h5vrTdjiyx6i9WSto6COdFPB0FGWd1WSGN448fxA139+9Ds/pNcAr7GcnShSQLrk3hb16qF0ik5v4TE5H2vd9SF5bPmjkebOtZ9r7fiqSqpwDvHYrr2ODMJrSqJFUOx8rgZ+j9mO9Kbxtxc6k66CzuU9PNUe/3g7MGNSf/HQrVHQ4HBmjXlXCd6M2N0eTbIqp3Qj0G4Iw+nmpu9gsWtiJSLLRTf2GZsxBExwfD8JodYKRvB7gSuBcVOyYJCaj6PzzQRj9GtjUTAUs5uwcZRfw2BTesg+4yxygaorfcSbqWHE26hoxdSvvXzDyeQdwcxBG9wMbG60DT6m7WAnCaClwFRoffmAKb+tFXdmggKL/sxJyfmejDCVBGF2NClcHvYjP4WhsAv0wklUcSfIarT3RhKf7gjB6rNGNRxBGY4wwXYR0vvXCBCMov0cFTUk9pwpqmP80qj5PsnVXwd7j7ajt2v00SfGbRVn3AC4w5ycNLEb1C/1pnCOTKe0PfMAcrv3NeSxsxwk81v7fXwK/sTaGjSbfGkD9cm8A3pOSc+RIH1UUSFpswYR634Uddsf+PZJ53QDcG4TR8/b3Q06oHY7GI9A9KAp9knnghYQ/87HAG4DFNp2wIQ2GReMOR9KNg+r849ssErJbkuth7exWG5k9FQ17SXrPHgYcj4oXmyULMRn4M+BPzPlJAw+i/uHVlPb6PijL8h5GJsNqs2dxNBpQcjDqMnNzqbvY0ygLa2dkJWo1+WYn0E2LitnBB8z5S2oI0l5o4uCr0XTWuXaGlwO3WieYRpA9Fcy53NwKsx0cTqC3hbjJ+0UoipZ094fZKIq1Ho0xbTgSZRHHqSiafmaCxjaNCO1mND54TQoEGqQRfzMwLwij2xswIrnlXuhALeveQTraZ1Dx4Hw0yTINB3Qyauv2HiTh2NmLdi+UeTgZ+FIQRr9L8bPXg0SXgzBaj7cOa1qYo9SDurAkvS/Hoy5N8WCtuPvL3XYfNwKBbsNmSVgQpgv1rV6O5GVxRN3JtaN5CXRNFPIJNDxgQgoHbw7qNnFfEEaPNmDP0ynAW40UJFUUlxa5GEADXOaZUU96AlsX0sJ/GigHYXQv0NeImQiTNRwOfJjk29bV7otHUAp4MIXvWLDveLFd+LvyHeMex4cBf4cGN/2UbQ+KyCOWowjlmxqE4Dh2Hu2kO4Gyi+Hgy2QLLDQSBu08bEQzHl5Avf6XoQ5Pjxm3WOVE2pFHD7BeWAPcisbbprXRDwfeCeyXZLeJhAjFccBfGmlq9N6eVTN8C4H+FC+qU1FRzSGNSEiMPB+E+n6/ifSkGwNo5O+KpJ2smtZeZ6AuKqNdp1gHfylwQRBG4xpoyZcC19nzdzQnCmab2jJ8/0Z6jbE78Dik7z4T+Avg48A/AF+0s35CEEa7NdI973ACvTPoQ6Ns55JeYddk4F3A3wIHNsLhss+4HxrRfVAT7aU1SOO5JMX3HIc6G5wHTA3CqNAoLc9MtnEk8FkkbZiUAZFbn8J7xRH2C6jfeOMC6mbxGSCwi7UR1n0q8AqSl7g5skM/KiR80R/FLp/tSUimeSjqJPUh4Lso83RaEEbTgzDq9EFBjqYh0JY+fxF14+hN8TvsbiT6EmDfPJNoO/D7onT921AHgqSNUeKwtR9EqbcbSC8KDdLTvgcIkHwk9wVaFnk+AvgUkvFMSfHtB1CR011Abwqylzb7fjMS2I+HIBnPO6lf+8ckcQiqeejA0azYbGdrCd5OsF4O+CTUOOBDaDjYx9HgtmlOoh1NQaANG1C7puUpf49JRkg/kFcSbaRpD6TbfjfJ9QrdkkCn8ixqHKhrkZQjTQN7EBpf/ingpCCMOnNOng9Fso03ks60wVqsAa4BVqSkGa9ixUAJ7e+DkIzn/CCMJpB/pLE3nVRkBDtTK4xAe8FofTEWKBqR/kdznGe5rMORFeoaCSl1F4eCMLoPpYf3It209Ezg/agLxHeCMHqaHBSWmYc8yTzmP0Fyg5kpvHUV2ISyAWk9gwqS8VyNosFdKb1vXFQ623791yCM7gKG8lJ4YkZ+EkrhfxT1Nk57omIFiIDbSTdLkPTaH4yiUu1BGF0OvJC3gtKa9U+DPHc4ic4Uy4CbgFehollHfff3VNQHe1+zp9cHYXRTqbu4wR+PI+3Lp95YDVwOPJaBBz4D+HPgP1BEeo8stVIWbZyKug98yT7b7JTefgC4B3gyLQJtpGU9cL2tf9rkdQLqjfo5lCqfY2uQqQMVhFGXORQfsn3wZrIZR74W+C2wvMmGLRTsIv0kagU4yzTmeSHP8ZCcC0lerrORdIt5HS9HHyqov9/XITG0oyDdB8ymXuwjzh3NQKDLaMDFz1CxUtroAs5BEalLUZHZ5LTTPHaBH2oH/BNI/5jmZ+hH0wHXpPz8h2z9byddLXytYT0V+CfgI8CRRmCzcqB2A16LigU/jNrvZUHuhpA28zbS7wLRRjpypTlIznEJcIxN+cwDeR6HupCcTbJZmSrqrnIn0OMT6bKBZb2eA36DCgrL/lQStS1xV55znUQ70kTdL3LrCb0WpfFPRpGXtAlMO4pIHYBS5VcBtwRhFKEoXCX+rHW+KOMeoDNQh4VLUKppGumnVJ9F6fq+DPbVWjRY57WoWC5tjVoX6he8N3AUUDJJx9P2PCpAtd4EoybT0YGKW09EOufTUNeIMWSTWq8gTeavgCUZEKu03i+Wc3wY9aMPgzC6G1iF5Dypfm/bDxNsD/wtGpKT9HPuBdY2YF/8ZkMvcIU50J+we9CRnPN8BPAvKFh2GbDRHUhHwxHoGhK9FBUrnYG0Sll4puOBV5qHGgC/tM/0HPBCEEabgcquHjSLaseFepPtvV6JtG8xacrKeN+FIsFpE4cqin7fAXwPtR7KSgc40dbhSGABigg9bkR6lU0NK4+GTBtJivfBOCPOR5rj9ka7OLOWE6wB/gf4PenLqsooEzXXzmHSzyLuO/16c56uNwf6viCMVqHJZmmMLi/Y/jsXtds7JoVn3Yc64bgWNGPYHbgeuBHJyt5gDrQjufv+Fah3dAfwqyCM1juJdjQcgTYDMhSE0QOordnFpDPieVvoQr2XP4BS6I8DD9pruU06ivW6Fbav3W2vIc0zjTBNA05C0pHD7QLPqp1aFUWfryeDYqpSdzH+DOuDMLrKnvebSaf7wLYI1VQUDZ6DKuQfQlMTH0QdYxYFYVQbqd/eHmhjOKJesLXfw5y1o1CV+KtQ9iMPXSHKtt+vLHUXU+9NW+ouVoIwWgTca6R2Ykpv3YY0kn9m63ENyorcH4TRC7w0rV61fTta0hzviTgDcQ4alnRkSt95M3Az6cu2HNsm0U9ZIGE34HjSz8a2GvZDtSbPArcHYTRYj7PtcKRKoA3PAv/PiObrc+CBTzWiexwaZLIIRSYfsMtnDLAYSR/6eWm6vWDf42gjAeONLB1khHlv+/OshyRstKjHPWQ/8Ww1SmPGzynLzgAFJK3ZDenR+1G1/HJ7XmsYniK2Eo263nLQSKeRoYPt348x0nwkij7vizotjCEfXRAq5iiEwPwMP8eAfY7nUIYmzWcTj//eDxXxXYsKvO5DXWoGgZ4gjCq1xGeEhHlL+zAGZVtOQfKls+33adiEKso4LfSRx7lCvzk1fUjG81o8Ep20nT8U9dd/2u5zj0I7Go9AWxR6AVCyTX1wDohFm0UBZtnrROAtKLU9BmlF7wJ6GE7NxwdwHyODExhO2eepB2UcbbwceDEH6as+VEx4ORp2snsO1r9g699ljs8rjPAM1ZyJNeZEraz5NxVb7+PNGRgwYjSO/LYMW2+E8bpSd7E3qw9R097yZrKJzBfM4T0Q+CCainivOXiLkcSj15zPtUEYVUe4phVzmqfYfirazz7L9nqaGLLv8Yxfa7kk0Q9YUONUJ9CJYzySzVwNPI93QnE0IoE29CIZx4kopZrHYQe1wywOsou2uo2LOM9N29cDfwAeLXUXB3PymVaiCOh01GJsbM7XP3aU9ublMo7abhJ5T8VuQpKF35DOyO6R7M3bgDNR1D4rpyOWdlxkZ3ytEd54kuZd5oiO5PMN2Hc5xYj0HGB/spErrUZac48+5wA12YnxFqg5E9VEeJeIdLAvmrnwcBBGS1wL7WhIAm06sDV2kR9jl01nzp9LI042GjLC9DNgXR4+kBmtoSCMngR+bE7U4WQvcxkJCg3yObe1F24Hvgg8VOou5mEi2gDqi3uzOakTcrC+BSTpeY392amo2LgyQgJdRrKgKaTTqm9HQYoH8JZpeSHPbeaEX4AKCI82It3uTyi1oMjrkFzrN0EYDTiJdjQkUbSNey/wbyhCOuiPvq6oolT0FcCCvGkg7fM8CHwXDXbxSz7ZvbAcuBJlIoZysgeqKEp6C6qNyJuzFHfvONAI/pwRvA5BmZX2DMlzfPavovkG5DQqCkiqdAnq/34u6WnhHcPYB03/3YfGDIo5nED/8QLtR1GxryJ9qZOo+mEFalN2U46dk83A/wH/hVLNftEngzXAZagLS972Qj+SSPwU9WZ2jB5DqO7hMQ9MZA+LPs8GupFkbaY/lczQjrKeRwNjsppI7HACXS8S3YdSjf+CCirc4I8eG4GfGDFdkdcKfIuMvWhE/xuoWNNJdH2xCvgR8C3guRxmIuI9cJk500O+ZHVxnq9BA3Jc/5wteY5lGx8G/hxJNupN2qp2bw7k9JW3O32svTwC7ag7Uh/wUOouDgRhdCPSGX6axtBE5xXx2PTLSt3F1Xn/sEagNgRh9AP7o4+iYg+PDIweLyCd+beBpXlN5VtNxHJz+magQTcdvny7hNXmkF5Z6i5u9seRKXkuoOLUS4F3kkwXlqo5TDeiOpe8nZtBJGk6y8522YjrGLKTr4xDUqspKAvqcDQuga45aHfYwYpbg7mHuHOoAE8gXfGCBvvsPajYsd0unL18OUeFDUge80MaQwfbh7TQVdS9ouhO1C6RqflI+/yCP47MyfMsNDTnnUYek8BKs/f/izKPedNUD6FZC69G0pW4NezZqFf+bqQfLJts/OJye34uHXU0NoG2KNRmpNMEFVoU8UjUzhiqh4AvAdcZIW0Y1HRm+aH90aWoyMZJ1M5jrV2o3wYW0gBtzGz9NyHNfjsadX2cn/+dcp7nAj8w59mlG9mS5/GoWO3dJNf/ewmSvv0YyaDy7Mz/AgXEqvbrVWiQ0cn2OsaIdhpBs3jug9sWR3MQ6PgSBfqCMIpJ9CfRlEDf6NtHGXW0+AJwbam7ONCIX8LWf10QRqH90SVIzuEYOdYhzfM3gcWN1IHBPuvmIIyuM4fwUjT23eVcOz7/T5jz/DugxztvZIqC2a3zgT0S+PnVGvIclrqL63P+PKpsMbgkCKO5aBLpHfaszgXehYZYdaTweco0f+S54LazhQh0DeJRp+0oEn0cLufYFuKK+/8Ebm5U8rwVEvgzFEX7U+BY8j+kJA8kah7wexSRWtrAJKoP9WqtoEjeSXgmYnvYiCJ81zp5zhYWfe5CEoHDE7pP+1CR6K9QdLfhYHu0HITRRrNbK5Ds6BIk7Uj6vi/b3Zn1WUny/deh9qXemCFFtOXkcPXYhfBvwJ1oippfDC/F8yja+Dk0orSnGb6Urf9KJOf4W9ShYZ2v/3Yv1JuBTwBfAZ6igVP4Nef/Zjv/9+Cjd7eGCpLr3Iw6Ga3LOXkutIAjVEA9hi9C3TeSIFxPoUzDykZ3lkrdxWqpu1hGEpQrzSlIOqLehnq7H0F2gZk4OpyUZj0OrN1i90MzIdd7viMvBwvoDcLoGvNOLwTeisbitno0egil8EJ7rQLKzRR5qunOca85TyvQ9K6DURGKY3hgxvUo6nx/k2QgauVcN1gE5R2oEGlvX/Y/rv18IxyX0Ri650LCl99Ysk9ZdwKvRRMsk7BTG5B++E6aqOVjTQ3MtWha4OkJOlsFNPSoiCL5vRl85UGz3WuBSSTT2nDAAhHNFHjqsHPuBHqE6EfjaJfY6yLb+FNb9OLcjHRjJdS66Plm7vVa6i6WgzCah/oYP4iq2o9DY59bOa0/YKTpByhys4zmTNX1A7cBz6Eiub8wEt3Kkp4KikJ+E3USWGNRvLxjmZH+OQndM/cbKcmEMNTINw5F3SWSwCJzmDc2m1THSPQCJEM7nOQ6l4CCcB0Z3iF9KLM2F3Wcqvd5iHXezXZHrjQ+eDowLYGfXx5tIKIjb4cKGArCaAXqLPAAika9AaXKulqESPWiiXI3oAEpjwN9raB3LHUXB4MwWmzf/xkU4bnQLqpJLUae+oCnbR9cb0Z4fbPuA7tU+9C49++j6XpvsvWfRes5UesYblV5VYOt/SLgXtTCrN7ntmJn4pkMn0cb0j6/iuRS8xuBVU1s93tsjywzJySp810l28hsFUkwn7HAR7151/MowLayCe1fhCQ/0xKwIfNG+8xy2fHCoqwbgzB6wAzxrajK+WjUFH18ExqTqhGm5UjLdDNwN5ow1lK9K2NdbBBG96Eo1s2owPA84ACav1NLGaX7bkJyjXuNPJVbZO2rwAtBGF0LPGI24C3mRM+g+WVdvUYqfmHE+ZFSd7G/wdax3yKMLyRAoBdZUCHLZ9KGousHJfgeHTR/Z4V+ks+mPW9O+UBGZ6FqBZR3AOcAh9WZCK5AwcZNTSbtrARh9KSd9QPr7GBtQhKi55qOQNc8wDLwvGmjHzXy/FakOduHnOtjdpIwLTZH4Q7gD8BSoL+Vx/OaMVgfhNH95ik+CAQo8rMb+RskUA8naoMZw1vsgM8tdRf7WnT9y0EYLUMFpg8gOc+bUcq3GWU9ZTv3t6II6+3AilJ3sVH1r4+Y8ze7jra6H/W+v5dsW5NV7LOUE36PVrD/sdNcSOgZLkCRzCzt6IDt2ftQbU+97q61SCO/hOYsvF+CtOsno+E89doTz5qNXde0BLoGffaFF6GU5pEotXsWjSvtiIX/carzSpSiX9PqxHkbxOI5FJ2P0PjnM5Gs4xAjU40alawirfuTRp7uQ11WnjEvuaX3QU3B0a1I93onkvWcY0R6PIrSNXJUegBFke60y+IP9vvBBrcDS8z52cOCHu11eE43oWLqzNLVpn+eioaDJFnk3A60B2FUaFIZR7s9w+kJnt/4nu3PkmCaHVuFpHgn2r012u9cMZsRmr1oRgyYTTwITfmcXSe79H2U4R9VcKIhCHRNWrcCPBeE0RIjnSejCVAnmXfSCOndMrAaddN4GLjCFnJVA0ea0lr/PuCJIIyesed2ACo0PRGleHajceQ9A7YPVtv6l8xJXIf3993a+g+hbMRdKBt1vTlSB6FC41fSeBmpOPN0r10SNxsxHGqG9S91FweCMLob9XnfE3VV2tU7J+4X/u8oE1XN8BkVzN6cYc57UtjT7rgFNF97MlCB8EUkO0ArbiGXBylMv53zCcDHzXbtauCvioJKVwDPNit3MMdjKWosMAC8n9FN++w1O3tZqbu4cbSfr6NBH2oZWGUaycdRRPogi3KczHBBQl5S/HG671kUQb/XjOJclKJtyRT9KNa/H0l7VqNI7UG2B443z/7QGmcqT5mJMioMesQ+d2R7Yh6wvNRd9Cb4IyPTG03W8wQwEQ3fOZ/hjMRutvZ5k/hU7OLbiDIOC82Y32Lr39OES9aLUqXtaPrc8btAZuJhW99A7RuzrgUo2P7qTNi+zLTgwC+DMOpvJqc6CKMu+27FFMhtLu4BI4Nrgf8zZ/9Scx7adsGOLAK+g7qYNHXffNNCL0VdqCYB7wYm7+SaVlHQ8nrgl0j6UhdD0OgHMW5R02ke+9koZTgbpfmnAePM60vzQl1vG3sdcBcqhnsItaRabX835JHGUa9/fJmNQanA3YGjjEydjMbFdtrBS7un9KCRpQEkP7nDiNPdqLBlvf0/vg9Gt/6dds73QAMTDrTzfyrq3tFl6582oY6HxMSvO1D6cIXZgmWxLWhWyVbN+RyPJHcfQVr2KSO4fyqoJuBW4MvmcA5kfVaCMGoHTkDj1E9NcF9V7Dt/1vbOQDPYCXt+RwOfQRnkJNtUbkDp+m+hgvxKTp7BVNQD+wKUyZg5gvtp0EjgXcBvjQy+2Cp3h3G9/YCLgTfaHpq2Awekak78YiQn+xXD8rhRP7dCEz7k2JhNtct0upGos+y/O+1ynbzFQx5pRGHIXrX/X58Rok32c4bQwIOnzdOZS+P0b22WS3sMKtaYgyKSr7ffx2s92/68ssWFNXaE52LA/v9CzVmKh8D02XssQYWAy2x/zEeV0q5vT3bt240wH24X0wGoZmJazRrvaU51ZQs70MHIMnODvFyf3mZEeRnD3QVuQbr2HiQ9eQENQqq04NqMRRmCc1FrwrFmk2czrE+toLZVq812Xoc6kczPi/20i/xw4J/tIk+SAA4YYfoCcHujD0+y+/kwNEn1ApKf8bAC+DTwa6A3T2TTbFUs03kzyqROQNKWsXYm+pGsaz2KOv/K9sOyVuUTlr04yOzIBWbrp5mtjyegbqi5i+9Gkfp7S93Fuk6+LLTAw44LPva1TTkepY4OY3haVsXI84Hm4bTz8oKDAirwm2eXYaHm0nzeIgSr7c8rKNK4gWy1ek6mhC5b/5gwtyPd/Al2QcXr029O1/7bOBvx2i5HEpzBmgPbhlLyd6KsQ7v9uihvhrsF13+SGdyxSEYzxRzqfXlpa6uqEbojzE5Ut7EHelD9wsaafVK1fbbYSPM6+/PFFjVyOzC8LtNsPTqQ9Op0hgdB9KHo/KOouHYRORtbbvtqEtJjfobkBqnUkugbgK8g+dcGoNIo+8meV4eRxSOQ7vlikhmOsSUW2xpdnlc7HIRRp905k1EW7TUok1phuEZmsa37cy75/OOemmIBsrHm0J5UEwBZgIqx44DGyiR04oUWeti1kcKJvLQNVtxCZy9biI5tRJeWI93lAC+PQG/gpS2N/MLM7x7A1n/qFus8ZAfykO04URWUWVjIyyPQPUaqKjX7Ct8HuVv7NjO+43l5BHoCkgBN3QaBbrOz/qARvFob0m5/tr52D/j6b3c94ih0/IziOoHePD+/IIw6gLcjacnMFN6y1/bc7Sgq/wjKeJXzur+MGHagTllF1DnnZHNc0yj2LqMM4MeRdLKS071Ua5s6zfaM2YJbDLkt2aEdmcKw3r3Hnls1yedW8GXYqqdc2AZ5KrsMo2X2wPbgmuXm3gPt23Cgap1j75jT2nukE3gf6goyNcW37kGSwKtRS795Rq56qZOuc5TPJda7T2S4uP901DFnJsnKXbbE80hm8yOP2jqcQDscDofDkT2B7kDTMb+IZH9pooL04Y8hPexm1I1qoRHsVby8M0OZ+vSUb+elRVtVJGeJo/CTUSp9Dhpzvh+KDI5L+RmV0WyFTwJPe8DDkQQ6/BE4HA6Hw7HTBO0+NNxnX9INRrUh3fXpqJ6njAqWlyL50INIbhhLE9uQhna+Eetd/axdSMO8F8Pjt4dQD/aj7fdx8e5E+/+zmMtQRdr5y4GlTp4dTqAdDofD4cgBrKfvchT5fSPZDHBqr3nfw+1VQe3R4iERsU50mRHrTaN4vymoj/cshut9ykjDPilHy9OH+obfSnMOoHE4gXY4HA6Ho2ExiLovnYeK5PIwBTcukJ2yxZ/PRpHi0dTwtKNirTxP+42jzzciKYvD4QTa4XA4HI4coYLaGV6DiuWm5fizxsV9zb4eC4EQRZ/7fYs6koQXETocDofDsQuwYsIimkp4GvkbH99K2AB8Dfh2qbv4gj8ORxpeqcPhcDgcjp2EtTOcC/wUFe45ssEQ0qNfhzqUOBxOoB0Oh8PhyDF6UMu0WxjuTuFIlzw/APwLKpT0rhuOVOASDofD4XA4RgEbrHIa8Pf26xh/KomjirpszAM+D1xd6i5W/LE4nEA7HA6Hw9E4JHqMkee/cxKdCnleCpRQx407St3FXn8sjjThEg6Hw+FwOEaPQeAPwBeA25AW1yOi9Ucf8CzwPeArqOez93t2pA6PQDscDofDUSdYJPokNNDkYuBQvDtHPVBFnTZuAq4Abih1F71w05EZvA+0w+FwOBz1wyBwLxqdvQS4BDgE6PRHs8vEud+e5TXAj4EFgEs2HJnCI9AOh8PhcNQZQRgV0ETA1wEXAqcCM4Euv3tHhIoR50Wow8ktSCKzqtRdLPvjcTiBdjgcDoejeUl0B7A38GrgbOAMNFrbiwy3jjLSND8FRKhI8EZgnfXddjicQDscDofD0QJEug0YC+wDnIW6dJwC7A6MwzXSIOnLUuBR4BngTtTfebV32HA4gXY4HA6HozVJdMHu3LHALFRoeChwOnAAMB2YgCLWrXA3l4HNwGpgAHgS+BVwP7DK/m4AoNRd9OEoDifQDofD4XA4maYNGA8cDOwLnAgcCxwE7IaKDic2IWEuAy+gaPMjwO3AejQK/RlgwAmzwwm0w+FwOByO7RHpWCc9HRUZHgHsj6LUZwCTUEHdTGByA9zfteR3PbDG/nsdkmWsQx1KngJWomhzGaj6JEGHE2iHw+FwOBw7Q6TjO7kLRZ9jzfREFK1+DZJ9FIxQ74mi1VsORGsjWU11xQjvllyigiLIS+33VeBu4Fb7u17gOSTL6LNfqx5tdjiBdjgcDofDUW9iHd/T4+yFkdPjgQuMLMcktIzkIK8mGfnHICrye8T+O0aH/f4q4J4aftHLcL9mJ8sOJ9AOh8PhcDgyJdZdWyHJFWAqMMf+vt4oI63yCl46pjyOOG8C+p0oOxwOh8PhcDgcDofD4XA4HA6Hw+FwOBwOh8PhcDgcDofD4XA4HA6Hw+FwOBwOh8PhcDgcDofD4XA4HA6Hw+FwOBwOh8PhcDgcDofD4XA4HA6Hw+FwOBwOh8PhcDgcDofD4XA4HA6Hw+FwOBwOh8PhcDgcDofD4WgF/H/poQvlz3S5zQAAAABJRU5ErkJggg==;" vertex="1" parent="1">
                    <mxGeometry x="44.25" y="320" width="50" height="50" as="geometry"/>
                </mxCell>
            </root>
        </mxGraphModel>
    </diagram>
</mxfile>